<?xml version="1.0" encoding="utf-8"?>
<!-- Generator: Adobe Illustrator 21.0.0, SVG Export Plug-In . SVG Version: 6.00 Build 0)  -->
<svg version="1.1" id="Layer_1" xmlns="http://www.w3.org/2000/svg" xmlns:xlink="http://www.w3.org/1999/xlink" x="0px" y="0px"
	 viewBox="0 0 576 576" style="enable-background:new 0 0 576 576;" xml:space="preserve">
<style type="text/css">
	.st0{stroke:#FFFFFF;stroke-width:3;stroke-miterlimit:10;}
	.st1{fill:#FFFFFF;}
	.st2{clip-path:url(#SVGID_2_);}
	.st3{fill:#3A3A3A;}
</style>
<g>
	<defs>
		<rect id="SVGID_1_" width="576" height="576"/>
	</defs>
	<clipPath id="SVGID_2_">
		<use xlink:href="#SVGID_1_"  style="overflow:visible;"/>
	</clipPath>
	<g class="st2">
		<polygon class="st0" points="191.8,47 145.5,93.2 145.5,239.4 145.5,250.4 145.5,421.8 238.1,421.8 238.1,250.4 238.1,239.4 
			238.1,93.2 		"/>
		
			<rect x="159.1" y="60.5" transform="matrix(0.7071 -0.7071 0.7071 0.7071 -9.7509 162.9145)" class="st0" width="65.4" height="65.4"/>
	</g>
	<g class="st2">
		<polygon class="st0" points="271.8,112.3 206.7,177.3 206.7,383 206.7,398.4 206.7,639.6 336.9,639.6 336.9,398.4 336.9,383 
			336.9,177.3 		"/>
		
			<rect x="225.8" y="131.3" transform="matrix(0.7071 -0.7071 0.7071 0.7071 -45.7801 244.1571)" class="st0" width="92" height="92"/>
	</g>
	<g class="st2">
		<polygon class="st0" points="131.7,131.8 69.1,194.4 69.1,392.3 69.1,407.2 69.1,639.3 194.4,639.3 194.4,407.2 194.4,392.3 
			194.4,194.4 		"/>
		
			<rect x="87.4" y="150.1" transform="matrix(0.7071 -0.7071 0.7071 0.7071 -98.8843 150.0804)" class="st0" width="88.6" height="88.6"/>
	</g>
	<g class="st2">
		<polygon class="st0" points="378.6,96.4 301.7,173.4 301.7,416.4 301.7,434.7 301.7,719.8 455.6,719.8 455.6,434.7 455.6,416.4 
			455.6,173.4 		"/>
		
			<rect x="324.2" y="119" transform="matrix(0.7071 -0.7071 0.7071 0.7071 -11.6978 318.5052)" class="st0" width="108.8" height="108.8"/>
	</g>
	<g class="st2">
		<polygon class="st0" points="145.1,185.9 55,275.9 55,630.3 235.1,630.3 235.1,275.9 		"/>
		
			<rect x="81.4" y="212.3" transform="matrix(0.7071 -0.7071 0.7071 0.7071 -152.6241 183.394)" class="st0" width="127.3" height="127.3"/>
	</g>
	<g class="st2">
		<polygon class="st0" points="405.3,438.1 271.8,304.6 138.3,438.1 138.3,762.5 405.3,762.5 		"/>
		
			<rect x="177.4" y="343.7" transform="matrix(0.7071 -0.7071 0.7071 0.7071 -230.1741 320.5356)" class="st0" width="188.8" height="188.8"/>
	</g>
</g>
</svg>
