<?xml version="1.0" encoding="utf-8"?>
<!-- Generator: Adobe Illustrator 21.0.0, SVG Export Plug-In . SVG Version: 6.00 Build 0)  -->
<svg version="1.1" id="Layer_1" xmlns="http://www.w3.org/2000/svg" xmlns:xlink="http://www.w3.org/1999/xlink" x="0px" y="0px"
	 viewBox="0 0 576 576" style="enable-background:new 0 0 576 576;" xml:space="preserve">
<style type="text/css">
	.st0{clip-path:url(#SVGID_2_);}
	.st1{clip-path:url(#SVGID_4_);}
	.st2{stroke:#FFFFFF;stroke-width:3;stroke-miterlimit:10;}
	.st3{clip-path:url(#SVGID_6_);}
	.st4{clip-path:url(#SVGID_8_);}
	.st5{clip-path:url(#SVGID_10_);}
	.st6{clip-path:url(#SVGID_12_);}
	.st7{clip-path:url(#SVGID_14_);}
</style>
<g>
	<defs>
		<rect id="SVGID_1_" y="0" width="576" height="576"/>
	</defs>
	<clipPath id="SVGID_2_">
		<use xlink:href="#SVGID_1_"  style="overflow:visible;"/>
	</clipPath>
	<g class="st0">
		<g>
			<defs>
				<rect id="SVGID_3_" x="30.4" y="-15.6" width="591.6" height="591.6"/>
			</defs>
			<clipPath id="SVGID_4_">
				<use xlink:href="#SVGID_3_"  style="overflow:visible;"/>
			</clipPath>
			<g class="st1">
				<polygon class="st2" points="227.4,32.7 179.8,80.1 179.8,230.3 179.8,241.6 179.8,417.6 274.9,417.6 274.9,241.6 274.9,230.3 
					274.9,80.1 				"/>
				
					<rect x="193.7" y="46.5" transform="matrix(0.7071 -0.7071 0.7071 0.7071 9.9369 184.2067)" class="st2" width="67.2" height="67.2"/>
			</g>
		</g>
		<g>
			<defs>
				<rect id="SVGID_5_" x="30.4" y="-15.6" width="591.6" height="591.6"/>
			</defs>
			<clipPath id="SVGID_6_">
				<use xlink:href="#SVGID_5_"  style="overflow:visible;"/>
			</clipPath>
			<g class="st3">
				<polygon class="st2" points="309.5,99.7 242.7,166.5 242.7,377.8 242.7,393.6 242.7,641.3 376.4,641.3 376.4,393.6 376.4,377.8 
					376.4,166.5 				"/>
				
					<rect x="262.3" y="119.3" transform="matrix(0.7071 -0.7071 0.7071 0.7071 -27.1045 267.6253)" class="st2" width="94.5" height="94.5"/>
			</g>
		</g>
		<g>
			<defs>
				<rect id="SVGID_7_" x="30.4" y="-15.6" width="591.6" height="591.6"/>
			</defs>
			<clipPath id="SVGID_8_">
				<use xlink:href="#SVGID_7_"  style="overflow:visible;"/>
			</clipPath>
			<g class="st4">
				<polygon class="st2" points="165.6,119.8 101.3,184.1 101.3,387.3 101.3,402.6 101.3,641 230,641 230,402.6 230,387.3 
					230,184.1 				"/>
				
					<rect x="120.1" y="138.6" transform="matrix(0.7071 -0.7071 0.7071 0.7071 -81.6486 171.0289)" class="st2" width="91" height="91"/>
			</g>
		</g>
		<g>
			<defs>
				<rect id="SVGID_9_" x="30.4" y="-15.6" width="591.6" height="591.6"/>
			</defs>
			<clipPath id="SVGID_10_">
				<use xlink:href="#SVGID_9_"  style="overflow:visible;"/>
			</clipPath>
			<g class="st5">
				<polygon class="st2" points="419.2,83.4 340.2,162.5 340.2,412.1 340.2,430.9 340.2,723.7 498.3,723.7 498.3,430.9 498.3,412.1 
					498.3,162.5 				"/>
				
					<rect x="363.4" y="106.6" transform="matrix(0.7071 -0.7071 0.7071 0.7071 7.8899 344.0407)" class="st2" width="111.7" height="111.7"/>
			</g>
		</g>
		<g>
			<defs>
				<rect id="SVGID_11_" x="30.4" y="-15.6" width="591.6" height="591.6"/>
			</defs>
			<clipPath id="SVGID_12_">
				<use xlink:href="#SVGID_11_"  style="overflow:visible;"/>
			</clipPath>
			<g class="st6">
				<polygon class="st2" points="179.4,175.3 86.8,267.8 86.8,631.8 271.8,631.8 271.8,267.8 				"/>
				
					<rect x="114" y="202.4" transform="matrix(0.7071 -0.7071 0.7071 0.7071 -136.8469 205.264)" class="st2" width="130.7" height="130.7"/>
			</g>
		</g>
		<g>
			<defs>
				<rect id="SVGID_13_" x="30.4" y="-15.6" width="591.6" height="591.6"/>
			</defs>
			<clipPath id="SVGID_14_">
				<use xlink:href="#SVGID_13_"  style="overflow:visible;"/>
			</clipPath>
			<g class="st7">
				<polygon class="st2" points="446.6,434.4 309.5,297.2 172.4,434.4 172.4,767.6 446.6,767.6 				"/>
				
					<rect x="212.6" y="337.4" transform="matrix(0.7071 -0.7071 0.7071 0.7071 -216.5039 346.0921)" class="st2" width="193.9" height="193.9"/>
			</g>
		</g>
	</g>
</g>
</svg>
