<?xml version="1.0" encoding="utf-8"?>
<!-- Generator: Adobe Illustrator 21.0.0, SVG Export Plug-In . SVG Version: 6.00 Build 0)  -->
<svg version="1.1" id="Layer_1" xmlns="http://www.w3.org/2000/svg" xmlns:xlink="http://www.w3.org/1999/xlink" x="0px" y="0px"
	 viewBox="0 0 576 360" style="enable-background:new 0 0 576 360;" xml:space="preserve">
<style type="text/css">
	.st0{stroke:#59595C;stroke-miterlimit:10;}
	.st1{clip-path:url(#SVGID_2_);}
	.st2{clip-path:url(#SVGID_5_);}
	.st3{clip-path:url(#SVGID_6_);fill:#282829;}
	.st4{clip-path:url(#SVGID_2_);fill:none;stroke:#676668;stroke-width:0.5;stroke-miterlimit:10;}
	.st5{clip-path:url(#SVGID_8_);}
	.st6{clip-path:url(#SVGID_10_);fill:none;stroke:#D1232A;stroke-width:4;}
	.st7{clip-path:url(#SVGID_12_);}
	.st8{clip-path:url(#SVGID_14_);fill:none;stroke:#D1232A;stroke-width:4;}
	.st9{clip-path:url(#SVGID_16_);fill:none;stroke:#D1232A;stroke-width:4;}
</style>
<g>
	<rect x="101.6" y="77.6" class="st0" width="372.8" height="204.9"/>
	<g>
		<g>
			<defs>
				<rect id="SVGID_1_" x="101.6" y="77.6" width="372.8" height="204.8"/>
			</defs>
			<clipPath id="SVGID_2_">
				<use xlink:href="#SVGID_1_"  style="overflow:visible;"/>
			</clipPath>
			<g class="st1">
				<g>
					<defs>
						<rect id="SVGID_3_" x="261.6" y="-72.9" width="52.9" height="535.5"/>
					</defs>
					<defs>
						<rect id="SVGID_4_" x="261.6" y="-72.9" width="52.9" height="535.5"/>
					</defs>
					<clipPath id="SVGID_5_">
						<use xlink:href="#SVGID_3_"  style="overflow:visible;"/>
					</clipPath>
					<clipPath id="SVGID_6_" class="st2">
						<use xlink:href="#SVGID_4_"  style="overflow:visible;"/>
					</clipPath>
					<path class="st3" d="M293.4,87.5c-0.1,0.1-0.1,0.1-0.1,0.1c0.1,0.1,0.1,0.1,0.2,0.1c0,0,0.1-0.1,0.1-0.1
						C293.4,87.6,293.4,87.6,293.4,87.5 M285.9,129.2c-0.2-0.1-0.3-0.2-0.3-0.3c0,0.1-0.1,0.1-0.1,0.1c0,0.1,0.1,0.2,0.1,0.2
						C285.7,129.2,285.7,129.2,285.9,129.2 M271.7-10.6c0.1,0.1,0.1,0.1,0.2,0.2c0.1-0.1,0.1-0.1,0.1-0.2c0-0.1-0.1-0.2-0.2-0.2
						C271.9-10.7,271.7-10.7,271.7-10.6 M296.8,85.8c0.1-0.1,0.1-0.3,0.1-0.3c0-0.1-0.1-0.2-0.2-0.3c-0.1,0-0.1,0.1-0.3,0.2
						C296.5,85.5,296.6,85.6,296.8,85.8 M271.7,87.5c0.1,0,0.2,0,0.3,0c0-0.2,0.1-0.5,0.1-0.6c-0.1,0-0.1,0-0.3,0
						C271.8,87,271.7,87.2,271.7,87.5 M269.3-14c0-0.1,0-0.2,0.1-0.3c-0.2,0-0.4,0-0.6-0.1c0,0.1,0,0.1,0,0.2
						C268.9-14.1,269.1-14,269.3-14 M287.3,134c-0.1,0-0.2,0.1-0.3,0.1c0.1,0.2,0.1,0.4,0.1,0.6c0.1-0.1,0.3-0.1,0.3-0.1
						C287.4,134.4,287.4,134.2,287.3,134 M274.5,88.6c0.1-0.2,0.3-0.3,0.2-0.3c-0.1-0.1-0.2-0.2-0.3-0.3c-0.1,0.1-0.2,0.2-0.2,0.3
						S274.3,88.4,274.5,88.6 M303.6,179.3c-0.1,0-0.1,0-0.2,0c-0.1,0.3-0.1,0.6,0.3,0.9C303.6,179.8,303.6,179.5,303.6,179.3
						 M287.4-63.9c-0.1,0.1-0.1,0.1-0.1,0.3c0.2,0.3,0.5,0.5,1,0.3C287.9-63.7,287.7-63.8,287.4-63.9 M285.6-62.9
						c0-0.4-0.1-0.7-0.5-0.7c-0.1,0-0.3,0.1-0.3,0.3C284.8-63,285.1-62.9,285.6-62.9 M291.1,89.6c-0.1,0.6,0.3,0.7,0.7,0.8
						c0.1,0,0.3-0.1,0.3-0.3c0-0.4-0.4-0.5-0.6-0.6C291.4,89.5,291.3,89.6,291.1,89.6 M287.2,127.9c-0.1,0-0.1,0-0.2,0
						c-0.3,0.8-0.2,1.2,0.5,1.7C287.4,129,287.3,128.5,287.2,127.9 M287.5,137.4c0.1,0,0.1-0.1,0.2-0.1c0.3-1.6,0.3-1.9-0.6-2
						C287.2,136,287.4,136.8,287.5,137.4 M294,89c-0.3,0.1-0.5,0-0.6,0.1c-0.3,0.5-1,0.6-0.9,1.4C293.4,90.4,293.8,90,294,89
						 M287.2,133.5c0.3-0.6,0.2-1.8-0.2-2.5c-1,0.8-1.1,1.1-0.5,2.9c0.1-0.4,0.2-0.7,0.3-1.1C286.9,133.1,287,133.2,287.2,133.5
						 M294.5,132.7c0.1-0.6,0.1-1-0.5-1.2c-0.2-0.1-0.3-0.3-0.5-0.4c-0.3-0.2-0.6-0.4-0.9-0.5c-0.2,0-0.5,0.2-0.6,0.4
						c-0.1,0.1,0.1,0.5,0.3,0.6C292.8,132.3,293.6,132.7,294.5,132.7 M274.7,89.1c0.2,0.5,0.5,0.9,1,1.2c1.3,0.5,2.7,1,4,1.6
						c0.3,0.1,0.6,0.2,1,0.2c0.5,0.1,0.7-0.4,0.5-0.8c-0.1-0.2-0.4-0.3-0.6-0.4c-0.5-0.3-1-0.5-1.5-0.6c-0.6-0.2-1.2-0.5-1.8-0.5
						c-0.6-0.1-1-0.2-1.4-0.6C275.4,88.7,275.1,88.7,274.7,89.1 M288.3-65.2c-0.7-1-1.6-1.5-2.5-1.6c-1.2-0.2-2.3-0.5-3.6-0.3
						c0.1,0.3,0.1,0.6,0.1,0.8c-0.1,0.6,0.3,0.8,0.8,1c0.8,0.2,1.5,0.6,2.3,0.8c0.3,0.1,0.8,0.3,1.1,0.2
						C287-64.5,287.5-64.9,288.3-65.2 M273.7,34.2c0.6,0.8,0.6,0.8,1.2,0.5c0.3-0.1,0.7-0.3,1-0.5c0.6-0.3,1.2-0.8,1.9-0.9
						c1-0.2,1.8-0.8,2.7-1.3c0.3-0.1,0.6-0.4,0.4-0.8c-0.1-0.3-0.5-0.6-0.8-0.5c-1,0.1-1.9,0.3-2.9,0.5c-0.2,0-0.3,0.2-0.5,0.3
						c-0.3,0.2-0.5,0.5-0.8,0.6C275.3,32.8,274.5,33.5,273.7,34.2 M300.3,183.7c-0.4,0.4-0.6,0.6-0.9,0.8c-0.5,0.4-1,0.7-1.5,1
						c-0.8,0.6-1.6,1.1-2.4,1.7c-0.7,0.5-1.4,1-2.2,1.4c-0.1,0.1-0.3,0.3-0.3,0.5c-0.2,0.6,0.1,1,0.7,0.8c0.5-0.1,1-0.3,1.4-0.5
						c1-0.6,2.1-1.4,3.1-2.1c0.5-0.4,1-0.8,1.6-1.2c0.6-0.5,0.9-1.2,1-1.9C300.6,184.1,300.4,184,300.3,183.7 M275,134.7
						c0.8,0,1.4-0.4,1.9-0.7c0.9-0.5,1.5-1.6,2.7-1.4c0.1,0,0.2-0.1,0.3-0.1c0.4-0.2,0.8-0.4,1.2-0.6c0.4-0.3,0.8-0.6,1.1-1
						s0.1-0.8-0.5-1c-1.2-0.5-2.1-0.2-3,0.8c-0.5,0.6-1.1,1-1.7,1.4c-0.9,0.5-1.3,1.3-1.9,2C275,134.1,275.1,134.4,275,134.7
						 M274.9,184.9c0.5,0.8,0.8,1.4,1.2,2.1c0.5,0.8,1.1,1.4,2.1,1.4c0.4,0,0.8,0.1,1,0.4c0.7,1,1.8,1.2,2.9,1.6
						c0.5,0.2,1,0.3,1.6,0.3c0.5,0.1,0.6-0.2,0.5-0.6c-0.1-0.4-0.3-0.7-0.7-0.8c-0.3,0-0.7-0.1-0.9-0.3c-0.7-0.8-1.6-0.9-2.5-1
						c-0.5,0-1-0.2-1.2-0.8c-0.1-0.2-0.4-0.5-0.6-0.5c-0.7-0.1-1.1-0.6-1.6-1C276.3,185.4,275.9,184.7,274.9,184.9 M285.8,31.4
						c-0.8-0.2-1.2,0-1.3,0.8c-0.1,1.2-0.3,2.3-0.2,3.4c0,0.8,0.3,1.6,0.5,2.3c0.1,0.4,0.4,0.6,1,0.6c0.2-0.5,0.5-1,0.6-1.5
						c0.4-1.6,0.7-3,1.1-4.6c0.1-0.4,0.1-0.8,0.1-1.2c0-0.3-0.1-0.6-0.2-1c-0.2,0.2-0.3,0.3-0.5,0.3c-0.1-0.3-0.3-0.5-0.5-0.9
						C286.1,30.4,286,30.9,285.8,31.4 M280.7,84c0-0.9,0-1.8,0-2.7c0-1.6,0.1-3.1,0.7-4.7c1-2.5,4.5-2.9,6.2-1.4
						c0.7,0.6,1.2,1.4,1.4,2.3c0.3,1.2,0.3,2.5,0.5,3.8c0.1,0.3,0.1,0.6,0.1,1.3c0.6-0.6,1.1-1,1.5-1.4c2.1-2.3,2.8-5.2,2.8-8.2
						c0-2.9-0.1-5.7-0.2-8.5c-0.1-4.4-0.1-8.8-0.1-13.2c0-1.6,0.1-3.3,0-4.9c-0.1-1.2-0.2-2.5-0.5-3.8c-0.4-1.7-1-3.2-2.3-4.5
						c-0.3-0.3-0.6-0.6-1.1-0.6c-0.1,0.3-0.1,0.5-0.1,0.6c-0.3,1.5-0.7,2.9-1.5,4.1c-0.7,1.1-1.6,2-2.9,2.4
						c-2.1,0.6-3.9-0.2-5.1-2.1c-0.9-1.4-1.4-2.9-1.8-4.5c-0.1-0.3-0.2-0.6-0.4-1.1c-0.5,0.5-1,0.8-1.3,1.1c-1.7,1.8-2.5,4-2.7,6.4
						c-0.1,2.2-0.1,4.3-0.1,6.5s0.1,4.5,0.1,6.7c0.1,3.3,0.1,6.6,0.1,10c0,2.1,0,4.3,0.1,6.4c0,0.9,0.1,1.8,0.4,2.7
						c0.6,2.7,2.3,4.6,4.5,6.2C279.4,83.3,280,83.8,280.7,84 M292.5,181c0.9-0.4,1.4-1,1.9-1.6c1.4-1.5,2.3-3.3,2.5-5.4
						c0.1-1.8,0.1-3.6,0.1-5.3c0-2.6-0.1-5.3-0.1-7.8c0-0.9,0-1.8,0-2.7c-0.1-1-0.1-2.1-0.2-3.1c-0.1-3.4-0.1-6.7-0.2-10.2
						c0-2-0.5-4-1.2-5.8c-0.5-1.3-1.4-2.3-2.5-3.2c-0.5-0.4-1-0.7-1.6-0.8c0,0.6,0,1.2,0,1.9c-0.1,1-0.1,2-0.3,3
						c-0.3,2.1-1.4,3.2-3.5,3.4c-1.7,0.2-2.9-0.3-3.6-1.8c-0.3-0.7-0.6-1.5-0.8-2.3c-0.2-1.3-0.3-2.6-0.3-3.8c0-0.3-0.1-0.6-0.1-1.1
						c-0.3,0.1-0.5,0.2-0.7,0.3c-1.1,0.6-2.1,1.4-2.9,2.4c-1.6,2.1-2.5,4.5-2.4,7.2c0.1,3,0.2,6,0.3,9c0.1,4,0.3,7.9,0.4,11.9
						c0.1,2.7,0,5.5,0.3,8.2c0.3,3.7,2.2,6.4,5.4,8.3c0.2,0.1,0.4,0.1,0.6,0.3c0-0.3,0.1-0.5,0.1-0.8c-0.2-1.7-0.1-3.4,0.4-5.1
						c0.5-1.8,1.4-3.1,3.5-3.4c1.5-0.2,2.6,0.3,3.4,1.5c0.7,1,1,2.1,1.2,3.2C292.1,178.6,292.3,179.7,292.5,181 M288.6-17.1
						c0.3-0.4,0.5-0.6,0.6-0.8c1.5-2.1,1.9-4.5,1.9-7.1c0-8.8,0-17.6,0-26.3c0-1.4-0.1-2.9-0.6-4.3c-1-3.1-2.7-5.5-6-6.6
						c-1.1-0.4-2.2-0.6-3.4-0.7c-2.9-0.1-5.4,0.8-7.3,3.2c-2,2.5-2.7,5.4-2.7,8.4c-0.1,8.6,0,17.2,0,25.7c0,1,0.1,2.1,0.3,3.2
						c0.5,2.7,1.8,5,4,6.6c0.2,0.1,0.4,0.2,0.6,0.3c0-0.5,0.1-0.7,0.1-1c-0.1-1.4,0.3-2.7,0.7-4s1.3-2.2,2.6-2.7
						c0.6-0.3,1.3-0.3,1.9-0.5c2.3-0.4,4.2,0.4,5.3,2.4c0.5,0.9,0.8,1.9,1.2,3C288.5-18,288.5-17.7,288.6-17.1 M283.5,194.8
						c0-0.6,0-1.2,0-1.8c0-0.8-0.1-0.8-0.8-1c-1.7-0.5-3.3-1.1-4.9-1.9c-3.8-2.1-6.4-5.1-8.4-8.9c-1-1.9-1.8-3.9-2.1-6
						c-0.2-1.2-0.3-2.5-0.3-3.6c-0.1-4.5-0.2-9-0.3-13.5c-0.1-3.3-0.1-6.5-0.2-9.9c0-0.8-0.1-1.8-0.1-2.6c0-2.2,0.1-4.4,0.6-6.5
						c0.8-3.8,2.6-6.9,5.4-9.6c2.7-2.5,5.8-4.2,9.3-5.2c0.1,0,0.2-0.1,0.3-0.1c0-0.3,0.1-0.6,0.1-0.9c-0.1-4-0.3-7.9-0.4-11.9
						c-0.1-4-0.3-7.9-0.4-11.9c-0.1-1.4-0.1-2.7-0.2-4.1c0-1.4-0.1-1.2-1.3-1.6c-2.3-0.6-4.5-1.4-6.5-2.7c-4.9-3-7.9-7.3-9.1-12.9
						c-0.2-1-0.3-2.1-0.3-3.2c-0.1-2.7-0.1-5.4-0.1-8.1c0-2.1,0-4.2-0.1-6.3c-0.1-3.4-0.1-6.7-0.2-10c-0.1-1.7-0.2-3.4-0.2-5
						c0.1-4.7,1.6-8.9,4.5-12.6c2.2-2.7,4.9-4.8,8-6.2c0.6-0.3,0.8-0.6,0.8-1.2c-0.1-3.4-0.3-6.9-0.4-10.3c-0.1-1.1-0.1-2.3-0.1-3.4
						c-0.1-2.5-0.1-4.9-0.1-7.3c-0.1-3-0.2-5.9-0.3-8.9c0-0.5-0.3-0.6-0.6-0.8c-0.9-0.3-1.9-0.6-2.8-1.1c-3.5-1.6-6.2-4.2-8-7.6
						c-1.4-2.5-2.4-5.1-2.8-7.9c-0.1-1-0.1-2-0.1-3c0-9.3,0-18.6,0-27.9c0-3.4,0.7-6.7,2.2-9.7c1.9-4,4.9-6.9,9-8.6
						c1.4-0.6,2.9-1.2,4.5-1.5c2.7-0.6,5.3-0.6,7.9,0.1c2.2,0.6,4.3,1.4,6.4,2.5c3.6,2.1,6.1,5.2,7.7,9c1.2,2.9,1.8,6,1.8,9.1
						c-0.1,9.1,0,18.2,0,27.3c0,4.3-1,8.4-3.4,11.9c-1.8,2.7-4.1,4.9-7.1,6.2c-0.7,0.3-0.9,0.7-0.9,1.5c0.1,3.7,0.3,7.4,0.3,11.2
						c0.1,3.1,0.1,6.2,0.2,9.4c0.1,2.6,0.1,5.2,0.2,7.7c0,0.7,0.1,1.4,0.1,2.1c0,0.5,0.3,0.8,0.7,1c2.9,1.2,5.3,3,7.4,5.3
						c2.6,3,4.1,6.4,4.7,10.4c0.1,1.2,0.2,2.5,0.2,3.8c0.1,6.7,0.1,13.4,0.2,20c0,2.8,0.1,5.6,0.1,8.4c-0.2,5.8-2.3,10.8-6.7,14.6
						c-1.9,1.7-4.1,3.1-6.5,4c-0.8,0.3-0.9,0.3-0.8,1.2c0.1,3.4,0.3,6.9,0.3,10.4c0.1,2.3,0.1,4.7,0.2,7.1c0.1,3.9,0.3,7.7,0.3,11.6
						c0,0.6,0.3,0.8,0.8,1c2.3,0.6,4.3,1.7,6.2,3c3.1,2.1,5.4,5,6.8,8.5c1,2.5,1.6,5.1,1.6,7.7c0.1,4.3,0.3,8.7,0.4,13
						c0.1,3.1,0.2,6.2,0.3,9.4c0.1,2.5,0.2,5.1,0.2,7.5c0,1-0.1,1.9-0.3,2.9c-0.8,3.9-2.5,7.4-5.3,10.3c-2.2,2.3-4.8,4-7.8,4.9
						c-0.8,0.3-0.8,0.3-0.8,1.1c0,0.7,0.1,1.4,0.1,2.1h-9.1V194.8z"/>
					<path class="st3" d="M282.7,302.3c0.1-0.1,0.1-0.1,0.1-0.1c-0.1-0.1-0.1-0.1-0.2-0.1c0,0-0.1,0.1-0.1,0.1
						C282.6,302.2,282.6,302.2,282.7,302.3 M290.1,260.6c0.2,0.1,0.3,0.2,0.3,0.3c0-0.1,0.1-0.1,0.1-0.1c0-0.1-0.1-0.2-0.1-0.2
						C290.4,260.5,290.3,260.5,290.1,260.6 M304.4,400.3c-0.1-0.1-0.1-0.1-0.2-0.2c-0.1,0.1-0.1,0.1-0.1,0.2c0,0.1,0.1,0.2,0.2,0.2
						C304.2,400.5,304.3,400.4,304.4,400.3 M279.2,303.9c-0.1,0.1-0.1,0.3-0.1,0.3c0,0.1,0.1,0.2,0.2,0.3c0.1,0,0.1-0.1,0.3-0.2
						C279.5,304.2,279.4,304.1,279.2,303.9 M304.3,302.3c-0.1,0-0.2,0-0.3,0c0,0.2-0.1,0.5-0.1,0.6c0.1,0,0.1,0,0.3,0
						C304.3,302.7,304.3,302.5,304.3,302.3 M306.7,403.8c0,0.1,0,0.2-0.1,0.3c0.2,0,0.4,0,0.6,0.1c0-0.1,0-0.1,0-0.2
						C307.1,403.8,306.9,403.8,306.7,403.8 M288.8,255.7c0.1,0,0.2-0.1,0.3-0.1c-0.1-0.2-0.1-0.4-0.1-0.6c-0.1,0.1-0.3,0.1-0.3,0.1
						C288.6,255.3,288.7,255.5,288.8,255.7 M301.5,301.2c-0.1,0.2-0.3,0.3-0.2,0.3c0.1,0.1,0.2,0.2,0.3,0.3c0.1-0.1,0.2-0.2,0.2-0.3
						C301.8,301.5,301.7,301.4,301.5,301.2 M272.5,210.5c0.1,0,0.1,0,0.2,0c0.1-0.3,0.1-0.6-0.3-0.9
						C272.4,209.9,272.5,210.2,272.5,210.5 M288.6,453.7c0.1-0.1,0.1-0.1,0.1-0.3c-0.2-0.3-0.5-0.5-1-0.3
						C288.1,453.4,288.4,453.6,288.6,453.7 M290.5,452.7c0,0.4,0.1,0.7,0.5,0.7c0.1,0,0.3-0.1,0.3-0.3
						C291.2,452.8,291,452.6,290.5,452.7 M285,300.2c0.1-0.6-0.3-0.7-0.7-0.8c-0.1,0-0.3,0.1-0.3,0.3c0,0.4,0.4,0.5,0.6,0.6
						C284.6,300.3,284.8,300.2,285,300.2 M288.8,261.8c0.1,0,0.1,0,0.2,0c0.3-0.8,0.2-1.2-0.5-1.7
						C288.6,260.7,288.8,261.2,288.8,261.8 M288.5,252.3c-0.1,0-0.1,0.1-0.2,0.1c-0.3,1.6-0.3,1.9,0.6,2
						C288.8,253.6,288.6,253,288.5,252.3 M282,300.7c0.3-0.1,0.5,0,0.6-0.1c0.3-0.5,1-0.6,0.9-1.4
						C282.6,299.3,282.2,299.7,282,300.7 M288.8,256.3c-0.3,0.6-0.2,1.8,0.2,2.5c1-0.8,1.1-1.1,0.5-2.9c-0.1,0.4-0.2,0.7-0.3,1.1
						C289.2,256.7,289,256.6,288.8,256.3 M281.5,256.9c-0.1,0.6-0.1,1,0.5,1.2c0.2,0.1,0.3,0.3,0.5,0.4c0.3,0.2,0.6,0.4,0.9,0.5
						c0.2,0,0.5-0.2,0.6-0.4c0.1-0.1-0.1-0.5-0.3-0.6C283.2,257.5,282.5,257.1,281.5,256.9 M301.4,300.6c-0.2-0.5-0.5-0.9-1-1.2
						c-1.3-0.5-2.7-1-4-1.6c-0.3-0.1-0.6-0.2-1-0.2c-0.5-0.1-0.7,0.4-0.5,0.8c0.1,0.2,0.4,0.3,0.6,0.4c0.5,0.3,1,0.5,1.5,0.6
						c0.6,0.2,1.2,0.5,1.8,0.5c0.6,0.1,1,0.2,1.4,0.6C300.6,301,301,301.1,301.4,300.6 M287.8,454.9c0.7,1,1.6,1.5,2.5,1.6
						c1.2,0.2,2.3,0.5,3.6,0.3c-0.1-0.3-0.1-0.6-0.1-0.8c0.1-0.6-0.3-0.8-0.8-1c-0.8-0.2-1.5-0.6-2.3-0.8c-0.3-0.1-0.8-0.3-1.1-0.2
						C289,454.3,288.5,454.6,287.8,454.9 M302.3,355.6c-0.6-0.8-0.6-0.8-1.2-0.5c-0.3,0.1-0.7,0.3-1,0.5c-0.6,0.3-1.2,0.8-1.9,0.9
						c-1,0.2-1.8,0.8-2.7,1.3c-0.3,0.1-0.6,0.4-0.4,0.8c0.1,0.3,0.5,0.6,0.8,0.5c1-0.1,1.9-0.3,2.9-0.5c0.2,0,0.3-0.2,0.5-0.3
						c0.3-0.2,0.5-0.5,0.8-0.6C300.8,356.8,301.5,356.2,302.3,355.6 M275.7,206.1c0.4-0.4,0.6-0.6,0.9-0.8c0.5-0.4,1-0.7,1.5-1
						c0.8-0.6,1.6-1.1,2.4-1.7c0.7-0.5,1.4-1,2.2-1.4c0.1-0.1,0.3-0.3,0.3-0.5c0.2-0.6-0.1-1-0.7-0.8c-0.5,0.1-1,0.3-1.4,0.5
						c-1,0.6-2.1,1.4-3.1,2.1c-0.5,0.4-1,0.8-1.6,1.2c-0.6,0.5-0.9,1.2-1,1.9C275.4,205.6,275.6,205.8,275.7,206.1 M301,255.1
						c-0.8,0-1.4,0.4-1.9,0.7c-0.9,0.5-1.5,1.6-2.7,1.4c-0.1,0-0.2,0.1-0.3,0.1c-0.4,0.2-0.8,0.4-1.2,0.6c-0.4,0.3-0.8,0.6-1.1,1
						c-0.3,0.4-0.1,0.8,0.5,1c1.2,0.5,2.1,0.2,3-0.8c0.5-0.6,1.1-1,1.7-1.4c0.9-0.5,1.3-1.3,1.9-2C301,255.7,301,255.4,301,255.1
						 M301.1,204.9c-0.5-0.8-0.8-1.4-1.2-2.1c-0.5-0.8-1.1-1.4-2.1-1.4c-0.4,0-0.8-0.1-1-0.4c-0.7-1-1.8-1.2-2.9-1.6
						c-0.5-0.2-1-0.3-1.6-0.3c-0.5-0.1-0.6,0.2-0.5,0.6c0.1,0.4,0.3,0.7,0.7,0.8c0.3,0,0.7,0.1,0.9,0.3c0.7,0.8,1.6,0.9,2.5,1
						c0.5,0,1,0.2,1.2,0.8c0.1,0.2,0.4,0.5,0.6,0.5c0.7,0.1,1.1,0.6,1.6,1C299.7,204.4,300.1,205,301.1,204.9 M290.3,358.3
						c0.8,0.2,1.2,0,1.3-0.8c0.1-1.2,0.3-2.3,0.2-3.4c0-0.8-0.3-1.6-0.5-2.3c-0.1-0.4-0.4-0.6-1-0.6c-0.2,0.5-0.5,1-0.6,1.5
						c-0.4,1.6-0.7,3-1.1,4.6c-0.1,0.4-0.1,0.8-0.1,1.2c0,0.3,0.1,0.6,0.2,1c0.2-0.2,0.3-0.3,0.5-0.3c0.1,0.3,0.3,0.5,0.5,0.9
						C289.9,359.3,290.1,358.9,290.3,358.3 M295.4,305.8c0,0.9,0,1.8,0,2.7c0,1.6-0.1,3.1-0.7,4.7c-1,2.5-4.5,2.9-6.2,1.4
						c-0.7-0.6-1.2-1.4-1.4-2.3c-0.3-1.2-0.3-2.5-0.5-3.8c-0.1-0.3-0.1-0.6-0.1-1.3c-0.6,0.6-1.1,1-1.5,1.4
						c-2.1,2.3-2.8,5.2-2.8,8.2c0,2.9,0.1,5.7,0.2,8.5c0.1,4.4,0.1,8.8,0.1,13.2c0,1.6-0.1,3.3,0,4.9c0.1,1.2,0.2,2.5,0.5,3.8
						c0.4,1.7,1,3.2,2.3,4.5c0.3,0.3,0.6,0.6,1.1,0.6c0.1-0.3,0.1-0.5,0.1-0.6c0.3-1.5,0.7-2.9,1.5-4.1c0.7-1.1,1.6-2,2.9-2.4
						c2.1-0.6,3.9,0.2,5.1,2.1c0.9,1.4,1.4,2.9,1.8,4.5c0.1,0.3,0.2,0.6,0.4,1.1c0.5-0.5,1-0.8,1.3-1.1c1.7-1.8,2.5-4,2.7-6.4
						c0.1-2.2,0.1-4.3,0.1-6.5c0-2.2-0.1-4.5-0.1-6.7c-0.1-3.3-0.1-6.6-0.1-10c0-2.1,0-4.3-0.1-6.4c0-0.9-0.1-1.8-0.4-2.7
						c-0.6-2.7-2.3-4.6-4.5-6.2C296.6,306.4,296.1,305.9,295.4,305.8 M283.6,208.8c-0.9,0.4-1.4,1-1.9,1.6c-1.4,1.5-2.3,3.3-2.5,5.4
						c-0.1,1.8-0.1,3.6-0.1,5.3c0,2.6,0.1,5.3,0.1,7.8c0,0.9,0,1.8,0,2.7c0.1,1,0.1,2.1,0.2,3.1c0.1,3.4,0.1,6.7,0.2,10.2
						c0,2,0.5,4,1.2,5.8c0.5,1.3,1.4,2.3,2.5,3.2c0.5,0.4,1,0.7,1.6,0.8c0-0.6,0-1.2,0-1.9c0.1-1,0.1-2,0.3-3
						c0.3-2.1,1.4-3.2,3.5-3.4c1.7-0.2,2.9,0.3,3.6,1.8c0.3,0.7,0.6,1.5,0.8,2.3c0.2,1.3,0.3,2.6,0.3,3.8c0,0.3,0.1,0.6,0.1,1.1
						c0.3-0.1,0.5-0.2,0.7-0.3c1.1-0.6,2.1-1.4,2.9-2.4c1.6-2.1,2.5-4.5,2.4-7.2c-0.1-3-0.2-6-0.3-9c-0.1-4-0.3-7.9-0.4-11.9
						c-0.1-2.7,0-5.5-0.3-8.2c-0.3-3.7-2.2-6.4-5.4-8.3c-0.2-0.1-0.4-0.1-0.6-0.3c0,0.3-0.1,0.5-0.1,0.8c0.2,1.7,0.1,3.4-0.4,5.1
						c-0.5,1.8-1.4,3.1-3.5,3.4c-1.5,0.2-2.6-0.3-3.4-1.5c-0.7-1-1-2.1-1.2-3.2C283.9,211.2,283.8,210,283.6,208.8 M287.4,406.8
						c-0.3,0.4-0.5,0.6-0.6,0.8c-1.5,2.1-1.9,4.5-1.9,7.1c0,8.8,0,17.6,0,26.3c0,1.4,0.1,2.9,0.6,4.3c1,3.1,2.7,5.5,6,6.6
						c1.1,0.4,2.2,0.6,3.4,0.7c2.9,0.1,5.4-0.8,7.3-3.2c2-2.5,2.7-5.4,2.7-8.4c0.1-8.6,0-17.2,0-25.7c0-1-0.1-2.1-0.3-3.2
						c-0.5-2.7-1.8-5-4-6.6c-0.2-0.1-0.4-0.2-0.6-0.3c0,0.5-0.1,0.7-0.1,1c0.1,1.4-0.3,2.7-0.7,4c-0.5,1.3-1.3,2.2-2.6,2.7
						c-0.6,0.3-1.3,0.3-1.9,0.5c-2.3,0.4-4.2-0.4-5.3-2.4c-0.5-0.9-0.8-1.9-1.2-3C287.6,407.7,287.5,407.3,287.4,406.8 M292.5,194.8
						c0,0.6,0,1.2,0,1.8c0,0.8,0.1,0.8,0.8,1c1.7,0.5,3.3,1.1,4.9,1.9c3.8,2.1,6.4,5.1,8.4,8.9c1,1.9,1.8,3.9,2.1,6
						c0.2,1.2,0.3,2.5,0.3,3.6c0.1,4.5,0.2,9,0.3,13.5c0.1,3.3,0.1,6.5,0.2,9.9c0,0.8,0.1,1.8,0.1,2.6c0,2.2-0.1,4.4-0.6,6.5
						c-0.8,3.8-2.6,6.9-5.4,9.6c-2.7,2.5-5.8,4.2-9.3,5.2c-0.1,0-0.2,0.1-0.3,0.1c0,0.3-0.1,0.6-0.1,0.9c0.1,4,0.3,7.9,0.4,11.9
						c0.1,4,0.3,7.9,0.4,11.9c0.1,1.4,0.1,2.7,0.2,4.1c0,1.4,0.1,1.2,1.3,1.6c2.3,0.6,4.5,1.4,6.5,2.7c4.9,3,7.9,7.3,9.1,12.9
						c0.2,1,0.3,2.1,0.3,3.2c0.1,2.7,0.1,5.4,0.1,8.1c0,2.1,0,4.2,0.1,6.3c0.1,3.4,0.1,6.7,0.2,10c0.1,1.7,0.2,3.4,0.2,5
						c-0.1,4.7-1.6,8.9-4.5,12.6c-2.2,2.7-4.9,4.8-8,6.2c-0.6,0.3-0.8,0.6-0.8,1.2c0.1,3.4,0.3,6.9,0.4,10.3
						c0.1,1.1,0.1,2.3,0.1,3.4c0.1,2.5,0.1,4.9,0.1,7.3c0.1,3,0.2,5.9,0.3,8.9c0,0.5,0.3,0.6,0.6,0.8c0.9,0.3,1.9,0.6,2.8,1.1
						c3.5,1.6,6.2,4.2,8,7.6c1.4,2.5,2.4,5.1,2.8,7.9c0.1,1,0.1,2,0.1,3c0,9.3,0,18.6,0,27.9c0,3.4-0.7,6.7-2.2,9.7
						c-1.9,4-4.9,6.9-9,8.6c-1.4,0.6-2.9,1.2-4.5,1.5c-2.7,0.6-5.3,0.6-7.9-0.1c-2.2-0.6-4.3-1.4-6.4-2.5c-3.6-2.1-6.1-5.2-7.7-9
						c-1.2-2.9-1.8-6-1.8-9.1c0.1-9.1,0-18.2,0-27.3c0-4.3,1-8.4,3.4-11.9c1.8-2.7,4.1-4.9,7.1-6.2c0.7-0.3,0.9-0.7,0.9-1.5
						c-0.1-3.7-0.3-7.4-0.3-11.2c-0.1-3.1-0.1-6.2-0.2-9.4c-0.1-2.6-0.1-5.2-0.2-7.7c0-0.7-0.1-1.4-0.1-2.1c0-0.5-0.3-0.8-0.7-1
						c-2.9-1.2-5.3-3-7.4-5.3c-2.6-3-4.1-6.4-4.7-10.4c-0.1-1.2-0.2-2.5-0.2-3.8c-0.1-6.7-0.1-13.4-0.2-20c0-2.8-0.1-5.6-0.1-8.4
						c0.2-5.8,2.3-10.8,6.7-14.6c1.9-1.7,4.1-3.1,6.5-4c0.8-0.3,0.9-0.3,0.8-1.2c-0.1-3.4-0.3-6.9-0.3-10.4
						c-0.1-2.3-0.1-4.7-0.2-7.1c-0.1-3.9-0.3-7.7-0.3-11.6c0-0.6-0.3-0.8-0.8-1c-2.3-0.6-4.3-1.7-6.2-3c-3.1-2.1-5.4-5-6.8-8.5
						c-1-2.5-1.6-5.1-1.6-7.7c-0.1-4.3-0.3-8.7-0.4-13c-0.1-3.1-0.2-6.2-0.3-9.4c-0.1-2.5-0.2-5.1-0.2-7.5c0-1,0.1-1.9,0.3-2.9
						c0.8-3.9,2.5-7.4,5.3-10.3c2.2-2.3,4.8-4,7.8-4.9c0.8-0.3,0.8-0.3,0.8-1.1c0-0.7-0.1-1.4-0.1-2.1h9.1V194.8z"/>
				</g>
			</g>
			<path class="st4" d="M101.6,77.6c0,0,159.9,100,186.4,100c31.8,0,186.4-100,186.4-100S101.6,77.6,101.6,77.6z"/>
			<g class="st1">
				<g>
					<defs>
						<rect id="SVGID_7_" x="251" y="159.3" width="74.6" height="35.9"/>
					</defs>
					<clipPath id="SVGID_8_">
						<use xlink:href="#SVGID_7_"  style="overflow:visible;"/>
					</clipPath>
					<path class="st5" d="M251.9,178c0,0,35.4-39.2,72.7,0"/>
				</g>
				<g>
					<defs>
						<rect id="SVGID_9_" x="251" y="159.3" width="74.6" height="35.9"/>
					</defs>
					<clipPath id="SVGID_10_">
						<use xlink:href="#SVGID_9_"  style="overflow:visible;"/>
					</clipPath>
					<path class="st6" d="M251.9,178c0,0,35.4-39.2,72.7,0"/>
				</g>
				<g>
					<defs>
						<rect id="SVGID_11_" x="251" y="159.3" width="74.6" height="35.9"/>
					</defs>
					<clipPath id="SVGID_12_">
						<use xlink:href="#SVGID_11_"  style="overflow:visible;"/>
					</clipPath>
					<path class="st7" d="M324.6,176.5c0,0-35.4,39.2-72.7,0"/>
				</g>
				<g>
					<defs>
						<rect id="SVGID_13_" x="251" y="159.3" width="74.6" height="35.9"/>
					</defs>
					<clipPath id="SVGID_14_">
						<use xlink:href="#SVGID_13_"  style="overflow:visible;"/>
					</clipPath>
					<path class="st8" d="M324.6,176.5c0,0-35.4,39.2-72.7,0"/>
				</g>
				<g>
					<defs>
						<rect id="SVGID_15_" x="251" y="159.3" width="74.6" height="35.9"/>
					</defs>
					<clipPath id="SVGID_16_">
						<use xlink:href="#SVGID_15_"  style="overflow:visible;"/>
					</clipPath>
					<circle class="st9" cx="288.3" cy="177.3" r="10.5"/>
				</g>
			</g>
		</g>
	</g>
</g>
</svg>
