<?xml version="1.0" encoding="utf-8"?>
<!-- Generator: Adobe Illustrator 21.0.0, SVG Export Plug-In . SVG Version: 6.00 Build 0)  -->
<svg version="1.1" id="Layer_1" xmlns="http://www.w3.org/2000/svg" xmlns:xlink="http://www.w3.org/1999/xlink" x="0px" y="0px"
	 viewBox="0 0 576 360" style="enable-background:new 0 0 576 360;" xml:space="preserve">
<style type="text/css">
	.st0{clip-path:url(#SVGID_2_);}
	.st1{clip-path:url(#SVGID_2_);fill:none;stroke:#D2232A;stroke-width:4;}
	.st2{stroke:#58595B;stroke-miterlimit:10;}
	.st3{clip-path:url(#SVGID_4_);}
	.st4{clip-path:url(#SVGID_6_);fill:#282829;}
	.st5{fill:url(#SVGID_7_);stroke:#58595B;stroke-width:0.5;stroke-miterlimit:10;}
	.st6{clip-path:url(#SVGID_9_);}
	.st7{fill:none;stroke:#FFFFFF;stroke-width:3;stroke-miterlimit:10;}
	.st8{fill:none;stroke:#FFFFFF;stroke-width:3;}
	.st9{fill:none;stroke:#5D595A;stroke-width:0.25;stroke-miterlimit:10;}
	.st10{stroke:#5D595A;stroke-width:0.5;stroke-miterlimit:10;}
</style>
<g>
	<defs>
		<rect id="SVGID_1_" x="251.4" y="18.6" width="74.5" height="35.9"/>
	</defs>
	<clipPath id="SVGID_2_">
		<use xlink:href="#SVGID_1_"  style="overflow:visible;"/>
	</clipPath>
	<path class="st0" d="M252.4,37.3c0,0,35.4-39.2,72.7,0"/>
	<path class="st1" d="M252.4,37.3c0,0,35.4-39.2,72.7,0"/>
	<path class="st0" d="M325,35.8c0,0-35.4,39.2-72.7,0"/>
	<path class="st1" d="M325,35.8c0,0-35.4,39.2-72.7,0"/>
	<circle class="st1" cx="288.7" cy="36.6" r="10.5"/>
</g>
<rect x="102.9" y="136.5" class="st2" width="372.8" height="204.9"/>
<g>
	<defs>
		<rect id="SVGID_3_" x="102.9" y="136.6" width="372.8" height="204.8"/>
	</defs>
	<clipPath id="SVGID_4_">
		<use xlink:href="#SVGID_3_"  style="overflow:visible;"/>
	</clipPath>
	<g class="st3">
		<defs>
			<rect id="SVGID_5_" x="262.8" y="-14" width="52.9" height="535.6"/>
		</defs>
		<clipPath id="SVGID_6_">
			<use xlink:href="#SVGID_5_"  style="overflow:visible;"/>
		</clipPath>
		<path class="st4" d="M294.6,146.5c0,0-0.1,0.1-0.1,0.1c0.1,0,0.1,0.1,0.2,0.1c0,0,0.1-0.1,0.1-0.1
			C294.7,146.5,294.6,146.5,294.6,146.5 M287.1,188.1c-0.2-0.2-0.3-0.2-0.3-0.3c0,0.1-0.1,0.1-0.1,0.1c0,0.1,0.1,0.2,0.1,0.2
			C286.9,188.2,287,188.1,287.1,188.1 M272.9,48.4c0.1,0.1,0.2,0.1,0.2,0.2c0.1-0.1,0.2-0.1,0.2-0.2c0-0.1-0.1-0.2-0.2-0.2
			C273.1,48.2,273,48.3,272.9,48.4 M298,144.8c0.1-0.1,0.1-0.2,0.1-0.3c0-0.1-0.1-0.2-0.2-0.3c0,0-0.2,0.1-0.2,0.2
			C297.7,144.5,297.8,144.6,298,144.8 M272.9,146.4c0.1,0,0.2,0,0.3,0c0-0.2,0.1-0.5,0.1-0.7c-0.1,0-0.2,0-0.2,0
			C273,146,273,146.2,272.9,146.4 M270.5,44.9c0-0.1,0-0.2,0-0.3c-0.2,0-0.4,0-0.6,0c0,0.1,0,0.1,0,0.2
			C270.2,44.8,270.3,44.9,270.5,44.9 M288.5,193c-0.1,0-0.2,0-0.3,0.1c0,0.2,0.1,0.4,0.1,0.6c0.1,0,0.3-0.1,0.3-0.1
			C288.6,193.3,288.5,193.2,288.5,193 M275.7,147.5c0.1-0.2,0.2-0.3,0.2-0.4c-0.1-0.1-0.2-0.2-0.3-0.3c-0.1,0.1-0.2,0.2-0.2,0.2
			C275.4,147.2,275.5,147.3,275.7,147.5 M304.7,238.2c-0.1,0-0.1,0-0.2,0c-0.1,0.3-0.1,0.6,0.3,0.9
			C304.8,238.7,304.8,238.5,304.7,238.2 M288.6-5c0,0.1-0.1,0.2-0.1,0.2c0.2,0.2,0.4,0.5,1,0.2C289.1-4.8,288.9-4.9,288.6-5
			 M286.8-4c0-0.4-0.1-0.7-0.5-0.7c-0.1,0-0.2,0.2-0.2,0.2C286.1-4.1,286.3-3.9,286.8-4 M292.3,148.5c-0.1,0.6,0.3,0.7,0.7,0.8
			c0.1,0,0.3-0.2,0.3-0.3c0-0.4-0.4-0.5-0.7-0.6C292.6,148.4,292.5,148.5,292.3,148.5 M288.4,186.9c-0.1,0-0.1,0-0.2,0
			c-0.3,0.9-0.2,1.3,0.5,1.7C288.6,188,288.5,187.4,288.4,186.9 M288.7,196.4c0.1,0,0.1,0,0.2-0.1c0.3-1.6,0.2-1.9-0.7-2
			C288.4,195,288.6,195.7,288.7,196.4 M295.2,148c-0.2,0-0.5,0-0.6,0.1c-0.3,0.4-1,0.7-0.9,1.3C294.7,149.4,295.1,149,295.2,148
			 M288.4,192.4c0.3-0.6,0.2-1.8-0.2-2.5c-1.1,0.8-1.1,1.1-0.6,2.9c0.1-0.4,0.2-0.7,0.3-1.1C288.1,192,288.2,192.2,288.4,192.4
			 M295.8,191.7c0.1-0.6,0.1-1-0.5-1.2c-0.2-0.1-0.3-0.3-0.5-0.4c-0.3-0.2-0.6-0.4-0.9-0.4c-0.2,0-0.5,0.2-0.7,0.4
			c-0.1,0.1,0.1,0.5,0.2,0.6C294,191.3,294.8,191.6,295.8,191.7 M275.9,148c0.2,0.5,0.5,0.9,1,1.1c1.3,0.5,2.6,1.1,4,1.6
			c0.3,0.1,0.6,0.2,0.9,0.2c0.5,0,0.7-0.4,0.5-0.8c-0.1-0.2-0.4-0.3-0.6-0.4c-0.5-0.2-1-0.5-1.5-0.6c-0.6-0.2-1.2-0.4-1.7-0.5
			c-0.6,0-1-0.2-1.4-0.6C276.6,147.7,276.3,147.6,275.9,148 M289.5-6.2c-0.7-1-1.6-1.5-2.5-1.6c-1.2-0.2-2.3-0.5-3.6-0.4
			c0,0.3,0.1,0.6,0.1,0.8c0,0.6,0.2,0.9,0.8,1c0.8,0.2,1.5,0.6,2.2,0.8c0.4,0.1,0.8,0.3,1.1,0.2C288.2-5.6,288.8-5.9,289.5-6.2
			 M275,93.2c0.6,0.8,0.6,0.8,1.3,0.5c0.4-0.2,0.7-0.3,1.1-0.5c0.6-0.3,1.2-0.8,1.9-0.9c1-0.2,1.8-0.8,2.6-1.3
			c0.3-0.2,0.6-0.4,0.4-0.8c-0.1-0.3-0.4-0.6-0.9-0.5c-0.9,0.1-1.9,0.3-2.8,0.5c-0.2,0-0.3,0.2-0.5,0.3c-0.3,0.2-0.5,0.4-0.8,0.7
			C276.5,91.8,275.7,92.5,275,93.2 M301.5,242.6c-0.4,0.4-0.6,0.6-0.9,0.8c-0.5,0.4-1,0.7-1.5,1.1c-0.8,0.6-1.6,1.1-2.4,1.7
			c-0.7,0.5-1.4,1-2.2,1.4c-0.2,0.1-0.3,0.3-0.3,0.4c-0.2,0.6,0.1,1,0.7,0.8c0.5-0.1,0.9-0.2,1.3-0.5c1.1-0.7,2.1-1.4,3.1-2.1
			c0.5-0.4,1-0.8,1.5-1.2c0.6-0.5,0.9-1.2,1-1.9C301.8,243.1,301.6,242.9,301.5,242.6 M276.2,193.6c0.8,0,1.3-0.4,1.9-0.7
			c0.9-0.5,1.5-1.5,2.7-1.3c0.1,0,0.2-0.1,0.3-0.1c0.4-0.2,0.8-0.4,1.2-0.6c0.4-0.3,0.8-0.7,1.1-1.1c0.3-0.4,0.1-0.9-0.4-1
			c-1.2-0.4-2.1-0.2-3,0.8c-0.5,0.6-1.1,1-1.7,1.4c-0.9,0.5-1.3,1.3-1.8,2C276.3,193.1,276.3,193.3,276.2,193.6 M276.1,243.8
			c0.5,0.8,0.8,1.5,1.2,2.1c0.5,0.8,1.1,1.4,2.2,1.4c0.4,0,0.9,0.1,1,0.4c0.7,1,1.8,1.3,2.9,1.6c0.5,0.2,1.1,0.3,1.6,0.3
			c0.4,0,0.6-0.2,0.5-0.6c-0.1-0.4-0.2-0.7-0.7-0.8c-0.3,0-0.7-0.1-0.9-0.3c-0.7-0.8-1.6-0.9-2.5-1c-0.5,0-1-0.2-1.2-0.8
			c-0.1-0.2-0.4-0.5-0.6-0.5c-0.7-0.1-1.1-0.6-1.6-0.9C277.5,244.3,277.1,243.7,276.1,243.8 M287,90.3c-0.9-0.2-1.2,0-1.3,0.8
			c-0.1,1.1-0.2,2.3-0.2,3.5c0,0.8,0.2,1.6,0.4,2.3c0.1,0.4,0.4,0.6,1,0.6c0.2-0.5,0.4-1,0.6-1.5c0.4-1.5,0.7-3.1,1.1-4.6
			c0.1-0.4,0.1-0.8,0.1-1.1c0-0.3-0.1-0.6-0.2-1c-0.2,0.2-0.3,0.2-0.4,0.3c-0.1-0.3-0.3-0.5-0.5-0.9C287.4,89.4,287.2,89.9,287,90.3
			 M281.9,142.9c0-0.9,0-1.8,0-2.7c0-1.6,0.1-3.1,0.7-4.6c0.9-2.5,4.5-2.8,6.1-1.3c0.7,0.6,1.2,1.4,1.4,2.3c0.2,1.3,0.4,2.5,0.5,3.8
			c0,0.3,0.1,0.7,0.1,1.3c0.6-0.6,1.1-0.9,1.5-1.4c2.1-2.3,2.8-5.2,2.8-8.2c0-2.8-0.1-5.7-0.2-8.5c-0.1-4.4-0.1-8.8-0.1-13.3
			c0-1.6,0.1-3.3,0-4.9c-0.1-1.2-0.2-2.5-0.5-3.7c-0.4-1.7-1.1-3.2-2.3-4.5c-0.3-0.3-0.6-0.6-1.1-0.6c0,0.2-0.1,0.5-0.1,0.7
			c-0.3,1.5-0.7,2.9-1.5,4.2c-0.7,1.1-1.6,2-2.9,2.4c-2.1,0.6-3.9-0.2-5.1-2.1c-0.9-1.4-1.4-2.9-1.7-4.5c-0.1-0.3-0.2-0.6-0.4-1.1
			c-0.5,0.5-0.9,0.8-1.3,1.1c-1.7,1.8-2.6,4-2.7,6.4c-0.1,2.2-0.1,4.4-0.1,6.6c0,2.2,0.1,4.4,0.1,6.7c0,3.3,0.1,6.6,0.1,10
			c0,2.1,0,4.3,0.1,6.4c0,0.9,0.2,1.8,0.4,2.7c0.7,2.7,2.3,4.6,4.5,6.2C280.6,142.3,281.2,142.8,281.9,142.9 M293.7,239.9
			c0.9-0.4,1.4-1,1.9-1.6c1.4-1.5,2.3-3.3,2.5-5.4c0.1-1.8,0.1-3.5,0-5.3c0-2.6-0.1-5.2-0.1-7.8c0-0.9,0-1.8,0-2.7
			c0-1-0.2-2.1-0.2-3.1c-0.1-3.4-0.1-6.8-0.2-10.2c0-2-0.4-4-1.2-5.8c-0.5-1.3-1.4-2.3-2.5-3.2c-0.5-0.4-1-0.7-1.6-0.8
			c0,0.7,0,1.3,0,1.9c-0.1,1-0.1,2-0.2,3c-0.4,2.1-1.5,3.2-3.5,3.4c-1.7,0.2-2.9-0.3-3.7-1.7c-0.3-0.7-0.7-1.5-0.8-2.3
			c-0.2-1.3-0.2-2.6-0.3-3.8c0-0.3,0-0.7-0.1-1.1c-0.3,0.1-0.5,0.2-0.7,0.3c-1.1,0.6-2.1,1.4-2.9,2.4c-1.7,2.1-2.4,4.5-2.4,7.2
			c0,3,0.2,6,0.3,9c0.1,4,0.3,7.9,0.4,11.9c0.1,2.7,0,5.5,0.2,8.2c0.3,3.7,2.2,6.4,5.4,8.3c0.2,0.1,0.4,0.1,0.7,0.2
			c0-0.3,0.1-0.5,0-0.8c-0.2-1.7,0-3.4,0.4-5.1c0.4-1.8,1.5-3.1,3.5-3.3c1.5-0.2,2.6,0.3,3.4,1.5c0.7,1,1,2.1,1.2,3.2
			C293.3,237.5,293.5,238.7,293.7,239.9 M289.9,41.9c0.3-0.4,0.5-0.6,0.7-0.8c1.5-2.1,1.9-4.5,1.9-7.1c0-8.8,0-17.6,0-26.3
			c0-1.4-0.1-2.9-0.6-4.3c-1-3.1-2.7-5.5-6-6.6c-1.1-0.4-2.2-0.6-3.4-0.7c-2.9-0.2-5.4,0.9-7.2,3.2c-2,2.4-2.6,5.4-2.6,8.4
			c0,8.6,0,17.2,0,25.8c0,1.1,0.1,2.1,0.3,3.2c0.5,2.7,1.8,5,4,6.6c0.2,0.1,0.4,0.2,0.7,0.3c0-0.4,0.1-0.7,0.1-1
			c0-1.4,0.3-2.7,0.7-4c0.4-1.3,1.3-2.2,2.6-2.7c0.6-0.2,1.3-0.3,2-0.5c2.3-0.4,4.2,0.4,5.3,2.4c0.5,0.9,0.8,2,1.1,3
			C289.7,41,289.7,41.3,289.9,41.9 M284.7,253.8c0-0.6,0-1.2,0-1.7c0-0.8-0.1-0.8-0.8-1c-1.7-0.4-3.3-1.1-4.8-1.9
			c-3.7-2.1-6.4-5.1-8.3-8.9c-0.9-1.9-1.7-3.9-2.1-6c-0.2-1.2-0.3-2.4-0.3-3.7c-0.1-4.5-0.2-9-0.3-13.5c-0.1-3.3-0.1-6.6-0.2-9.9
			c0-0.9-0.1-1.7-0.1-2.6c0-2.2,0.1-4.4,0.6-6.5c0.9-3.7,2.6-7,5.4-9.6c2.7-2.5,5.8-4.2,9.4-5.2c0.1,0,0.2-0.1,0.3-0.2
			c0-0.3,0.1-0.6,0.1-0.9c-0.1-4-0.2-7.9-0.4-11.9s-0.2-7.9-0.4-11.9c0-1.4-0.1-2.7-0.2-4.1c0-1.4-0.1-1.3-1.3-1.6
			c-2.3-0.6-4.5-1.4-6.5-2.7c-4.9-3-7.9-7.3-9.1-12.9c-0.2-1-0.3-2.1-0.3-3.2c-0.1-2.7-0.1-5.4-0.2-8.1c0-2.1,0-4.2-0.1-6.3
			c-0.1-3.4-0.1-6.7-0.2-10.1c0-1.7-0.2-3.3-0.2-5c0.1-4.7,1.6-8.9,4.5-12.6c2.2-2.7,4.9-4.8,8.1-6.2c0.6-0.3,0.8-0.6,0.8-1.3
			c-0.1-3.4-0.3-6.9-0.4-10.3c0-1.1-0.1-2.3-0.1-3.4c-0.1-2.4-0.1-4.9-0.2-7.3c-0.1-3-0.2-5.9-0.3-8.9c0-0.5-0.3-0.7-0.7-0.8
			c-0.9-0.3-1.9-0.7-2.8-1.1c-3.5-1.6-6.1-4.2-8.1-7.6c-1.4-2.5-2.4-5.1-2.8-7.9c-0.1-1-0.1-2-0.1-3c0-9.3,0-18.6,0-27.9
			c0-3.4,0.7-6.7,2.2-9.7c1.9-4,4.9-6.9,9-8.6c1.5-0.6,2.9-1.2,4.5-1.5c2.7-0.6,5.3-0.6,7.9,0.1c2.2,0.6,4.4,1.4,6.3,2.5
			c3.6,2.2,6.1,5.2,7.7,9c1.2,2.9,1.8,5.9,1.8,9.1c-0.1,9.1,0,18.2,0,27.3c0,4.3-0.9,8.3-3.4,11.9c-1.8,2.7-4.1,4.9-7.1,6.2
			c-0.7,0.3-0.9,0.7-0.9,1.5c0.1,3.7,0.2,7.4,0.3,11.1c0.1,3.1,0.1,6.3,0.2,9.4c0.1,2.6,0.1,5.2,0.2,7.7c0,0.7,0.1,1.4,0.1,2.1
			c0,0.5,0.2,0.8,0.7,1c2.9,1.2,5.3,3,7.4,5.3c2.6,3,4.1,6.4,4.6,10.3c0.2,1.2,0.2,2.5,0.2,3.8c0.1,6.7,0.1,13.4,0.2,20
			c0,2.8,0.2,5.6,0.1,8.4c-0.2,5.8-2.3,10.7-6.7,14.6c-1.9,1.7-4.1,3.1-6.5,4c-0.9,0.3-0.9,0.3-0.8,1.3c0.1,3.4,0.2,6.9,0.4,10.3
			c0.1,2.4,0.1,4.7,0.2,7.1c0.1,3.9,0.3,7.7,0.3,11.6c0,0.6,0.3,0.8,0.8,1c2.2,0.7,4.3,1.7,6.2,3c3.1,2.1,5.4,5,6.8,8.5
			c1,2.5,1.5,5,1.6,7.7c0.1,4.4,0.2,8.7,0.4,13c0.1,3.1,0.2,6.2,0.3,9.4c0.1,2.5,0.2,5,0.2,7.5c0,1-0.1,1.9-0.3,2.9
			c-0.9,3.9-2.5,7.4-5.3,10.3c-2.2,2.3-4.8,4-7.9,4.9c-0.8,0.3-0.9,0.3-0.9,1.1c0,0.7,0.1,1.4,0.1,2.1H284.7z"/>
		<path class="st4" d="M283.9,361.2c0,0,0.1-0.1,0.1-0.1c-0.1,0-0.1-0.1-0.2-0.1c0,0-0.1,0.1-0.1,0.1
			C283.8,361.1,283.9,361.2,283.9,361.2 M291.4,319.5c0.2,0.2,0.3,0.2,0.3,0.3c0-0.1,0.1-0.1,0.1-0.1c0-0.1-0.1-0.2-0.1-0.2
			C291.6,319.4,291.5,319.5,291.4,319.5 M305.6,459.3c-0.1-0.1-0.2-0.1-0.2-0.2c-0.1,0.1-0.2,0.1-0.2,0.2c0,0.1,0.1,0.2,0.2,0.2
			C305.4,459.5,305.5,459.3,305.6,459.3 M280.5,362.9c-0.1,0.1-0.1,0.2-0.1,0.3c0,0.1,0.1,0.2,0.2,0.3c0,0,0.2-0.1,0.2-0.2
			C280.7,363.2,280.7,363.1,280.5,362.9 M305.5,361.2c-0.1,0-0.2,0-0.3,0c0,0.2-0.1,0.5-0.1,0.7c0.1,0,0.2,0,0.2,0
			C305.5,361.7,305.5,361.4,305.5,361.2 M308,462.7c0,0.1,0,0.2,0,0.3c0.2,0,0.4,0,0.6,0c0-0.1,0-0.1,0-0.2
			C308.3,462.8,308.1,462.8,308,462.7 M290,314.7c0.1,0,0.2,0,0.3-0.1c0-0.2-0.1-0.4-0.1-0.6c-0.1,0-0.3,0.1-0.3,0.1
			C289.9,314.3,289.9,314.5,290,314.7 M302.8,360.1c-0.1,0.2-0.2,0.3-0.2,0.4c0.1,0.1,0.2,0.2,0.3,0.3c0.1-0.1,0.2-0.2,0.2-0.2
			C303,360.4,302.9,360.3,302.8,360.1 M273.7,269.4c0.1,0,0.1,0,0.2,0c0.1-0.3,0.1-0.6-0.3-0.9C273.7,268.9,273.7,269.2,273.7,269.4
			 M289.8,512.7c0-0.1,0.1-0.2,0.1-0.2c-0.2-0.2-0.4-0.5-1-0.2C289.3,512.4,289.6,512.5,289.8,512.7 M291.7,511.6
			c0,0.4,0.1,0.7,0.5,0.7c0.1,0,0.2-0.2,0.2-0.2C292.4,511.8,292.2,511.6,291.7,511.6 M286.1,359.1c0.1-0.6-0.3-0.7-0.7-0.8
			c-0.1,0-0.3,0.2-0.3,0.3c0,0.4,0.4,0.5,0.7,0.6C285.9,359.2,286,359.2,286.1,359.1 M290.1,320.7c0.1,0,0.1,0,0.2,0
			c0.3-0.9,0.2-1.3-0.5-1.7C289.9,319.7,290,320.2,290.1,320.7 M289.7,311.3c-0.1,0-0.1,0-0.2,0.1c-0.3,1.6-0.2,1.9,0.7,2
			C290,312.6,289.9,312,289.7,311.3 M283.2,359.7c0.2,0,0.5,0,0.6-0.1c0.3-0.4,1-0.7,0.9-1.3C283.8,358.3,283.4,358.7,283.2,359.7
			 M290,315.2c-0.3,0.6-0.2,1.8,0.2,2.5c1.1-0.8,1.1-1.1,0.6-2.9c-0.1,0.4-0.2,0.7-0.3,1.1C290.4,315.7,290.2,315.5,290,315.2
			 M282.7,315.9c-0.1,0.6-0.1,1,0.5,1.2c0.2,0.1,0.3,0.3,0.5,0.4c0.3,0.2,0.6,0.4,0.9,0.4c0.2,0,0.5-0.2,0.7-0.4
			c0.1-0.1-0.1-0.5-0.2-0.6C284.4,316.4,283.7,316,282.7,315.9 M302.6,359.6c-0.2-0.5-0.5-0.9-1-1.1c-1.3-0.5-2.6-1.1-4-1.6
			c-0.3-0.1-0.6-0.2-0.9-0.2c-0.5,0-0.7,0.4-0.5,0.8c0.1,0.2,0.4,0.3,0.6,0.4c0.5,0.2,1,0.5,1.5,0.6c0.6,0.2,1.2,0.4,1.7,0.5
			c0.6,0,1,0.2,1.4,0.6C301.8,360,302.2,360.1,302.6,359.6 M289,513.9c0.7,1,1.6,1.5,2.5,1.6c1.2,0.2,2.3,0.5,3.6,0.4
			c0-0.3-0.1-0.6-0.1-0.8c0-0.6-0.2-0.9-0.8-1c-0.8-0.2-1.5-0.6-2.2-0.8c-0.4-0.1-0.8-0.3-1.1-0.2
			C290.2,513.2,289.7,513.6,289,513.9 M303.5,414.5c-0.6-0.8-0.6-0.8-1.3-0.5c-0.4,0.2-0.7,0.3-1.1,0.5c-0.6,0.3-1.2,0.8-1.9,0.9
			c-1,0.2-1.8,0.8-2.6,1.3c-0.3,0.2-0.6,0.4-0.4,0.8c0.1,0.3,0.4,0.6,0.9,0.5c0.9-0.1,1.9-0.3,2.8-0.5c0.2,0,0.3-0.2,0.5-0.3
			c0.3-0.2,0.5-0.4,0.8-0.7C302,415.8,302.7,415.2,303.5,414.5 M277,265c0.4-0.4,0.6-0.6,0.9-0.8c0.5-0.4,1-0.7,1.5-1.1
			c0.8-0.6,1.6-1.1,2.4-1.7c0.7-0.5,1.4-1,2.2-1.4c0.2-0.1,0.3-0.3,0.3-0.4c0.2-0.6-0.1-1-0.7-0.8c-0.5,0.1-0.9,0.2-1.3,0.5
			c-1.1,0.7-2.1,1.4-3.1,2.1c-0.5,0.4-1,0.8-1.5,1.2c-0.6,0.5-0.9,1.2-1,1.9C276.6,264.6,276.8,264.8,277,265 M302.3,314
			c-0.8,0-1.3,0.4-1.9,0.7c-0.9,0.5-1.5,1.5-2.7,1.3c-0.1,0-0.2,0.1-0.3,0.1c-0.4,0.2-0.8,0.4-1.2,0.6c-0.4,0.3-0.8,0.7-1.1,1.1
			c-0.3,0.4-0.1,0.9,0.4,1c1.2,0.4,2.1,0.2,3-0.8c0.5-0.6,1.1-1,1.7-1.4c0.9-0.5,1.3-1.3,1.8-2C302.2,314.6,302.2,314.4,302.3,314
			 M302.3,263.8c-0.5-0.8-0.8-1.5-1.2-2.1c-0.5-0.8-1.1-1.4-2.2-1.4c-0.4,0-0.9-0.1-1-0.4c-0.7-1-1.8-1.3-2.9-1.6
			c-0.5-0.2-1.1-0.3-1.6-0.3c-0.4,0-0.6,0.2-0.5,0.6c0.1,0.4,0.2,0.7,0.7,0.8c0.3,0,0.7,0.1,0.9,0.3c0.7,0.8,1.6,0.9,2.5,1
			c0.5,0,1,0.2,1.2,0.8c0.1,0.2,0.4,0.5,0.6,0.5c0.7,0.1,1.1,0.6,1.6,0.9C300.9,263.3,301.3,264,302.3,263.8 M291.5,417.3
			c0.9,0.2,1.2,0,1.3-0.8c0.1-1.1,0.2-2.3,0.2-3.5c0-0.8-0.2-1.6-0.4-2.3c-0.1-0.4-0.4-0.6-1-0.6c-0.2,0.5-0.4,1-0.6,1.5
			c-0.4,1.5-0.7,3.1-1.1,4.6c-0.1,0.4-0.1,0.8-0.1,1.1c0,0.3,0.1,0.6,0.2,1c0.2-0.2,0.3-0.2,0.4-0.3c0.1,0.3,0.3,0.5,0.5,0.9
			C291.1,418.3,291.3,417.8,291.5,417.3 M296.6,364.7c0,0.9,0,1.8,0,2.7c0,1.6-0.1,3.1-0.7,4.6c-0.9,2.5-4.5,2.8-6.1,1.3
			c-0.7-0.6-1.2-1.4-1.4-2.3c-0.2-1.3-0.4-2.5-0.5-3.8c0-0.3-0.1-0.7-0.1-1.3c-0.6,0.6-1.1,0.9-1.5,1.4c-2.1,2.3-2.8,5.2-2.8,8.2
			c0,2.8,0.1,5.7,0.2,8.5c0.1,4.4,0.1,8.8,0.1,13.3c0,1.6-0.1,3.3,0,4.9c0.1,1.2,0.2,2.5,0.5,3.7c0.4,1.7,1.1,3.2,2.3,4.5
			c0.3,0.3,0.6,0.6,1.1,0.6c0-0.2,0.1-0.5,0.1-0.7c0.3-1.5,0.7-2.9,1.5-4.2c0.7-1.1,1.6-2,2.9-2.4c2.1-0.6,3.9,0.2,5.1,2.1
			c0.9,1.4,1.4,2.9,1.7,4.5c0.1,0.3,0.2,0.6,0.4,1.1c0.5-0.5,0.9-0.8,1.3-1.1c1.7-1.8,2.6-4,2.7-6.4c0.1-2.2,0.1-4.4,0.1-6.6
			c0-2.2-0.1-4.4-0.1-6.7c0-3.3-0.1-6.6-0.1-10c0-2.1,0-4.3-0.1-6.4c0-0.9-0.2-1.8-0.4-2.7c-0.7-2.7-2.3-4.6-4.5-6.2
			C297.8,365.4,297.3,364.9,296.6,364.7 M284.8,267.7c-0.9,0.4-1.4,1-1.9,1.6c-1.4,1.5-2.3,3.3-2.5,5.4c-0.1,1.8-0.1,3.5,0,5.3
			c0,2.6,0.1,5.2,0.1,7.8c0,0.9,0,1.8,0,2.7c0,1,0.2,2.1,0.2,3.1c0.1,3.4,0.1,6.8,0.2,10.2c0,2,0.4,4,1.2,5.8
			c0.5,1.3,1.4,2.3,2.5,3.2c0.5,0.4,1,0.7,1.6,0.8c0-0.7,0-1.3,0-1.9c0.1-1,0.1-2,0.2-3c0.4-2.1,1.5-3.2,3.5-3.4
			c1.7-0.2,2.9,0.3,3.7,1.7c0.3,0.7,0.7,1.5,0.8,2.3c0.2,1.3,0.2,2.6,0.3,3.8c0,0.3,0,0.7,0.1,1.1c0.3-0.1,0.5-0.2,0.7-0.3
			c1.1-0.6,2.1-1.4,2.9-2.4c1.7-2.1,2.4-4.5,2.4-7.2c0-3-0.2-6-0.3-9c-0.1-4-0.3-7.9-0.4-11.9c-0.1-2.7,0-5.5-0.2-8.2
			c-0.3-3.7-2.2-6.4-5.4-8.3c-0.2-0.1-0.4-0.1-0.7-0.2c0,0.3-0.1,0.5,0,0.8c0.2,1.7,0,3.4-0.4,5.1c-0.4,1.8-1.5,3.1-3.5,3.3
			c-1.5,0.2-2.6-0.3-3.4-1.5c-0.7-1-1-2.1-1.2-3.2C285.1,270.1,285,269,284.8,267.7 M288.6,465.8c-0.3,0.4-0.5,0.6-0.7,0.8
			c-1.5,2.1-1.9,4.5-1.9,7.1c0,8.8,0,17.6,0,26.3c0,1.4,0.1,2.9,0.6,4.3c1,3.1,2.7,5.5,6,6.6c1.1,0.4,2.2,0.6,3.4,0.7
			c2.9,0.2,5.4-0.9,7.2-3.2c2-2.4,2.6-5.4,2.6-8.4c0-8.6,0-17.2,0-25.8c0-1.1-0.1-2.1-0.3-3.2c-0.5-2.7-1.8-5-4-6.6
			c-0.2-0.1-0.4-0.2-0.7-0.3c0,0.4-0.1,0.7-0.1,1c0,1.4-0.3,2.7-0.7,4c-0.4,1.3-1.3,2.2-2.6,2.7c-0.6,0.2-1.3,0.3-2,0.5
			c-2.3,0.4-4.2-0.4-5.3-2.4c-0.5-0.9-0.8-2-1.1-3C288.8,466.7,288.8,466.3,288.6,465.8 M293.8,253.8c0,0.6,0,1.2,0,1.7
			c0,0.8,0.1,0.8,0.8,1c1.7,0.4,3.3,1.1,4.8,1.9c3.7,2.1,6.4,5.1,8.3,8.9c0.9,1.9,1.7,3.9,2.1,6c0.2,1.2,0.3,2.4,0.3,3.7
			c0.1,4.5,0.2,9,0.3,13.5c0.1,3.3,0.1,6.6,0.2,9.9c0,0.9,0.1,1.7,0.1,2.6c0,2.2-0.1,4.4-0.6,6.5c-0.9,3.7-2.6,7-5.4,9.6
			c-2.7,2.5-5.8,4.2-9.4,5.2c-0.1,0-0.2,0.1-0.3,0.2c0,0.3-0.1,0.6-0.1,0.9c0.1,4,0.2,7.9,0.4,11.9c0.1,4,0.2,7.9,0.4,11.9
			c0,1.4,0.1,2.7,0.2,4.1c0,1.4,0.1,1.3,1.3,1.6c2.3,0.6,4.5,1.4,6.5,2.7c4.9,3,7.9,7.3,9.1,12.9c0.2,1,0.3,2.1,0.3,3.2
			c0.1,2.7,0.1,5.4,0.2,8.1c0,2.1,0,4.2,0.1,6.3c0.1,3.4,0.1,6.7,0.2,10.1c0,1.7,0.2,3.3,0.2,5c-0.1,4.7-1.6,8.9-4.5,12.6
			c-2.2,2.7-4.9,4.8-8.1,6.2c-0.6,0.3-0.8,0.6-0.8,1.3c0.1,3.4,0.3,6.9,0.4,10.3c0,1.1,0.1,2.3,0.1,3.4c0.1,2.4,0.1,4.9,0.2,7.3
			c0.1,3,0.2,5.9,0.3,8.9c0,0.5,0.3,0.7,0.7,0.8c0.9,0.3,1.9,0.7,2.8,1.1c3.5,1.6,6.1,4.2,8.1,7.6c1.4,2.5,2.4,5.1,2.8,7.9
			c0.1,1,0.1,2,0.1,3c0,9.3,0,18.6,0,27.9c0,3.4-0.7,6.7-2.2,9.7c-1.9,4-4.9,6.9-9,8.6c-1.5,0.6-2.9,1.2-4.5,1.5
			c-2.7,0.6-5.3,0.6-7.9-0.1c-2.2-0.6-4.4-1.4-6.3-2.5c-3.6-2.2-6.1-5.2-7.7-9c-1.2-2.9-1.8-5.9-1.8-9.1c0.1-9.1,0-18.2,0-27.3
			c0-4.3,0.9-8.3,3.4-11.9c1.8-2.7,4.1-4.9,7.1-6.2c0.7-0.3,0.9-0.7,0.9-1.5c-0.1-3.7-0.2-7.4-0.3-11.1c-0.1-3.1-0.1-6.3-0.2-9.4
			c-0.1-2.6-0.1-5.2-0.2-7.7c0-0.7-0.1-1.4-0.1-2.1c0-0.5-0.2-0.8-0.7-1c-2.9-1.2-5.3-3-7.4-5.3c-2.6-3-4.1-6.4-4.6-10.3
			c-0.2-1.2-0.2-2.5-0.2-3.8c-0.1-6.7-0.1-13.4-0.2-20c0-2.8-0.2-5.6-0.1-8.4c0.2-5.8,2.3-10.7,6.7-14.6c1.9-1.7,4.1-3.1,6.5-4
			c0.9-0.3,0.9-0.3,0.8-1.3c-0.1-3.4-0.2-6.9-0.4-10.3c-0.1-2.4-0.1-4.7-0.2-7.1c-0.1-3.9-0.3-7.7-0.3-11.6c0-0.6-0.3-0.8-0.8-1
			c-2.2-0.7-4.3-1.7-6.2-3c-3.1-2.1-5.4-5-6.8-8.5c-1-2.5-1.5-5-1.6-7.7c-0.1-4.4-0.2-8.7-0.4-13c-0.1-3.1-0.2-6.2-0.3-9.4
			c-0.1-2.5-0.2-5-0.2-7.5c0-1,0.1-1.9,0.3-2.9c0.9-3.9,2.5-7.4,5.3-10.3c2.2-2.3,4.8-4,7.9-4.9c0.8-0.3,0.9-0.3,0.9-1.1
			c0-0.7-0.1-1.4-0.1-2.1H293.8z"/>
	</g>
</g>
<linearGradient id="SVGID_7_" gradientUnits="userSpaceOnUse" x1="289.2356" y1="193.4047" x2="289.2356" y2="135.3685">
	<stop  offset="0" style="stop-color:#454545"/>
	<stop  offset="1" style="stop-color:#000000"/>
</linearGradient>
<path class="st5" d="M102.9,136.6c0,0,159.9,99.9,186.4,99.9c31.7,0,186.4-99.9,186.4-99.9H102.9z"/>
<g>
	<defs>
		<path id="SVGID_8_" d="M130.7,153.7c0,0,135.4,82.9,158.6,82.9c27.9,0,159.4-82.9,159.4-82.9H130.7z"/>
	</defs>
	<clipPath id="SVGID_9_">
		<use xlink:href="#SVGID_8_"  style="overflow:visible;"/>
	</clipPath>
	<g class="st6">
		<rect x="125.7" y="-204.8" width="327.2" height="483.4"/>
		<polygon points="289.2,254.5 342.3,204.4 342.3,7.2 236.2,7.2 236.2,204.4 		"/>
		<polygon class="st7" points="289.2,254.5 342.3,204.4 342.3,7.2 236.2,7.2 236.2,204.4 		"/>
		<polygon points="236.2,204.4 289.2,154.3 342.3,204.4 289.2,254.5 		"/>
		<polygon class="st7" points="236.2,204.4 289.2,154.3 342.3,204.4 289.2,254.5 		"/>
		<rect x="236.9" y="-80.7" width="104.7" height="162.3"/>
		<line class="st8" x1="342.3" y1="7.2" x2="342.3" y2="-217.2"/>
		<line class="st8" x1="236.2" y1="7.2" x2="236.2" y2="-217.2"/>
		<g>
			<path class="st8" d="M315,204.2c0,0-25.1,26.3-51.5,0"/>
			<path class="st8" d="M263.5,205.2c0,0,25.1-26.3,51.5,0"/>
			<ellipse class="st8" cx="289.2" cy="204.7" rx="7.5" ry="7.1"/>
		</g>
	</g>
</g>
<path class="st9" d="M130.7,153.7c0,0,135.4,82.9,158.6,82.9c27.9,0,159.4-82.9,159.4-82.9H130.7z"/>
<path class="st10" d="M475.6,136.5c0,0-159.9-99.9-186.4-99.9c-31.7,0-186.4,99.9-186.4,99.9H475.6z"/>
</svg>
