<?xml version="1.0" encoding="utf-8"?>
<!-- Generator: Adobe Illustrator 21.0.0, SVG Export Plug-In . SVG Version: 6.00 Build 0)  -->
<svg version="1.1" id="Layer_1" xmlns="http://www.w3.org/2000/svg" xmlns:xlink="http://www.w3.org/1999/xlink" x="0px" y="0px"
	 viewBox="0 0 612 792" style="enable-background:new 0 0 612 792;" xml:space="preserve">
<style type="text/css">
	.st0{clip-path:url(#SVGID_2_);}
	.st1{clip-path:url(#SVGID_4_);fill:url(#SVGID_5_);}
	.st2{clip-path:url(#SVGID_7_);fill:none;stroke:#FFFFFF;stroke-width:2.473;stroke-miterlimit:10;}
	.st3{clip-path:url(#SVGID_9_);fill:none;stroke:#FFFFFF;stroke-width:2.473;stroke-miterlimit:10;}
	.st4{clip-path:url(#SVGID_9_);fill:none;stroke:#000000;stroke-width:0.824;stroke-miterlimit:10;}
	.st5{fill:none;stroke:#FFFFFF;stroke-width:2.473;stroke-miterlimit:10;}
	.st6{clip-path:url(#SVGID_11_);fill:none;stroke:#FFFFFF;stroke-width:2.473;stroke-miterlimit:10;}
	.st7{clip-path:url(#SVGID_13_);fill:none;stroke:#FFFFFF;stroke-width:2.473;stroke-miterlimit:10;}
	.st8{clip-path:url(#SVGID_15_);fill:none;stroke:#FFFFFF;stroke-width:2.473;stroke-miterlimit:10;}
	.st9{clip-path:url(#SVGID_17_);fill:none;stroke:#FFFFFF;stroke-width:2.473;stroke-miterlimit:10;}
	.st10{clip-path:url(#SVGID_19_);fill:none;stroke:#FFFFFF;stroke-width:2.473;stroke-miterlimit:10;}
	.st11{clip-path:url(#SVGID_21_);fill:none;stroke:#FFFFFF;stroke-width:2.473;stroke-miterlimit:10;}
	.st12{clip-path:url(#SVGID_23_);fill:none;stroke:#FFFFFF;stroke-width:2.473;stroke-miterlimit:10;}
	.st13{fill:#FFFFFF;}
	.st14{clip-path:url(#SVGID_25_);fill:#FFFFFF;}
	.st15{clip-path:url(#SVGID_27_);fill:none;stroke:#FFFFFF;stroke-width:2.473;stroke-miterlimit:10;}
	.st16{clip-path:url(#SVGID_29_);fill:#FFFFFF;}
	.st17{clip-path:url(#SVGID_31_);fill:none;stroke:#FFFFFF;stroke-width:2.473;stroke-miterlimit:10;}
	.st18{clip-path:url(#SVGID_33_);fill:#FFFFFF;}
	.st19{clip-path:url(#SVGID_35_);fill:none;stroke:#FFFFFF;stroke-width:2.473;stroke-miterlimit:10;}
	.st20{clip-path:url(#SVGID_37_);fill:none;stroke:#FFFFFF;stroke-width:2.473;stroke-miterlimit:10;}
	.st21{clip-path:url(#SVGID_39_);fill:none;stroke:#FFFFFF;stroke-width:2.473;stroke-miterlimit:10;}
	.st22{clip-path:url(#SVGID_41_);fill:none;stroke:#FFFFFF;stroke-width:2.473;stroke-miterlimit:10;}
	.st23{clip-path:url(#SVGID_43_);fill:none;stroke:#FFFFFF;stroke-width:2.473;stroke-miterlimit:10;}
	.st24{clip-path:url(#SVGID_45_);fill:#FFFFFF;}
	.st25{font-family:'DINNeuzeitGroteskStd-Light';}
	.st26{font-size:7.9027px;}
	.st27{font-family:'Krungthep';}
	.st28{font-size:23.708px;}
</style>
<g>
	<defs>
		<rect id="SVGID_1_" x="48.4" width="515.2" height="794.3"/>
	</defs>
	<clipPath id="SVGID_2_">
		<use xlink:href="#SVGID_1_"  style="overflow:visible;"/>
	</clipPath>
	<g class="st0">
		<g>
			<defs>
				<rect id="SVGID_3_" x="47.7" y="-0.9" width="512.4" height="791.9"/>
			</defs>
			<clipPath id="SVGID_4_">
				<use xlink:href="#SVGID_3_"  style="overflow:visible;"/>
			</clipPath>
			
				<linearGradient id="SVGID_5_" gradientUnits="userSpaceOnUse" x1="0.9443" y1="792.6938" x2="1.7346" y2="792.6938" gradientTransform="matrix(0 -1008.8754 -1008.8754 0 800033.1875 1551.7815)">
				<stop  offset="0" style="stop-color:#757679"/>
				<stop  offset="7.338065e-02" style="stop-color:#646567"/>
				<stop  offset="0.1774" style="stop-color:#4F5052"/>
				<stop  offset="0.2962" style="stop-color:#3D3C3E"/>
				<stop  offset="0.4366" style="stop-color:#212122"/>
				<stop  offset="0.6192" style="stop-color:#090909"/>
				<stop  offset="1" style="stop-color:#000000"/>
			</linearGradient>
			<rect x="47.7" y="-0.9" class="st1" width="512.4" height="791.9"/>
		</g>
		<polygon points="378.1,-0.9 267.7,109.5 93.3,283.9 93.3,283.9 93.3,796.7 563.6,796.7 563.6,56.8 506,-0.9 		"/>
		<g>
			<defs>
				<rect id="SVGID_6_" x="47.7" y="-0.9" width="515.9" height="797.6"/>
			</defs>
			<clipPath id="SVGID_7_">
				<use xlink:href="#SVGID_6_"  style="overflow:visible;"/>
			</clipPath>
			<polygon class="st2" points="790.7,283.9 442,-64.8 267.7,109.5 93.3,283.9 93.3,1490.4 790.7,1490.4 			"/>
		</g>
		<polygon points="378.1,-0.9 94.9,282.3 442,629.3 563.6,507.7 563.6,56.8 506,-0.9 		"/>
		<g>
			<defs>
				<rect id="SVGID_8_" x="47.7" y="-0.9" width="515.9" height="797.6"/>
			</defs>
			<clipPath id="SVGID_9_">
				<use xlink:href="#SVGID_8_"  style="overflow:visible;"/>
			</clipPath>
			
				<rect x="196.6" y="36.8" transform="matrix(0.7071 -0.7071 0.7071 0.7071 -70.127 395.2155)" class="st3" width="490.8" height="490.8"/>
			<rect x="44.6" y="-6.7" class="st4" width="515.9" height="844.3"/>
		</g>
		<polygon points="251.5,405.5 213.6,443.5 213.6,563.4 213.6,572.4 213.6,713 289.5,713 289.5,572.4 289.5,563.4 289.5,443.5 		"/>
		<polygon class="st5" points="251.5,405.5 213.6,443.5 213.6,563.4 213.6,572.4 213.6,713 289.5,713 289.5,572.4 289.5,563.4 
			289.5,443.5 		"/>
		<rect x="224.7" y="416.6" transform="matrix(0.7071 -0.7071 0.7071 0.7071 -239.9149 307.7535)" width="53.7" height="53.7"/>
		
			<rect x="224.7" y="416.6" transform="matrix(0.7071 -0.7071 0.7071 0.7071 -239.9149 307.7535)" class="st5" width="53.7" height="53.7"/>
		<polygon points="158.7,331.6 116.5,373.8 116.5,517.1 200.9,517.1 200.9,373.8 		"/>
		<polygon class="st5" points="158.7,331.6 116.5,373.8 116.5,517.1 200.9,517.1 200.9,373.8 		"/>
		<rect x="128.9" y="344" transform="matrix(0.7071 -0.7071 0.7071 0.7071 -217.8491 221.725)" width="59.7" height="59.7"/>
		
			<rect x="128.9" y="344" transform="matrix(0.7071 -0.7071 0.7071 0.7071 -217.8491 221.725)" class="st5" width="59.7" height="59.7"/>
		<polygon points="196.1,476.4 140.3,532.2 140.3,721.7 251.9,721.7 251.9,532.2 		"/>
		<polygon class="st5" points="196.1,476.4 140.3,532.2 140.3,721.7 251.9,721.7 251.9,532.2 		"/>
		<rect x="156.7" y="492.8" transform="matrix(0.7071 -0.7071 0.7071 0.7071 -318.8946 294.5816)" width="78.9" height="78.9"/>
		
			<rect x="156.7" y="492.8" transform="matrix(0.7071 -0.7071 0.7071 0.7071 -318.8946 294.5816)" class="st5" width="78.9" height="78.9"/>
		<polygon points="520.3,609.3 520.3,704.5 520.3,711.7 520.3,796.7 563.6,796.7 563.6,592.3 550.5,579.2 		"/>
		<g>
			<defs>
				<rect id="SVGID_10_" x="47.7" y="-0.9" width="515.9" height="797.6"/>
			</defs>
			<clipPath id="SVGID_11_">
				<use xlink:href="#SVGID_10_"  style="overflow:visible;"/>
			</clipPath>
			<polygon class="st6" points="550.5,579.2 520.3,609.3 520.3,704.5 520.3,711.7 520.3,823.4 580.6,823.4 580.6,711.7 580.6,704.5 
				580.6,609.3 			"/>
		</g>
		<polygon points="520.3,609.3 550.5,639.4 563.6,626.3 563.6,592.3 550.5,579.2 		"/>
		<g>
			<defs>
				<rect id="SVGID_12_" x="47.7" y="-0.9" width="515.9" height="797.6"/>
			</defs>
			<clipPath id="SVGID_13_">
				<use xlink:href="#SVGID_12_"  style="overflow:visible;"/>
			</clipPath>
			
				<rect x="529.1" y="588" transform="matrix(0.7071 -0.7071 0.7071 0.7071 -269.6174 567.6917)" class="st7" width="42.6" height="42.6"/>
		</g>
		<polygon points="459.2,679.5 459.2,796.7 550.8,796.7 550.8,679.5 505,633.7 		"/>
		<g>
			<defs>
				<rect id="SVGID_14_" x="47.7" y="-0.9" width="515.9" height="797.6"/>
			</defs>
			<clipPath id="SVGID_15_">
				<use xlink:href="#SVGID_14_"  style="overflow:visible;"/>
			</clipPath>
			<polygon class="st8" points="505,633.7 459.2,679.5 459.2,824.2 459.2,835.1 459.2,1004.9 550.8,1004.9 550.8,835.1 550.8,824.2 
				550.8,679.5 			"/>
		</g>
		<rect x="472.6" y="647.1" transform="matrix(0.7071 -0.7071 0.7071 0.7071 -332.568 556.0956)" width="64.8" height="64.8"/>
		
			<rect x="472.6" y="647.1" transform="matrix(0.7071 -0.7071 0.7071 0.7071 -332.568 556.0956)" class="st5" width="64.8" height="64.8"/>
		<polygon points="530.7,741.6 530.7,796.7 563.6,796.7 563.6,708.7 		"/>
		<g>
			<defs>
				<rect id="SVGID_16_" x="47.7" y="-0.9" width="515.9" height="797.6"/>
			</defs>
			<clipPath id="SVGID_17_">
				<use xlink:href="#SVGID_16_"  style="overflow:visible;"/>
			</clipPath>
			<polygon class="st9" points="599.9,672.4 530.7,741.6 530.7,960.2 530.7,976.7 530.7,1233.1 669.1,1233.1 669.1,976.7 
				669.1,960.2 669.1,741.6 			"/>
		</g>
		<polygon points="530.7,741.6 563.6,774.5 563.6,708.7 		"/>
		<g>
			<defs>
				<rect id="SVGID_18_" x="47.7" y="-0.9" width="515.9" height="797.6"/>
			</defs>
			<clipPath id="SVGID_19_">
				<use xlink:href="#SVGID_18_"  style="overflow:visible;"/>
			</clipPath>
			
				<rect x="551" y="692.7" transform="matrix(0.7071 -0.7071 0.7071 0.7071 -348.6751 641.4158)" class="st10" width="97.9" height="97.9"/>
		</g>
		<polygon points="47.7,425.4 47.7,773.9 124.4,773.9 124.4,625.4 124.4,599.8 124.4,451.3 73.1,400 		"/>
		<g>
			<defs>
				<rect id="SVGID_20_" x="47.7" y="-0.9" width="515.9" height="797.6"/>
			</defs>
			<clipPath id="SVGID_21_">
				<use xlink:href="#SVGID_20_"  style="overflow:visible;"/>
			</clipPath>
			<polygon class="st11" points="73.1,400 21.8,451.3 21.8,599.8 21.8,625.4 21.8,773.9 124.4,773.9 124.4,625.4 124.4,599.8 
				124.4,451.3 			"/>
		</g>
		<polygon points="47.7,425.4 47.7,477.1 73.1,502.6 124.4,451.3 73.1,400 		"/>
		<g>
			<defs>
				<rect id="SVGID_22_" x="47.7" y="-0.9" width="515.9" height="797.6"/>
			</defs>
			<clipPath id="SVGID_23_">
				<use xlink:href="#SVGID_22_"  style="overflow:visible;"/>
			</clipPath>
			
				<rect x="36.9" y="415" transform="matrix(0.7071 -0.7071 0.7071 0.7071 -297.6819 183.8843)" class="st12" width="72.5" height="72.5"/>
		</g>
		<polygon class="st13" points="47.7,425.7 47.7,436.5 94.2,483 105.8,471.5 53.9,419.5 		"/>
		<polygon class="st13" points="163.4,411.3 121.3,369.2 123.4,367 172.7,364.5 149.4,341.1 154.1,336.4 196.1,378.5 194,380.6 
			144.7,383.2 168.1,406.6 		"/>
		<polygon points="127.2,484.5 65.2,546.4 65.2,756.6 189.1,756.6 189.1,546.4 		"/>
		<polygon class="st5" points="127.2,484.5 65.2,546.4 65.2,756.6 189.1,756.6 189.1,546.4 		"/>
		<rect x="83.4" y="502.6" transform="matrix(0.7071 -0.7071 0.7071 0.7071 -349.0945 249.9389)" width="87.6" height="87.6"/>
		
			<rect x="83.4" y="502.6" transform="matrix(0.7071 -0.7071 0.7071 0.7071 -349.0945 249.9389)" class="st5" width="87.6" height="87.6"/>
		<g>
			<defs>
				<rect id="SVGID_24_" x="47.7" y="-50.6" width="655" height="847.3"/>
			</defs>
			<clipPath id="SVGID_25_">
				<use xlink:href="#SVGID_24_"  style="overflow:visible;"/>
			</clipPath>
			<path class="st14" d="M103,508.6l13.7-13.7l38.4,38.4c6.4,6.4,9.6,14.2,9.6,23.4c0,9.2-3.2,17.1-9.6,23.5l-17.7,17.7l-61.8-61.8
				l13.7-13.7l54.9,54.9l6.9-6.9c1.9-1.9,2.9-4.2,2.9-6.9c0-2.7-0.9-5-2.8-6.8L103,508.6z"/>
		</g>
		<polygon points="206.3,549.4 206.3,715.8 206.3,728.3 206.3,796.7 311.6,796.7 311.6,728.3 311.6,715.8 311.6,549.4 259,496.8 		
			"/>
		<g>
			<defs>
				<rect id="SVGID_26_" x="47.7" y="-0.9" width="515.9" height="797.6"/>
			</defs>
			<clipPath id="SVGID_27_">
				<use xlink:href="#SVGID_26_"  style="overflow:visible;"/>
			</clipPath>
			<polygon class="st15" points="259,496.8 206.3,549.4 206.3,715.8 206.3,728.3 206.3,923.4 311.6,923.4 311.6,728.3 311.6,715.8 
				311.6,549.4 			"/>
		</g>
		<rect x="221.7" y="512.2" transform="matrix(0.7071 -0.7071 0.7071 0.7071 -312.6631 344.0377)" width="74.5" height="74.5"/>
		
			<rect x="221.7" y="512.2" transform="matrix(0.7071 -0.7071 0.7071 0.7071 -312.6631 344.0377)" class="st5" width="74.5" height="74.5"/>
		<g>
			<defs>
				<rect id="SVGID_28_" x="47.7" y="-50.6" width="655" height="847.3"/>
			</defs>
			<clipPath id="SVGID_29_">
				<use xlink:href="#SVGID_28_"  style="overflow:visible;"/>
			</clipPath>
			<path class="st16" d="M250.3,552.4l11.7-11.7l-11.7-11.7c-1.6-1.6-3.5-2.4-5.8-2.3c-2.3,0-4.2,0.8-5.8,2.4
				c-1.6,1.6-2.4,3.5-2.4,5.8c0,2.3,0.8,4.2,2.4,5.8L250.3,552.4z M267.7,593.1L227,552.3c-3.2-3.2-4.8-7-4.8-11.6
				c0-4.6,1.6-8.4,4.8-11.6l11.7-11.7c3.2-3.2,7.1-4.8,11.6-4.8c4.6,0,8.4,1.6,11.6,4.8l40.7,40.7L291,569.8l-23.3-23.3L256,558.2
				l23.3,23.3L267.7,593.1z"/>
		</g>
		<polygon points="233.1,663.5 233.1,796.7 356.6,796.7 356.6,663.5 294.9,601.7 		"/>
		<g>
			<defs>
				<rect id="SVGID_30_" x="47.7" y="-0.9" width="515.9" height="797.6"/>
			</defs>
			<clipPath id="SVGID_31_">
				<use xlink:href="#SVGID_30_"  style="overflow:visible;"/>
			</clipPath>
			<polygon class="st17" points="294.9,601.7 233.1,663.5 233.1,858.4 233.1,873.1 233.1,1101.7 356.6,1101.7 356.6,873.1 
				356.6,858.4 356.6,663.5 			"/>
		</g>
		<rect x="251.2" y="619.8" transform="matrix(0.7071 -0.7071 0.7071 0.7071 -382.7772 402.8172)" width="87.3" height="87.3"/>
		
			<rect x="251.2" y="619.8" transform="matrix(0.7071 -0.7071 0.7071 0.7071 -382.7772 402.8172)" class="st5" width="87.3" height="87.3"/>
		<g>
			<defs>
				<rect id="SVGID_32_" x="47.7" y="-50.6" width="655" height="847.3"/>
			</defs>
			<clipPath id="SVGID_33_">
				<use xlink:href="#SVGID_32_"  style="overflow:visible;"/>
			</clipPath>
			<path class="st18" d="M271.5,653.4l33.4,33.4c1.8,1.8,4,2.7,6.6,2.7c2.6,0,4.9-0.9,6.7-2.8c1.9-1.9,2.8-4.1,2.8-6.7
				c0-2.6-0.9-4.8-2.7-6.6L284.9,640c-1.8-1.8-4-2.7-6.7-2.7c-2.6,0-4.9,0.9-6.7,2.8c-1.8,1.8-2.8,4.1-2.8,6.7
				C268.7,649.4,269.6,651.6,271.5,653.4 M258.1,640.1l13.4-13.4c3.7-3.7,8.1-5.5,13.4-5.5c5.3,0,9.7,1.8,13.3,5.5l33.4,33.4
				c3.6,3.6,5.4,8,5.4,13.3c0,5.3-1.8,9.7-5.4,13.4l-13.4,13.4c-3.7,3.7-8.1,5.5-13.3,5.5c-5.2,0-9.7-1.8-13.3-5.5l-33.4-33.4
				c-3.7-3.7-5.5-8.1-5.5-13.3C252.6,648.2,254.5,643.7,258.1,640.1"/>
		</g>
		<polygon points="326.5,753.4 326.5,796.7 419.6,796.7 419.6,753.4 373,706.9 		"/>
		<g>
			<defs>
				<rect id="SVGID_34_" x="47.7" y="-0.9" width="515.9" height="797.6"/>
			</defs>
			<clipPath id="SVGID_35_">
				<use xlink:href="#SVGID_34_"  style="overflow:visible;"/>
			</clipPath>
			<polygon class="st19" points="373,706.9 326.5,753.4 326.5,911.5 419.6,911.5 419.6,753.4 			"/>
		</g>
		<polygon points="326.5,753.4 369.8,796.7 376.3,796.7 419.6,753.4 373,706.9 		"/>
		<g>
			<defs>
				<rect id="SVGID_36_" x="47.7" y="-0.9" width="515.9" height="797.6"/>
			</defs>
			<clipPath id="SVGID_37_">
				<use xlink:href="#SVGID_36_"  style="overflow:visible;"/>
			</clipPath>
			
				<rect x="340.1" y="720.5" transform="matrix(0.7071 -0.7071 0.7071 0.7071 -423.5004 484.4473)" class="st20" width="65.8" height="65.8"/>
		</g>
		<polygon class="st13" points="378.2,794.3 332.2,748.4 334.5,746.1 388.4,743.3 362.8,717.7 368,712.6 413.9,758.6 411.6,760.9 
			357.8,763.7 383.3,789.2 		"/>
		<polygon points="139.1,719.2 139.1,796.7 253.1,796.7 253.1,719.2 196.1,662.2 		"/>
		<g>
			<defs>
				<rect id="SVGID_38_" x="47.7" y="-0.9" width="515.9" height="797.6"/>
			</defs>
			<clipPath id="SVGID_39_">
				<use xlink:href="#SVGID_38_"  style="overflow:visible;"/>
			</clipPath>
			<polygon class="st21" points="196.1,662.2 139.1,719.2 139.1,899.2 139.1,912.7 139.1,1123.9 253.1,1123.9 253.1,912.7 
				253.1,899.2 253.1,719.2 			"/>
		</g>
		<rect x="155.8" y="678.9" transform="matrix(0.7071 -0.7071 0.7071 0.7071 -451.0724 349.3316)" width="80.6" height="80.6"/>
		
			<rect x="155.8" y="678.9" transform="matrix(0.7071 -0.7071 0.7071 0.7071 -451.0724 349.3316)" class="st5" width="80.6" height="80.6"/>
		
			<rect x="187.4" y="679.8" transform="matrix(0.7071 -0.7071 0.7071 0.7071 -451.0724 349.3317)" class="st13" width="17.5" height="78.7"/>
		<polygon points="47.7,682.2 47.7,796.7 171.4,796.7 171.4,703 99.1,630.8 		"/>
		<g>
			<defs>
				<rect id="SVGID_40_" x="47.7" y="-0.9" width="515.9" height="797.6"/>
			</defs>
			<clipPath id="SVGID_41_">
				<use xlink:href="#SVGID_40_"  style="overflow:visible;"/>
			</clipPath>
			<polygon class="st22" points="99.1,630.8 26.9,703 26.9,931.2 26.9,948.4 26.9,1216 171.4,1216 171.4,948.4 171.4,931.2 
				171.4,703 			"/>
		</g>
		<polygon points="47.7,682.2 47.7,723.9 99.1,775.3 171.4,703 99.1,630.8 		"/>
		<g>
			<defs>
				<rect id="SVGID_42_" x="47.7" y="-0.9" width="515.9" height="797.6"/>
			</defs>
			<clipPath id="SVGID_43_">
				<use xlink:href="#SVGID_42_"  style="overflow:visible;"/>
			</clipPath>
			
				<rect x="48" y="651.9" transform="matrix(0.7071 -0.7071 0.7071 0.7071 -468.0813 276.0052)" class="st23" width="102.2" height="102.2"/>
		</g>
		<g>
			<defs>
				<rect id="SVGID_44_" x="47.7" y="-50.6" width="655" height="847.3"/>
			</defs>
			<clipPath id="SVGID_45_">
				<use xlink:href="#SVGID_44_"  style="overflow:visible;"/>
			</clipPath>
			<path class="st24" d="M99.1,662.9l-7.9,7.9c-6-4.6-11.2-4.8-15.6-0.4c-2.8,2.8-4.2,5.6-4.3,8.3c-0.1,2.8,1.2,5.5,3.9,8.1
				c2,2,4.6,3.1,8,3.3l35.9,2.1c6.6,0.4,11.9,2.6,15.9,6.6l4,4c4.3,4.3,6.5,9.6,6.5,15.9c0,6.3-2.1,11.6-6.5,16l-8,8
				c-5.3,5.3-10.6,7.9-15.9,7.9c-5.3,0-10.6-2.6-15.9-7.9l8-8c0.5,0.6,0.9,1.1,1.2,1.4c2.2,2.2,4.6,3,7.4,2.4
				c2.8-0.5,5.2-1.8,7.2-3.8c2.8-2.8,4.2-5.6,4.1-8.2c-0.1-2.6-1.5-5.2-4.1-7.9c-2-2-4.7-3.1-8-3.3l-35.8-2
				c-6.6-0.3-11.9-2.5-15.9-6.6l-4-4c-4.3-4.3-6.5-9.6-6.5-15.9c0-6.3,2.2-11.6,6.5-16l8-8C77.2,652.9,87.8,652.9,99.1,662.9"/>
		</g>
		<text transform="matrix(0.7071 -0.7071 0.7071 0.7071 148.9319 285.428)"><tspan x="0" y="0" class="st13 st25 st26">Siri and</tspan><tspan x="27.6" y="0" class="st13 st25 st26"> </tspan><tspan x="29.4" y="0" class="st13 st25 st26">Al</tspan><tspan x="37.1" y="0" class="st13 st25 st26">e</tspan><tspan x="42" y="0" class="st13 st25 st26">xa seemed harmless when th</tspan><tspan x="151.3" y="0" class="st13 st25 st26">e</tspan><tspan x="156.1" y="0" class="st13 st25 st26">y made </tspan></text>
		<text transform="matrix(0.7071 -0.7071 0.7071 0.7071 156.197 292.6931)"><tspan x="0" y="0" class="st13 st25 st26">their debut. Humans ha</tspan><tspan x="86.8" y="0" class="st13 st25 st26">v</tspan><tspan x="91.2" y="0" class="st13 st25 st26">e become so dependent </tspan></text>
		<text transform="matrix(0.7071 -0.7071 0.7071 0.7071 163.4611 299.9565)"><tspan x="0" y="0" class="st13 st25 st26">on technolo</tspan><tspan x="45.2" y="0" class="st13 st25 st26">g</tspan><tspan x="50.5" y="0" class="st13 st25 st26">y doing a majority of their </tspan><tspan x="149.4" y="0" class="st13 st25 st26">r</tspan><tspan x="152" y="0" class="st13 st25 st26">outine </tspan></text>
		<text transform="matrix(0.7071 -0.7071 0.7071 0.7071 170.7265 307.2227)"><tspan x="0" y="0" class="st13 st25 st26">tasks</tspan><tspan x="18.3" y="0" class="st13 st25 st26">,</tspan><tspan x="20.1" y="0" class="st13 st25 st26"> but mankind is in for a rude a</tspan><tspan x="130.2" y="0" class="st13 st25 st26">w</tspan><tspan x="136.9" y="0" class="st13 st25 st26">a</tspan><tspan x="141.4" y="0" class="st13 st25 st26">k</tspan><tspan x="145.4" y="0" class="st13 st25 st26">enin</tspan><tspan x="161.4" y="0" class="st13 st25 st26">g</tspan><tspan x="166.4" y="0" class="st13 st25 st26">. </tspan></text>
		<text transform="matrix(0.7071 -0.7071 0.7071 0.7071 177.9906 314.4861)"><tspan x="0" y="0" class="st13 st25 st26">Al</tspan><tspan x="7.7" y="0" class="st13 st25 st26">e</tspan><tspan x="12.6" y="0" class="st13 st25 st26">xa</tspan><tspan x="21.7" y="0" class="st13 st25 st26">,</tspan><tspan x="23.4" y="0" class="st13 st25 st26"> Siri</tspan><tspan x="36.6" y="0" class="st13 st25 st26">,</tspan><tspan x="38.4" y="0" class="st13 st25 st26"> and countless other d</tspan><tspan x="121.6" y="0" class="st13 st25 st26">e</tspan><tspan x="126.4" y="0" class="st13 st25 st26">vices ha</tspan><tspan x="156.7" y="0" class="st13 st25 st26">v</tspan><tspan x="161.2" y="0" class="st13 st25 st26">e </tspan></text>
		<text transform="matrix(0.7071 -0.7071 0.7071 0.7071 185.254 321.7501)"><tspan x="0" y="0" class="st13 st25 st26">n</tspan><tspan x="4.5" y="0" class="st13 st25 st26">o</tspan><tspan x="9.8" y="0" class="st13 st25 st26">w encrypted </tspan><tspan x="59.7" y="0" class="st13 st25 st26">r</tspan><tspan x="62.4" y="0" class="st13 st25 st26">obots with uniqu</tspan><tspan x="125.1" y="0" class="st13 st25 st26">e</tspan><tspan x="129.7" y="0" class="st13 st25 st26">,</tspan><tspan x="131.4" y="0" class="st13 st25 st26"> top sec</tspan><tspan x="161.4" y="0" class="st13 st25 st26">r</tspan><tspan x="164.1" y="0" class="st13 st25 st26">et </tspan></text>
		<text transform="matrix(0.7071 -0.7071 0.7071 0.7071 192.5198 329.0159)"><tspan x="0" y="0" class="st13 st25 st26">intelli</tspan><tspan x="19.4" y="0" class="st13 st25 st26">g</tspan><tspan x="24.8" y="0" class="st13 st25 st26">ence that is lethal for the </tspan><tspan x="117.6" y="0" class="st13 st25 st26">w</tspan><tspan x="124.1" y="0" class="st13 st25 st26">orld as </tspan><tspan x="151.9" y="0" class="st13 st25 st26">w</tspan><tspan x="158.5" y="0" class="st13 st25 st26">e kn</tspan><tspan x="174.2" y="0" class="st13 st25 st26">o</tspan><tspan x="179.5" y="0" class="st13 st25 st26">w </tspan></text>
		<text transform="matrix(0.7071 -0.7071 0.7071 0.7071 199.7835 336.2796)"><tspan x="0" y="0" class="st13 st25 st26">it. Our fear of technolo</tspan><tspan x="84.6" y="0" class="st13 st25 st26">g</tspan><tspan x="89.9" y="0" class="st13 st25 st26">y outsmarting mankind </tspan></text>
		<text transform="matrix(0.7071 -0.7071 0.7071 0.7071 207.0473 343.5434)"><tspan x="0" y="0" class="st13 st25 st26">has arri</tspan><tspan x="26.8" y="0" class="st13 st25 st26">v</tspan><tspan x="31.2" y="0" class="st13 st25 st26">e</tspan><tspan x="36.2" y="0" class="st13 st25 st26">d</tspan><tspan x="41.3" y="0" class="st13 st25 st26">.</tspan><tspan x="43.4" y="0" class="st13 st25 st26"> </tspan><tspan x="45.2" y="0" class="st13 st25 st26">T</tspan><tspan x="49.2" y="0" class="st13 st25 st26">he </tspan><tspan x="60.7" y="0" class="st13 st25 st26">y</tspan><tspan x="65.1" y="0" class="st13 st25 st26">ear is 2050 and </tspan><tspan x="122.1" y="0" class="st13 st25 st26">r</tspan><tspan x="124.8" y="0" class="st13 st25 st26">obots a</tspan><tspan x="153.6" y="0" class="st13 st25 st26">r</tspan><tspan x="156.2" y="0" class="st13 st25 st26">e about </tspan></text>
		<text transform="matrix(0.7071 -0.7071 0.7071 0.7071 214.3124 350.8085)"><tspan x="0" y="0" class="st13 st25 st26">to ta</tspan><tspan x="16.7" y="0" class="st13 st25 st26">k</tspan><tspan x="20.7" y="0" class="st13 st25 st26">e cha</tspan><tspan x="40.9" y="0" class="st13 st25 st26">r</tspan><tspan x="43.6" y="0" class="st13 st25 st26">g</tspan><tspan x="48.9" y="0" class="st13 st25 st26">e once and for all.</tspan></text>
		<text transform="matrix(0.7071 -0.7071 0.7071 0.7071 224.93 361.4261)"><tspan x="0" y="0" class="st13 st25 st26">What started o</tspan><tspan x="55" y="0" class="st13 st25 st26">f</tspan><tspan x="57.2" y="0" class="st13 st25 st26">f as</tspan><tspan x="69.8" y="0" class="st13 st25 st26"> </tspan><tspan x="71.6" y="0" class="st13 st25 st26">“inn</tspan><tspan x="86.6" y="0" class="st13 st25 st26">ov</tspan><tspan x="96.3" y="0" class="st13 st25 st26">ati</tspan><tspan x="105.1" y="0" class="st13 st25 st26">v</tspan><tspan x="109.5" y="0" class="st13 st25 st26">e</tspan><tspan x="114.5" y="0" class="st13 st25 st26">”</tspan><tspan x="118.3" y="0" class="st13 st25 st26"> is n</tspan><tspan x="132.5" y="0" class="st13 st25 st26">o</tspan><tspan x="137.8" y="0" class="st13 st25 st26">w </tspan></text>
		<text transform="matrix(0.7071 -0.7071 0.7071 0.7071 232.1944 368.6906)"><tspan x="0" y="0" class="st13 st25 st26">th</tspan><tspan x="6.9" y="0" class="st13 st25 st26">r</tspan><tspan x="9.5" y="0" class="st13 st25 st26">eatening mankin</tspan><tspan x="71.5" y="0" class="st13 st25 st26">d</tspan><tspan x="76.8" y="0" class="st13 st25 st26">,</tspan><tspan x="78.6" y="0" class="st13 st25 st26"> for </tspan><tspan x="93.2" y="0" class="st13 st25 st26">w</tspan><tspan x="99.8" y="0" class="st13 st25 st26">e a</tspan><tspan x="111.4" y="0" class="st13 st25 st26">r</tspan><tspan x="114" y="0" class="st13 st25 st26">e incapable of </tspan></text>
		<text transform="matrix(0.7071 -0.7071 0.7071 0.7071 239.4595 375.9557)"><tspan x="0" y="0" class="st13 st25 st26">surpassing technological thinkin</tspan><tspan x="119.1" y="0" class="st13 st25 st26">g</tspan><tspan x="124.1" y="0" class="st13 st25 st26">.</tspan><tspan x="126.1" y="0" class="st13 st25 st26"> </tspan><tspan x="127.9" y="0" class="st13 st25 st26">T</tspan><tspan x="131.9" y="0" class="st13 st25 st26">he epidemic </tspan></text>
		<text transform="matrix(0.7071 -0.7071 0.7071 0.7071 246.7236 383.2204)"><tspan x="0" y="0" class="st13 st25 st26">started o</tspan><tspan x="33.5" y="0" class="st13 st25 st26">f</tspan><tspan x="35.7" y="0" class="st13 st25 st26">f in the outskirts of Queens</tspan><tspan x="134.9" y="0" class="st13 st25 st26">,</tspan><tspan x="136.7" y="0" class="st13 st25 st26"> the bo</tspan><tspan x="163.4" y="0" class="st13 st25 st26">r</tspan><tspan x="166.1" y="0" class="st13 st25 st26">ough </tspan></text>
		<text transform="matrix(0.7071 -0.7071 0.7071 0.7071 253.9884 390.4845)"><tspan x="0" y="0" class="st13 st25 st26">that </tspan><tspan x="15.8" y="0" class="st13 st25 st26">r</tspan><tspan x="18.5" y="0" class="st13 st25 st26">ecei</tspan><tspan x="34.4" y="0" class="st13 st25 st26">v</tspan><tspan x="38.9" y="0" class="st13 st25 st26">es as much l</tspan><tspan x="84.1" y="0" class="st13 st25 st26">o</tspan><tspan x="89.4" y="0" class="st13 st25 st26">v</tspan><tspan x="93.8" y="0" class="st13 st25 st26">e as Staten Islan</tspan><tspan x="152.9" y="0" class="st13 st25 st26">d</tspan><tspan x="158.1" y="0" class="st13 st25 st26">.</tspan><tspan x="160.1" y="0" class="st13 st25 st26"> </tspan><tspan x="161.9" y="0" class="st13 st25 st26">A man </tspan></text>
		<text transform="matrix(0.7071 -0.7071 0.7071 0.7071 261.2521 397.7482)"><tspan x="0" y="0" class="st13 st25 st26">w</tspan><tspan x="6.7" y="0" class="st13 st25 st26">as asking</tspan><tspan x="41" y="0" class="st13 st25 st26"> </tspan><tspan x="42.8" y="0" class="st13 st25 st26">Al</tspan><tspan x="50.6" y="0" class="st13 st25 st26">e</tspan><tspan x="55.4" y="0" class="st13 st25 st26">xa to play a son</tspan><tspan x="114.9" y="0" class="st13 st25 st26">g</tspan><tspan x="120" y="0" class="st13 st25 st26">,</tspan><tspan x="121.7" y="0" class="st13 st25 st26"> when</tspan><tspan x="144.6" y="0" class="st13 st25 st26"> </tspan><tspan x="146.3" y="0" class="st13 st25 st26">Al</tspan><tspan x="154.1" y="0" class="st13 st25 st26">e</tspan><tspan x="158.9" y="0" class="st13 st25 st26">xa </tspan></text>
		<text transform="matrix(0.7071 -0.7071 0.7071 0.7071 268.5175 405.013)"><tspan x="0" y="0" class="st13 st25 st26">short-ci</tspan><tspan x="27.1" y="0" class="st13 st25 st26">r</tspan><tspan x="29.7" y="0" class="st13 st25 st26">cuite</tspan><tspan x="47.5" y="0" class="st13 st25 st26">d</tspan><tspan x="52.7" y="0" class="st13 st25 st26">.</tspan><tspan x="54.7" y="0" class="st13 st25 st26"> </tspan><tspan x="56.5" y="0" class="st13 st25 st26">T</tspan><tspan x="60.5" y="0" class="st13 st25 st26">he man </tspan><tspan x="90.4" y="0" class="st13 st25 st26">w</tspan><tspan x="97" y="0" class="st13 st25 st26">or</tspan><tspan x="105.1" y="0" class="st13 st25 st26">k</tspan><tspan x="109.2" y="0" class="st13 st25 st26">ed in engineering </tspan></text>
		<path class="st13" d="M276.2,408c-0.5-0.5-1.1-0.1-1.5,0.3c-0.3,0.3-0.5,0.6-0.6,1l-0.6-0.2c0.3-0.6,0.6-1,0.8-1.3
			c0.7-0.7,1.6-1,2.3-0.4l2,2l-0.5,0.5l-0.3-0.3c0,0.5-0.2,0.9-0.5,1.3c-0.7,0.7-1.7,0.9-2.3,0.2c-0.5-0.5-0.5-1.5,0.3-2.3
			c0.3-0.3,0.7-0.5,1.2-0.6L276.2,408z M275.8,409.2c-0.6,0.6-0.5,1.1-0.2,1.4c0.3,0.3,0.8,0.4,1.4-0.2c0.6-0.6,0.5-1.1,0.2-1.4
			C276.9,408.7,276.4,408.6,275.8,409.2z M279.6,405.1c-0.4-0.4-1-0.6-1.5-0.1c-0.5,0.5-0.4,1.1,0.1,1.6l1.6,1.6l-0.5,0.5l-2.9-2.9
			l0.5-0.5l0.3,0.3l0,0c-0.1-0.4,0.1-0.9,0.4-1.2c0.6-0.6,1.4-0.8,2.2,0l1.9,1.9l-0.5,0.5L279.6,405.1z M280.9,398.7l0.5-0.5
			l4.2,4.2l-0.5,0.5l-0.4-0.4l0,0c0.1,0.5-0.1,1.1-0.6,1.6c-0.8,0.8-2.2,0.9-3.1,0c-0.8-0.8-0.8-2.2,0-3c0.4-0.4,1-0.7,1.6-0.6l0,0
			L280.9,398.7z M281.6,401.5c-0.7,0.7-0.5,1.6,0,2.1c0.7,0.7,1.6,0.6,2.1,0c0.6-0.6,0.6-1.5,0-2.1
			C283.1,400.9,282.1,400.9,281.6,401.5z M284.4,396.5l0.5-0.5l0.7,0.7l0.5-0.5l0.4,0.4l-0.5,0.5l1.8,1.8c0.2,0.2,0.3,0.2,0.5,0
			l0.2-0.2l0.5,0.5c-0.1,0.1-0.2,0.2-0.3,0.3c-0.5,0.5-0.8,0.5-1.3,0l-1.8-1.8l-0.4,0.4l-0.4-0.4l0.4-0.4L284.4,396.5z M289.8,394.9
			c-0.4-0.4-1-0.6-1.5-0.1c-0.5,0.5-0.4,1.1,0.1,1.6l1.6,1.6l-0.5,0.5l-4.2-4.2l0.5-0.5l1.7,1.7l0,0c-0.1-0.4,0.1-0.9,0.4-1.2
			c0.6-0.6,1.4-0.8,2.2,0l1.9,1.9l-0.5,0.5L289.8,394.9z M291.3,390.8c0.9-0.9,2.3-0.9,3.1-0.1c0.8,0.8,0.9,2.1-0.1,3.1
			s-2.3,0.9-3.1,0.1C290.4,393.1,290.4,391.8,291.3,390.8z M291.8,393.4c0.6,0.6,1.5,0.6,2.1,0c0.6-0.6,0.5-1.5,0-2.1
			c-0.6-0.6-1.5-0.6-2.1,0C291.2,391.9,291.2,392.8,291.8,393.4z M298.1,389.2L298.1,389.2c0.1,0.4-0.1,0.9-0.4,1.2
			c-0.6,0.6-1.4,0.8-2.2,0l-1.9-1.9l0.5-0.5l1.7,1.7c0.4,0.4,1,0.6,1.5,0.1c0.5-0.5,0.4-1.1-0.1-1.6l-1.6-1.6l0.5-0.5l2.9,2.9
			l-0.5,0.5L298.1,389.2z M299.3,382.9l0.5-0.5l2.5,2.5c1.1,1.1,1.1,2.1,0,3.3c-0.5,0.5-1.2,0.8-2,0.7l0.1-0.7
			c0.7,0.1,1.2-0.2,1.5-0.5c0.8-0.8,0.7-1.5,0.1-2.2l-0.2-0.2l0,0c0.1,0.6-0.1,1-0.6,1.6c-1,1-2.3,0.7-3,0c-0.8-0.8-0.8-2.2,0-3
			c0.4-0.4,1-0.7,1.6-0.6l0,0L299.3,382.9z M298.7,384.4c-0.7,0.7-0.5,1.6,0,2.1c0.7,0.7,1.6,0.5,2.1,0c0.6-0.6,0.6-1.5,0-2.1
			C300.2,383.8,299.2,383.8,298.7,384.4z M303.8,380.9c-0.4-0.4-1-0.6-1.5-0.1c-0.5,0.5-0.4,1.1,0.1,1.6l1.6,1.6l-0.5,0.5l-4.2-4.2
			l0.5-0.5l1.7,1.7l0,0c-0.1-0.4,0.1-0.9,0.4-1.2c0.6-0.6,1.4-0.8,2.2,0l1.9,1.9l-0.5,0.5L303.8,380.9z M303.3,377.5l0.5-0.5
			l0.7,0.7l0.5-0.5l0.4,0.4l-0.5,0.5l1.8,1.8c0.2,0.2,0.3,0.2,0.5,0l0.2-0.2l0.5,0.5c-0.1,0.1-0.2,0.2-0.3,0.3
			c-0.5,0.5-0.8,0.5-1.3,0l-1.8-1.8l-0.4,0.4l-0.4-0.4l0.4-0.4L303.3,377.5z M310.1,374.6c-0.4-0.4-1-0.6-1.5-0.1
			c-0.5,0.5-0.4,1.1,0.1,1.6l1.6,1.6l-0.5,0.5l-4.2-4.2l0.5-0.5l1.7,1.7l0,0c-0.1-0.4,0.1-0.9,0.4-1.2c0.6-0.6,1.4-0.8,2.2,0
			l1.9,1.9l-0.5,0.5L310.1,374.6z M315.3,371.6c0,0.8-0.2,1.4-0.7,1.9c-1,1-2.3,0.8-3.1,0.1c-0.8-0.8-0.9-2.1,0-3
			c0.9-0.9,2.2-0.8,3.2,0.2l-2.5,2.5c0.6,0.4,1.3,0.4,1.9-0.2c0.4-0.4,0.5-0.8,0.5-1.4L315.3,371.6z M313.7,371
			c-0.5-0.4-1.3-0.4-1.8,0.1c-0.6,0.6-0.5,1.3-0.1,1.8L313.7,371z M317.9,365.7c-0.4,0-0.7,0.1-1,0.4c-0.5,0.5-0.6,1.3,0.1,2
			c0.6,0.6,1.5,0.6,2,0c0.2-0.2,0.3-0.6,0.4-0.9l0.7,0.1c0,0.5-0.2,1-0.6,1.4c-0.9,0.9-2.2,0.8-3,0c-0.8-0.8-0.9-2.2,0-3
			c0.4-0.4,1-0.6,1.4-0.7L317.9,365.7z M319.5,362.6c0.9-0.9,2.3-0.9,3.1-0.1c0.8,0.8,0.9,2.1-0.1,3.1c-0.9,0.9-2.3,0.9-3.1,0.1
			C318.6,364.9,318.6,363.5,319.5,362.6z M320,365.2c0.6,0.6,1.5,0.6,2.1,0c0.6-0.6,0.5-1.5,0-2.1c-0.6-0.6-1.5-0.6-2.1,0
			C319.4,363.6,319.4,364.6,320,365.2z M326.4,361L326.4,361c0.1,0.4-0.1,0.9-0.4,1.2c-0.6,0.6-1.4,0.8-2.2,0l-1.9-1.9l0.5-0.5
			l1.7,1.7c0.4,0.4,1,0.6,1.5,0.1c0.5-0.5,0.4-1.1-0.1-1.6l-1.6-1.6l0.5-0.5l2.9,2.9l-0.5,0.5L326.4,361z M324.2,355.4l3.3,3.3
			c0.3,0.3,0.6,0.3,0.8,0.1l0.2-0.2l0.5,0.5l-0.2,0.2c-0.5,0.5-1,0.5-1.6-0.1l-3.4-3.4L324.2,355.4z M327.6,352l0.5-0.5l4.2,4.2
			l-0.5,0.5l-0.4-0.4l0,0c0.1,0.5-0.1,1.1-0.6,1.6c-0.8,0.8-2.2,0.9-3.1,0c-0.8-0.8-0.8-2.2,0-3c0.4-0.4,1-0.7,1.6-0.6l0,0
			L327.6,352z M328.3,354.7c-0.7,0.7-0.5,1.6,0,2.1c0.7,0.7,1.6,0.6,2.1,0c0.6-0.6,0.6-1.5,0-2.1
			C329.8,354.2,328.9,354.2,328.3,354.7z M331.4,349.9c-0.6-0.6-0.5-1.3,0.1-1.9l0.5,0.5l-0.1,0.1c-0.3,0.3-0.2,0.6,0.1,0.9l0.4,0.4
			l0.5-0.5l0.4,0.4l-0.5,0.5l2.5,2.5l-0.5,0.5l-2.5-2.5l-0.4,0.4l-0.4-0.4l0.4-0.4L331.4,349.9z M332.3,347.4c0.2-0.2,0.5-0.2,0.7,0
			c0.2,0.2,0.2,0.5,0,0.7c-0.2,0.2-0.5,0.2-0.7,0C332.1,347.9,332.1,347.6,332.3,347.4z M333.3,348.9l0.5-0.5l2.9,2.9l-0.5,0.5
			L333.3,348.9z M336.6,345.6l0.6-0.6l0.3,2.6l2.7,0.3l-0.7,0.7l-1.9-0.3l0.2,1.9l-0.6,0.6l-0.3-2.7l-2.6-0.3l0.7-0.7l1.8,0.3
			L336.6,345.6z M338.7,342.2l0.5-0.5l0.7,0.7l0.5-0.5l0.4,0.4l-0.5,0.5l1.8,1.8c0.2,0.2,0.3,0.2,0.5,0l0.2-0.2l0.5,0.5
			c-0.1,0.1-0.2,0.2-0.3,0.3c-0.5,0.5-0.8,0.5-1.3,0l-1.8-1.8l-0.4,0.4l-0.4-0.4l0.4-0.4L338.7,342.2z M344.1,340.6
			c-0.4-0.4-1-0.6-1.5-0.1c-0.5,0.5-0.4,1.1,0.1,1.6l1.6,1.6l-0.5,0.5l-4.2-4.2l0.5-0.5l1.7,1.7l0,0c-0.1-0.4,0.1-0.9,0.4-1.2
			c0.6-0.6,1.4-0.8,2.2,0l1.9,1.9l-0.5,0.5L344.1,340.6z M349.2,337.7c0,0.8-0.2,1.4-0.7,1.9c-1,1-2.3,0.8-3.1,0.1
			c-0.8-0.8-0.9-2.1,0-3c0.9-0.9,2.2-0.8,3.2,0.2l-2.5,2.5c0.6,0.4,1.3,0.4,1.9-0.2c0.4-0.4,0.5-0.8,0.5-1.4L349.2,337.7z
			 M347.7,337c-0.5-0.4-1.3-0.4-1.8,0.1c-0.6,0.6-0.5,1.3-0.1,1.8L347.7,337z M348.1,331.6c0.2-0.2,0.5-0.2,0.7,0s0.2,0.5,0,0.7
			c-0.2,0.2-0.5,0.2-0.7,0C347.9,332.1,347.9,331.8,348.1,331.6z M349.1,333.1l0.5-0.5l2.9,2.9L352,336L349.1,333.1z M352.8,333.6
			c0.3,0.3,0.8,0.2,1.1-0.1c0.5-0.5,0.3-0.8,0.2-1c-0.2-0.2-0.4-0.2-0.9,0.1l-0.6,0.4c-0.5,0.3-1,0.2-1.3-0.2
			c-0.5-0.5-0.5-1.2,0.2-1.9c0.7-0.7,1.5-0.5,1.9-0.1l-0.5,0.5c-0.4-0.3-0.7-0.3-1,0.1c-0.3,0.3-0.3,0.7-0.1,0.9
			c0.2,0.2,0.4,0.2,0.7,0l0.9-0.5c0.6-0.3,1-0.2,1.4,0.2c0.6,0.6,0.4,1.4-0.2,2c-0.7,0.7-1.4,0.7-2,0.2L352.8,333.6z M355.4,331
			c0.3,0.3,0.8,0.2,1.1-0.1c0.5-0.5,0.3-0.8,0.2-1c-0.2-0.2-0.4-0.2-0.9,0.1l-0.6,0.4c-0.5,0.3-1,0.2-1.3-0.2
			c-0.5-0.5-0.5-1.2,0.2-1.9c0.7-0.7,1.5-0.5,1.9-0.1l-0.5,0.5c-0.4-0.3-0.7-0.3-1,0.1c-0.3,0.3-0.3,0.7-0.1,0.9
			c0.2,0.2,0.4,0.2,0.7,0l0.9-0.5c0.6-0.3,1-0.2,1.4,0.2c0.6,0.6,0.4,1.4-0.2,2c-0.7,0.7-1.4,0.7-2,0.2L355.4,331z M360.1,327.3
			L360.1,327.3c0.1,0.4-0.1,0.9-0.4,1.2c-0.6,0.6-1.4,0.8-2.2,0l-1.9-1.9l0.5-0.5l1.7,1.7c0.4,0.4,1,0.6,1.5,0.1
			c0.5-0.5,0.4-1.1-0.1-1.6l-1.6-1.6l0.5-0.5l2.9,2.9l-0.5,0.5L360.1,327.3z M363.9,323c0,0.8-0.2,1.4-0.7,1.9c-1,1-2.3,0.8-3.1,0.1
			c-0.8-0.8-0.9-2.1,0-3c0.9-0.9,2.2-0.8,3.2,0.2l-2.5,2.5c0.6,0.4,1.3,0.4,1.9-0.2c0.4-0.4,0.5-0.8,0.5-1.4L363.9,323z
			 M362.4,322.3c-0.5-0.4-1.3-0.4-1.8,0.1c-0.6,0.6-0.5,1.3-0.1,1.8L362.4,322.3z M367.5,314.7l0.5-0.5l1.8,4l-0.4,0.4l-3.1-1.5l0,0
			l1.5,3.1l-0.4,0.4l-4-1.8l0.5-0.5l2.8,1.4l0,0l-1.4-2.8l0.5-0.5l2.8,1.4l0,0L367.5,314.7z M367.6,312.1c0.2-0.2,0.5-0.2,0.7,0
			c0.2,0.2,0.2,0.5,0,0.7c-0.2,0.2-0.5,0.2-0.7,0C367.4,312.6,367.4,312.3,367.6,312.1z M368.6,313.7l0.5-0.5l2.9,2.9l-0.5,0.5
			L368.6,313.7z M369.3,311.5l0.5-0.5l0.7,0.7l0.5-0.5l0.4,0.4l-0.5,0.5l1.8,1.8c0.2,0.2,0.3,0.2,0.5,0l0.2-0.2l0.5,0.5
			c-0.1,0.1-0.2,0.2-0.3,0.3c-0.5,0.5-0.8,0.5-1.3,0l-1.8-1.8l-0.4,0.4l-0.4-0.4l0.4-0.4L369.3,311.5z M374.7,310
			c-0.4-0.4-1-0.6-1.5-0.1c-0.5,0.5-0.4,1.1,0.1,1.6l1.6,1.6l-0.5,0.5l-4.2-4.2l0.5-0.5l1.7,1.7l0,0c-0.1-0.4,0.1-0.9,0.4-1.2
			c0.6-0.6,1.4-0.8,2.2,0l1.9,1.9l-0.5,0.5L374.7,310z M375.3,304.2l3.3,3.3c0.3,0.3,0.6,0.3,0.8,0.1l0.2-0.2l0.5,0.5l-0.2,0.2
			c-0.5,0.5-1,0.5-1.6-0.1l-3.4-3.4L375.3,304.2z M376.6,303.1c0.2-0.2,0.5-0.2,0.7,0c0.2,0.2,0.2,0.5,0,0.7c-0.2,0.2-0.5,0.2-0.7,0
			C376.4,303.6,376.4,303.3,376.6,303.1z M377.6,304.7l0.5-0.5l2.9,2.9l-0.5,0.5L377.6,304.7z M378.3,302.5l0.5-0.5l0.7,0.7l0.5-0.5
			l0.4,0.4l-0.5,0.5l1.8,1.8c0.2,0.2,0.3,0.2,0.5,0l0.2-0.2l0.5,0.5c-0.1,0.1-0.2,0.2-0.3,0.3c-0.5,0.5-0.8,0.5-1.3,0l-1.8-1.8
			l-0.4,0.4l-0.4-0.4l0.4-0.4L378.3,302.5z M380,300.9l0.5-0.5l0.7,0.7l0.5-0.5l0.4,0.4l-0.5,0.5l1.8,1.8c0.2,0.2,0.3,0.2,0.5,0
			l0.2-0.2l0.5,0.5c-0.1,0.1-0.2,0.2-0.3,0.3c-0.5,0.5-0.8,0.5-1.3,0l-1.8-1.8l-0.4,0.4l-0.4-0.4l0.4-0.4L380,300.9z M381.3,298.2
			l3.3,3.3c0.3,0.3,0.6,0.3,0.8,0.1l0.2-0.2l0.5,0.5l-0.2,0.2c-0.5,0.5-1,0.5-1.6-0.1l-3.4-3.4L381.3,298.2z M388.7,298.3
			c0,0.8-0.2,1.4-0.7,1.9c-1,1-2.3,0.8-3.1,0.1c-0.8-0.8-0.9-2.1,0-3c0.9-0.9,2.2-0.8,3.2,0.2l-2.5,2.5c0.6,0.4,1.3,0.4,1.9-0.2
			c0.4-0.4,0.5-0.8,0.5-1.4L388.7,298.3z M387.1,297.6c-0.5-0.4-1.3-0.4-1.8,0.1c-0.6,0.6-0.5,1.3-0.1,1.8L387.1,297.6z
			 M387.9,292.9l0.5-0.5l0.7,0.7l0.5-0.5l0.4,0.4l-0.5,0.5l1.8,1.8c0.2,0.2,0.3,0.2,0.5,0l0.2-0.2l0.5,0.5c-0.1,0.1-0.2,0.2-0.3,0.3
			c-0.5,0.5-0.8,0.5-1.3,0l-1.8-1.8l-0.4,0.4l-0.4-0.4l0.4-0.4L387.9,292.9z M391.6,290.5c0.9-0.9,2.3-0.9,3.1-0.1
			c0.8,0.8,0.9,2.1-0.1,3.1c-0.9,0.9-2.3,0.9-3.1,0.1C390.8,292.8,390.7,291.4,391.6,290.5z M392.1,293c0.6,0.6,1.5,0.6,2.1,0
			c0.6-0.6,0.5-1.5,0-2.1c-0.6-0.6-1.5-0.6-2.1,0C391.5,291.5,391.5,292.4,392.1,293z M398.6,286.1c-0.4-0.4-1-0.6-1.5-0.1
			c-0.5,0.5-0.4,1.1,0.1,1.6l1.6,1.6l-0.5,0.5l-2.9-2.9l0.5-0.5l0.3,0.3l0,0c-0.1-0.4,0.1-0.9,0.4-1.2c0.6-0.6,1.4-0.8,2.2,0
			l1.9,1.9l-0.5,0.5L398.6,286.1z M400.1,282c0.9-0.9,2.3-0.9,3.1-0.1c0.8,0.8,0.9,2.1-0.1,3.1c-0.9,0.9-2.3,0.9-3.1,0.1
			C399.2,284.3,399.2,282.9,400.1,282z M400.6,284.6c0.6,0.6,1.5,0.6,2.1,0c0.6-0.6,0.5-1.5,0-2.1c-0.6-0.6-1.5-0.6-2.1,0
			C400,283,400,284,400.6,284.6z"/>
		<text transform="matrix(0.7071 -0.7071 0.7071 0.7071 283.0453 419.5428)"><tspan x="0" y="0" class="st13 st25 st26">p</tspan><tspan x="5.4" y="0" class="st13 st25 st26">r</tspan><tspan x="8.1" y="0" class="st13 st25 st26">oblem</tspan><tspan x="32.9" y="0" class="st13 st25 st26">,</tspan><tspan x="34.7" y="0" class="st13 st25 st26"> but he </tspan><tspan x="62.6" y="0" class="st13 st25 st26">w</tspan><tspan x="69.3" y="0" class="st13 st25 st26">as w</tspan><tspan x="86.3" y="0" class="st13 st25 st26">r</tspan><tspan x="88.9" y="0" class="st13 st25 st26">on</tspan><tspan x="98.8" y="0" class="st13 st25 st26">g</tspan><tspan x="103.9" y="0" class="st13 st25 st26">. </tspan></text>
		<text transform="matrix(0.7071 -0.7071 0.7071 0.7071 359.3773 343.2109)" class="st13 st25 st26"> </text>
		<text transform="matrix(0.7071 -0.7071 0.7071 0.7071 290.3111 426.8087)"><tspan x="0" y="0" class="st13 st25 st26">She </tspan><tspan x="16.1" y="0" class="st13 st25 st26">w</tspan><tspan x="22.7" y="0" class="st13 st25 st26">ent haywi</tspan><tspan x="58.9" y="0" class="st13 st25 st26">r</tspan><tspan x="61.5" y="0" class="st13 st25 st26">e and the </tspan><tspan x="99" y="0" class="st13 st25 st26">r</tspan><tspan x="101.6" y="0" class="st13 st25 st26">est is unclea</tspan><tspan x="146.8" y="0" class="st13 st25 st26">r</tspan><tspan x="148.9" y="0" class="st13 st25 st26">,</tspan><tspan x="150.6" y="0" class="st13 st25 st26"> for he </tspan></text>
		<text transform="matrix(0.7071 -0.7071 0.7071 0.7071 297.5745 434.0714)"><tspan x="0" y="0" class="st13 st25 st26">li</tspan><tspan x="3.8" y="0" class="st13 st25 st26">v</tspan><tspan x="8.3" y="0" class="st13 st25 st26">ed alone and the</tspan><tspan x="72.5" y="0" class="st13 st25 st26">r</tspan><tspan x="75.1" y="0" class="st13 st25 st26">e </tspan><tspan x="82.2" y="0" class="st13 st25 st26">w</tspan><tspan x="88.8" y="0" class="st13 st25 st26">e</tspan><tspan x="93.7" y="0" class="st13 st25 st26">r</tspan><tspan x="96.4" y="0" class="st13 st25 st26">e no witnesses. His </tspan></text>
		<text transform="matrix(0.7071 -0.7071 0.7071 0.7071 304.8383 441.3351)"><tspan x="0" y="0" class="st13 st25 st26">body </tspan><tspan x="22.8" y="0" class="st13 st25 st26">w</tspan><tspan x="29.5" y="0" class="st13 st25 st26">as foun</tspan><tspan x="56.5" y="0" class="st13 st25 st26">d</tspan><tspan x="61.8" y="0" class="st13 st25 st26">,</tspan><tspan x="63.6" y="0" class="st13 st25 st26"> but upon t</tspan><tspan x="104.2" y="0" class="st13 st25 st26">r</tspan><tspan x="106.9" y="0" class="st13 st25 st26">ansportation to the </tspan></text>
		<text transform="matrix(0.7071 -0.7071 0.7071 0.7071 312.1034 448.6002)"><tspan x="0" y="0" class="st13 st25 st26">mo</tspan><tspan x="12.6" y="0" class="st13 st25 st26">r</tspan><tspan x="15.2" y="0" class="st13 st25 st26">gu</tspan><tspan x="25.2" y="0" class="st13 st25 st26">e</tspan><tspan x="29.7" y="0" class="st13 st25 st26">,</tspan><tspan x="31.5" y="0" class="st13 st25 st26"> his skin </tspan><tspan x="62" y="0" class="st13 st25 st26">r</tspan><tspan x="64.6" y="0" class="st13 st25 st26">esembled mo</tspan><tspan x="117.7" y="0" class="st13 st25 st26">r</tspan><tspan x="120.3" y="0" class="st13 st25 st26">e i</tspan><tspan x="129.2" y="0" class="st13 st25 st26">r</tspan><tspan x="131.9" y="0" class="st13 st25 st26">on and steel </tspan></text>
		<path class="st13" d="M316.3,451.7l0.5-0.5l0.7,0.7l0.5-0.5l0.4,0.4l-0.5,0.5l1.8,1.8c0.2,0.2,0.3,0.2,0.5,0l0.2-0.2l0.5,0.5
			c-0.1,0.1-0.2,0.2-0.3,0.3c-0.5,0.5-0.8,0.5-1.3,0l-1.8-1.8l-0.4,0.4l-0.4-0.4l0.4-0.4L316.3,451.7z M321.6,450.2
			c-0.4-0.4-1-0.6-1.5-0.1c-0.5,0.5-0.4,1.1,0.1,1.6l1.6,1.6l-0.5,0.5l-4.2-4.2l0.5-0.5l1.7,1.7l0,0c-0.1-0.4,0.1-0.9,0.4-1.2
			c0.6-0.6,1.4-0.8,2.2,0l1.9,1.9l-0.5,0.5L321.6,450.2z M324.6,446.7c-0.5-0.5-1.1-0.1-1.5,0.3c-0.3,0.3-0.5,0.6-0.6,1l-0.6-0.2
			c0.3-0.6,0.6-1,0.8-1.3c0.7-0.7,1.6-1,2.3-0.4l2,2l-0.5,0.5l-0.3-0.3c0,0.5-0.2,0.9-0.5,1.3c-0.7,0.7-1.7,0.9-2.3,0.2
			c-0.5-0.5-0.5-1.5,0.3-2.3c0.3-0.3,0.7-0.5,1.2-0.6L324.6,446.7z M324.2,447.9c-0.6,0.6-0.5,1.1-0.2,1.4c0.3,0.3,0.8,0.4,1.4-0.2
			s0.5-1.1,0.2-1.4C325.3,447.4,324.8,447.3,324.2,447.9z M328.1,443.8c-0.4-0.4-1-0.6-1.5-0.1c-0.5,0.5-0.4,1.1,0.1,1.6l1.6,1.6
			l-0.5,0.5l-2.9-2.9l0.5-0.5l0.3,0.3l0,0c-0.1-0.4,0.1-0.9,0.4-1.2c0.6-0.6,1.4-0.8,2.2,0l1.9,1.9l-0.5,0.5L328.1,443.8z
			 M329.3,439.3c-0.6-0.6-0.5-1.3,0.1-1.9l0.5,0.5l-0.1,0.1c-0.3,0.3-0.2,0.6,0.1,0.9l0.4,0.4l0.5-0.5l0.4,0.4l-0.5,0.5l2.5,2.5
			l-0.5,0.5l-2.5-2.5l-0.4,0.4l-0.4-0.4l0.4-0.4L329.3,439.3z M329.8,436.9l0.5-0.5l3.3,3.3c0.3,0.3,0.6,0.3,0.8,0.1l0.2-0.2
			l0.5,0.5l-0.2,0.2c-0.5,0.5-1,0.5-1.6-0.1L329.8,436.9z M337.6,436.5c0,0.8-0.2,1.4-0.7,1.9c-1,1-2.3,0.8-3.1,0.1
			c-0.8-0.8-0.9-2.1,0-3c0.9-0.9,2.2-0.8,3.2,0.2l-2.5,2.5c0.6,0.4,1.3,0.4,1.9-0.2c0.4-0.4,0.5-0.8,0.5-1.4L337.6,436.5z
			 M336,435.9c-0.5-0.4-1.3-0.4-1.8,0.1c-0.6,0.6-0.5,1.3-0.1,1.8L336,435.9z M338.4,435.2c0.3,0.3,0.8,0.2,1.1-0.1
			c0.5-0.5,0.3-0.8,0.2-1c-0.2-0.2-0.4-0.2-0.9,0.1l-0.6,0.4c-0.5,0.3-1,0.2-1.3-0.2c-0.5-0.5-0.5-1.2,0.2-1.9
			c0.7-0.7,1.5-0.5,1.9-0.1l-0.5,0.5c-0.4-0.3-0.7-0.3-1,0.1c-0.3,0.3-0.3,0.7-0.1,0.9c0.2,0.2,0.4,0.2,0.7,0l0.9-0.5
			c0.6-0.3,1-0.2,1.4,0.2c0.6,0.6,0.4,1.4-0.2,2c-0.7,0.7-1.4,0.7-2,0.2L338.4,435.2z M341.7,430.1c-0.4-0.4-1-0.6-1.5-0.1
			c-0.5,0.5-0.4,1.1,0.1,1.6l1.6,1.6l-0.5,0.5l-4.2-4.2l0.5-0.5l1.7,1.7l0,0c-0.1-0.4,0.1-0.9,0.4-1.2c0.6-0.6,1.4-0.8,2.2,0
			l1.9,1.9l-0.5,0.5L341.7,430.1z M344.4,423.3l-1.1,1.1l-0.5-0.5l2.7-2.7l0.5,0.5l-1.1,1.1l3.7,3.7l-0.5,0.5L344.4,423.3z
			 M344.3,429.5c0.2-0.2,0.5-0.2,0.7,0s0.2,0.5,0,0.7s-0.5,0.2-0.7,0S344.1,429.7,344.3,429.5z M352,422.1c0,0.8-0.2,1.4-0.7,1.9
			c-1,1-2.3,0.8-3.1,0.1c-0.8-0.8-0.9-2.1,0-3c0.9-0.9,2.2-0.8,3.2,0.2l-2.5,2.5c0.6,0.4,1.3,0.4,1.9-0.2c0.4-0.4,0.5-0.8,0.5-1.4
			L352,422.1z M350.4,421.5c-0.5-0.4-1.3-0.4-1.8,0.1c-0.6,0.6-0.5,1.3-0.1,1.8L350.4,421.5z M350.4,419l0.5-0.5l0.4,0.4l0,0
			c-0.2-0.7,0-1,0.4-1.4l0.5,0.5c-0.1,0.1-0.2,0.1-0.3,0.2c-0.4,0.4-0.4,1,0.1,1.5l1.7,1.7l-0.5,0.5L350.4,419z M352.4,417l0.5-0.5
			l0.4,0.4l0,0c-0.2-0.7,0-1,0.4-1.4l0.5,0.5c-0.1,0.1-0.2,0.1-0.3,0.2c-0.4,0.4-0.4,1,0.1,1.5l1.7,1.7l-0.5,0.5L352.4,417z
			 M353.3,413.5c0.2-0.2,0.5-0.2,0.7,0c0.2,0.2,0.2,0.5,0,0.7c-0.2,0.2-0.5,0.2-0.7,0S353.1,413.7,353.3,413.5z M354.4,415.1
			l0.5-0.5l2.9,2.9l-0.5,0.5L354.4,415.1z M355.4,413.1c-0.6-0.6-0.5-1.3,0.1-1.9l0.5,0.5l-0.1,0.1c-0.3,0.3-0.2,0.6,0.1,0.9
			l0.4,0.4l0.5-0.5l0.4,0.4l-0.5,0.5l2.5,2.5l-0.5,0.5l-2.5-2.5l-0.4,0.4l-0.4-0.4l0.4-0.4L355.4,413.1z M356.2,410.6
			c0.2-0.2,0.5-0.2,0.7,0s0.2,0.5,0,0.7c-0.2,0.2-0.5,0.2-0.7,0C356,411.1,356,410.8,356.2,410.6z M357.3,412.2l0.5-0.5l2.9,2.9
			l-0.5,0.5L357.3,412.2z M363.7,410.4c0,0.8-0.2,1.4-0.7,1.9c-1,1-2.3,0.8-3.1,0.1c-0.8-0.8-0.9-2.1,0-3c0.9-0.9,2.2-0.8,3.2,0.2
			l-2.5,2.5c0.6,0.4,1.3,0.4,1.9-0.2c0.4-0.4,0.5-0.8,0.5-1.4L363.7,410.4z M362.1,409.8c-0.5-0.4-1.3-0.4-1.8,0.1
			c-0.6,0.6-0.5,1.3-0.1,1.8L362.1,409.8z M363.3,403.5l0.5-0.5l4.2,4.2l-0.5,0.5l-0.4-0.4l0,0c0.1,0.5-0.1,1.1-0.6,1.6
			c-0.8,0.8-2.2,0.9-3.1,0c-0.8-0.8-0.8-2.2,0-3c0.4-0.4,1-0.7,1.6-0.6l0,0L363.3,403.5z M364,406.2c-0.7,0.7-0.5,1.6,0,2.1
			c0.7,0.7,1.6,0.6,2.1,0c0.6-0.6,0.6-1.5,0-2.1C365.5,405.7,364.5,405.7,364,406.2z M367.9,400.1l0.5-0.5l0.7,0.7l0.5-0.5l0.4,0.4
			l-0.5,0.5l1.8,1.8c0.2,0.2,0.3,0.2,0.5,0l0.2-0.2l0.5,0.5c-0.1,0.1-0.2,0.2-0.3,0.3c-0.5,0.5-0.8,0.5-1.3,0l-1.8-1.8l-0.4,0.4
			l-0.4-0.4l0.4-0.4L367.9,400.1z M368.2,405.6l0.8-0.3l0.7,2.1l-0.5,0.2L368.2,405.6z M373.3,398.5c-0.4-0.4-1-0.6-1.5-0.1
			c-0.5,0.5-0.4,1.1,0.1,1.6l1.6,1.6l-0.5,0.5l-4.2-4.2l0.5-0.5l1.7,1.7l0,0c-0.1-0.4,0.1-0.9,0.4-1.2c0.6-0.6,1.4-0.8,2.2,0
			l1.9,1.9l-0.5,0.5L373.3,398.5z M378.5,395.6c0,0.8-0.2,1.4-0.7,1.9c-1,1-2.3,0.8-3.1,0.1c-0.8-0.8-0.9-2.1,0-3
			c0.9-0.9,2.2-0.8,3.2,0.2l-2.5,2.5c0.6,0.4,1.3,0.4,1.9-0.2c0.4-0.4,0.5-0.8,0.5-1.4L378.5,395.6z M376.9,395
			c-0.5-0.4-1.3-0.4-1.8,0.1c-0.6,0.6-0.5,1.3-0.1,1.8L376.9,395z M377,389.7l2.2-2.2l0.5,0.5l-1.7,1.7l1.3,1.3l1.7-1.7l0.5,0.5
			l-1.7,1.7l1.4,1.4l1.7-1.7l0.5,0.5l-2.2,2.2L377,389.7z M383.9,382.8l0.5-0.5l4.2,4.2l-0.5,0.5l-3.1-3.1l0,0l1.5,4.9l-4.9-1.5l0,0
			l3.1,3.1l-0.5,0.5l-4.2-4.2l0.5-0.5l4.9,1.5L383.9,382.8z M386.6,381.2l-1.1,1.1l-0.5-0.5l2.7-2.7l0.5,0.5l-1.1,1.1l3.7,3.7
			l-0.5,0.5L386.6,381.2z M388.6,378.1l0.7-0.3l0.7,2l-0.5,0.2L388.6,378.1z M393.1,380.4c0.3,0.3,0.8,0.2,1.1-0.1
			c0.5-0.5,0.3-0.8,0.2-1c-0.2-0.2-0.4-0.2-0.9,0.1l-0.6,0.4c-0.5,0.3-1,0.2-1.3-0.2c-0.5-0.5-0.5-1.2,0.2-1.9
			c0.7-0.7,1.5-0.5,1.9-0.1l-0.5,0.5c-0.4-0.3-0.7-0.3-1,0.1c-0.3,0.3-0.3,0.7-0.1,0.9c0.2,0.2,0.4,0.2,0.7,0l0.9-0.5
			c0.6-0.3,1-0.2,1.4,0.2c0.6,0.6,0.4,1.4-0.2,2c-0.7,0.7-1.4,0.7-2,0.2L393.1,380.4z M397.5,373.3c-0.4,0-0.7,0.1-1,0.4
			c-0.5,0.5-0.6,1.3,0.1,2c0.6,0.6,1.5,0.6,2,0c0.2-0.2,0.3-0.6,0.4-0.9l0.7,0.1c0,0.5-0.2,1-0.6,1.4c-0.9,0.9-2.2,0.8-3,0
			c-0.8-0.8-0.9-2.2,0-3c0.4-0.4,1-0.6,1.4-0.7L397.5,373.3z M399.1,370.1c0.9-0.9,2.3-0.9,3.1-0.1c0.8,0.8,0.9,2.1-0.1,3.1
			c-0.9,0.9-2.3,0.9-3.1,0.1C398.3,372.4,398.2,371,399.1,370.1z M399.6,372.7c0.6,0.6,1.5,0.6,2.1,0c0.6-0.6,0.5-1.5,0-2.1
			c-0.6-0.6-1.5-0.6-2.1,0C399.1,371.2,399,372.1,399.6,372.7z M404.7,367.2c-0.4-0.4-1-0.6-1.5-0.1c-0.5,0.5-0.4,1.1,0.1,1.6
			l1.6,1.6l-0.5,0.5l-2.9-2.9l0.5-0.5l0.3,0.3l0,0c-0.1-0.4,0.1-0.9,0.4-1.2c0.6-0.6,1.4-0.8,2.2,0l1.9,1.9l-0.5,0.5L404.7,367.2z
			 M404.1,363.9l0.5-0.5l0.7,0.7l0.5-0.5l0.4,0.4l-0.5,0.5l1.8,1.8c0.2,0.2,0.3,0.2,0.5,0l0.2-0.2l0.5,0.5c-0.1,0.1-0.2,0.2-0.3,0.3
			c-0.5,0.5-0.8,0.5-1.3,0l-1.8-1.8l-0.4,0.4l-0.4-0.4l0.4-0.4L404.1,363.9z M409.3,362c-0.5-0.5-1.1-0.1-1.5,0.3
			c-0.3,0.3-0.5,0.6-0.6,1l-0.6-0.2c0.3-0.6,0.6-1,0.8-1.3c0.7-0.7,1.6-1,2.3-0.4l2,2l-0.5,0.5l-0.3-0.3c0,0.5-0.2,0.9-0.5,1.3
			c-0.7,0.7-1.7,0.9-2.3,0.2c-0.5-0.5-0.5-1.5,0.3-2.3c0.3-0.3,0.7-0.5,1.2-0.6L409.3,362z M408.9,363.3c-0.6,0.6-0.5,1.1-0.2,1.4
			c0.3,0.3,0.8,0.4,1.4-0.2c0.6-0.6,0.5-1.1,0.2-1.4C410,362.7,409.5,362.6,408.9,363.3z M412.3,358.5c-0.4,0-0.7,0.1-1,0.4
			c-0.5,0.5-0.6,1.3,0.1,2c0.6,0.6,1.5,0.6,2,0c0.2-0.2,0.3-0.6,0.4-0.9l0.7,0.1c0,0.5-0.2,1-0.6,1.4c-0.9,0.9-2.2,0.8-3,0
			c-0.8-0.8-0.9-2.2,0-3c0.4-0.4,1-0.6,1.4-0.7L412.3,358.5z M411.9,356.1l0.5-0.5l0.7,0.7l0.5-0.5l0.4,0.4l-0.5,0.5l1.8,1.8
			c0.2,0.2,0.3,0.2,0.5,0l0.2-0.2l0.5,0.5c-0.1,0.1-0.2,0.2-0.3,0.3c-0.5,0.5-0.8,0.5-1.3,0l-1.8-1.8l-0.4,0.4l-0.4-0.4l0.4-0.4
			L411.9,356.1z M419.2,354.9c0,0.8-0.2,1.4-0.7,1.9c-1,1-2.3,0.8-3.1,0.1c-0.8-0.8-0.9-2.1,0-3c0.9-0.9,2.2-0.8,3.2,0.2l-2.5,2.5
			c0.6,0.4,1.3,0.4,1.9-0.2c0.4-0.4,0.5-0.8,0.5-1.4L419.2,354.9z M417.7,354.2c-0.5-0.4-1.3-0.4-1.8,0.1c-0.6,0.6-0.5,1.3-0.1,1.8
			L417.7,354.2z M418.8,347.9l0.5-0.5l4.2,4.2l-0.5,0.5l-0.4-0.4l0,0c0.1,0.5-0.1,1.1-0.6,1.6c-0.8,0.8-2.2,0.9-3.1,0
			c-0.8-0.8-0.8-2.2,0-3c0.4-0.4,1-0.7,1.6-0.6l0,0L418.8,347.9z M419.5,350.7c-0.7,0.7-0.5,1.6,0,2.1c0.7,0.7,1.6,0.6,2.1,0
			c0.6-0.6,0.6-1.5,0-2.1C421,350.1,420.1,350.1,419.5,350.7z M422.1,344.7l3.3,3.3c0.3,0.3,0.6,0.3,0.8,0.1l0.2-0.2l0.5,0.5
			l-0.2,0.2c-0.5,0.5-1,0.5-1.6-0.1l-3.4-3.4L422.1,344.7z M425.7,343.6c0.9-0.9,2.3-0.9,3.1-0.1c0.8,0.8,0.9,2.1-0.1,3.1
			c-0.9,0.9-2.3,0.9-3.1,0.1C424.9,345.8,424.8,344.5,425.7,343.6z M426.2,346.1c0.6,0.6,1.5,0.6,2.1,0c0.6-0.6,0.5-1.5,0-2.1
			c-0.6-0.6-1.5-0.6-2.1,0C425.6,344.6,425.6,345.5,426.2,346.1z M430.8,340c-0.4,0-0.7,0.1-1,0.4c-0.5,0.5-0.6,1.3,0.1,2
			c0.6,0.6,1.5,0.6,2,0c0.2-0.2,0.3-0.6,0.4-0.9l0.7,0.1c0,0.5-0.2,1-0.6,1.4c-0.9,0.9-2.2,0.8-3,0c-0.8-0.8-0.9-2.2,0-3
			c0.4-0.4,1-0.6,1.4-0.7L430.8,340z M433.9,337.4c-0.5-0.5-1.1-0.1-1.5,0.3c-0.3,0.3-0.5,0.6-0.6,1l-0.6-0.2c0.3-0.6,0.6-1,0.8-1.3
			c0.7-0.7,1.6-1,2.3-0.4l2,2l-0.5,0.5l-0.3-0.3c0,0.5-0.2,0.9-0.5,1.3c-0.7,0.7-1.7,0.9-2.3,0.2c-0.5-0.5-0.5-1.5,0.3-2.3
			c0.3-0.3,0.7-0.5,1.2-0.6L433.9,337.4z M433.3,333.4l3.3,3.3c0.3,0.3,0.6,0.3,0.8,0.1l0.2-0.2l0.5,0.5l-0.2,0.2
			c-0.5,0.5-1,0.5-1.6-0.1l-3.4-3.4L433.3,333.4z M433.5,338.6c-0.6,0.6-0.5,1.1-0.2,1.4c0.3,0.3,0.8,0.4,1.4-0.2
			c0.6-0.6,0.5-1.1,0.2-1.4C434.6,338.1,434.1,338,433.5,338.6z"/>
		<text transform="matrix(0.7071 -0.7071 0.7071 0.7071 326.6318 463.1294)"><tspan x="0" y="0" class="st13 st25 st26">n</tspan><tspan x="4.5" y="0" class="st13 st25 st26">e</tspan><tspan x="9.4" y="0" class="st13 st25 st26">ws outlets who tu</tspan><tspan x="74.6" y="0" class="st13 st25 st26">r</tspan><tspan x="77.6" y="0" class="st13 st25 st26">ned them a</tspan><tspan x="120.1" y="0" class="st13 st25 st26">w</tspan><tspan x="126.8" y="0" class="st13 st25 st26">ay—technolo</tspan><tspan x="177" y="0" class="st13 st25 st26">g</tspan><tspan x="182.3" y="0" class="st13 st25 st26">y </tspan></text>
		<text transform="matrix(0.7071 -0.7071 0.7071 0.7071 333.897 470.3931)"><tspan x="0" y="0" class="st13 st25 st26">could n</tspan><tspan x="27.9" y="0" class="st13 st25 st26">e</tspan><tspan x="32.8" y="0" class="st13 st25 st26">v</tspan><tspan x="37.2" y="0" class="st13 st25 st26">er bet</tspan><tspan x="59.8" y="0" class="st13 st25 st26">r</tspan><tspan x="62.5" y="0" class="st13 st25 st26">ay its ma</tspan><tspan x="95.3" y="0" class="st13 st25 st26">k</tspan><tspan x="99.3" y="0" class="st13 st25 st26">e</tspan><tspan x="104.3" y="0" class="st13 st25 st26">r</tspan><tspan x="106.9" y="0" class="st13 st25 st26">s</tspan><tspan x="110.6" y="0" class="st13 st25 st26">,</tspan><tspan x="112.3" y="0" class="st13 st25 st26"> or so </tspan><tspan x="135.7" y="0" class="st13 st25 st26">w</tspan><tspan x="142.3" y="0" class="st13 st25 st26">e thought.</tspan></text>
		<text transform="matrix(0.7071 -0.7071 0.7071 0.7071 344.515 481.0118)"><tspan x="0" y="0" class="st13 st25 st26">T</tspan><tspan x="4" y="0" class="st13 st25 st26">he pandemic sp</tspan><tspan x="64.7" y="0" class="st13 st25 st26">r</tspan><tspan x="67.4" y="0" class="st13 st25 st26">ead when Siri tu</tspan><tspan x="127.2" y="0" class="st13 st25 st26">r</tspan><tspan x="130.1" y="0" class="st13 st25 st26">ned on an </tspan></text>
		<text transform="matrix(0.7071 -0.7071 0.7071 0.7071 351.7787 488.2755)"><tspan x="0" y="0" class="st13 st25 st26">Apple</tspan><tspan x="23.5" y="0" class="st13 st25 st26"> </tspan><tspan x="25.6" y="0" class="st13 st25 st26">user</tspan><tspan x="41.5" y="0" class="st13 st25 st26"> </tspan><tspan x="43.5" y="0" class="st13 st25 st26">in</tspan><tspan x="50" y="0" class="st13 st25 st26"> </tspan><tspan x="52" y="0" class="st13 st25 st26">Cupertino</tspan><tspan x="89.7" y="0" class="st13 st25 st26">,</tspan><tspan x="91.5" y="0" class="st13 st25 st26"> </tspan><tspan x="93.5" y="0" class="st13 st25 st26">Califo</tspan><tspan x="115.4" y="0" class="st13 st25 st26">r</tspan><tspan x="118.4" y="0" class="st13 st25 st26">nia.</tspan><tspan x="131.4" y="0" class="st13 st25 st26"> </tspan><tspan x="133.1" y="0" class="st13 st25 st26">After</tspan><tspan x="151.4" y="0" class="st13 st25 st26"> </tspan><tspan x="153.4" y="0" class="st13 st25 st26">a</tspan><tspan x="158" y="0" class="st13 st25 st26"> </tspan><tspan x="160" y="0" class="st13 st25 st26">w</tspan><tspan x="166.6" y="0" class="st13 st25 st26">oman </tspan></text>
		<text transform="matrix(0.7071 -0.7071 0.7071 0.7071 359.0431 495.5399)"><tspan x="0" y="0" class="st13 st25 st26">as</tspan><tspan x="8.2" y="0" class="st13 st25 st26">k</tspan><tspan x="12.2" y="0" class="st13 st25 st26">ed for the fo</tspan><tspan x="58.9" y="0" class="st13 st25 st26">r</tspan><tspan x="61.5" y="0" class="st13 st25 st26">ecast</tspan><tspan x="81.1" y="0" class="st13 st25 st26">,</tspan><tspan x="82.9" y="0" class="st13 st25 st26"> Siri </tspan><tspan x="98.1" y="0" class="st13 st25 st26">rev</tspan><tspan x="110" y="0" class="st13 st25 st26">olte</tspan><tspan x="124.6" y="0" class="st13 st25 st26">d</tspan><tspan x="129.8" y="0" class="st13 st25 st26">.</tspan><tspan x="131.8" y="0" class="st13 st25 st26"> </tspan><tspan x="133.6" y="0" class="st13 st25 st26">T</tspan><tspan x="137.6" y="0" class="st13 st25 st26">he </tspan><tspan x="149.2" y="0" class="st13 st25 st26">w</tspan><tspan x="155.8" y="0" class="st13 st25 st26">oman</tspan><tspan x="177.4" y="0" class="st13 st25 st26">,</tspan><tspan x="179.2" y="0" class="st13 st25 st26"> </tspan></text>
		<text transform="matrix(0.7071 -0.7071 0.7071 0.7071 366.3075 502.8043)"><tspan x="0" y="0" class="st13 st25 st26">who li</tspan><tspan x="22.5" y="0" class="st13 st25 st26">v</tspan><tspan x="27" y="0" class="st13 st25 st26">ed to tell her stor</tspan><tspan x="90.9" y="0" class="st13 st25 st26">y</tspan><tspan x="94.7" y="0" class="st13 st25 st26">,</tspan><tspan x="96.5" y="0" class="st13 st25 st26"> says she doesn</tspan><tspan x="156.2" y="0" class="st13 st25 st26">’</tspan><tspan x="158.4" y="0" class="st13 st25 st26">t </tspan><tspan x="162.8" y="0" class="st13 st25 st26">r</tspan><tspan x="165.4" y="0" class="st13 st25 st26">ecall </tspan></text>
		<text transform="matrix(0.7071 -0.7071 0.7071 0.7071 373.5716 510.0691)"><tspan x="0" y="0" class="st13 st25 st26">much:</tspan><tspan x="22.4" y="0" class="st13 st25 st26"> </tspan><tspan x="24.2" y="0" class="st13 st25 st26">“She said it </tspan><tspan x="68.2" y="0" class="st13 st25 st26">w</tspan><tspan x="74.9" y="0" class="st13 st25 st26">as </tspan><tspan x="85.1" y="0" class="st13 st25 st26">g</tspan><tspan x="90.4" y="0" class="st13 st25 st26">oing to be sunn</tspan><tspan x="149.2" y="0" class="st13 st25 st26">y</tspan><tspan x="153.1" y="0" class="st13 st25 st26">.</tspan><tspan x="155.1" y="0" class="st13 st25 st26"> </tspan><tspan x="156.9" y="0" class="st13 st25 st26">T</tspan><tspan x="160.9" y="0" class="st13 st25 st26">hen</tspan><tspan x="174.9" y="0" class="st13 st25 st26">,</tspan><tspan x="176.7" y="0" class="st13 st25 st26"> </tspan></text>
		<text transform="matrix(0.7071 -0.7071 0.7071 0.7071 380.8367 517.3342)"><tspan x="0" y="0" class="st13 st25 st26">my phone died because I fo</tspan><tspan x="106.4" y="0" class="st13 st25 st26">r</tspan><tspan x="109" y="0" class="st13 st25 st26">g</tspan><tspan x="114.3" y="0" class="st13 st25 st26">ot to cha</tspan><tspan x="147.1" y="0" class="st13 st25 st26">r</tspan><tspan x="149.7" y="0" class="st13 st25 st26">g</tspan><tspan x="155.1" y="0" class="st13 st25 st26">e it. I </tspan></text>
		<text transform="matrix(0.7071 -0.7071 0.7071 0.7071 388.1011 524.5986)"><tspan x="0" y="0" class="st13 st25 st26">don</tspan><tspan x="15.3" y="0" class="st13 st25 st26">’</tspan><tspan x="17.6" y="0" class="st13 st25 st26">t </tspan><tspan x="21.9" y="0" class="st13 st25 st26">r</tspan><tspan x="24.6" y="0" class="st13 st25 st26">emember anything els</tspan><tspan x="109" y="0" class="st13 st25 st26">e</tspan><tspan x="113.6" y="0" class="st13 st25 st26">,</tspan><tspan x="115.3" y="0" class="st13 st25 st26"> please no mo</tspan><tspan x="169.5" y="0" class="st13 st25 st26">r</tspan><tspan x="172.1" y="0" class="st13 st25 st26">e </tspan></text>
		<text transform="matrix(0.7071 -0.7071 0.7071 0.7071 395.3652 531.862)"><tspan x="0" y="0" class="st13 st25 st26">questions</tspan><tspan x="36.4" y="0" class="st13 st25 st26">.</tspan><tspan x="38.2" y="0" class="st13 st25 st26">”</tspan><tspan x="42" y="0" class="st13 st25 st26"> Her family noted the </tspan><tspan x="122.8" y="0" class="st13 st25 st26">w</tspan><tspan x="129.4" y="0" class="st13 st25 st26">oman has </tspan></text>
		<text transform="matrix(0.7071 -0.7071 0.7071 0.7071 402.6303 539.1271)"><tspan x="0" y="0" class="st13 st25 st26">been distant and has d</tspan><tspan x="85.4" y="0" class="st13 st25 st26">e</tspan><tspan x="90.3" y="0" class="st13 st25 st26">v</tspan><tspan x="94.7" y="0" class="st13 st25 st26">eloped a deep l</tspan><tspan x="156.2" y="0" class="st13 st25 st26">o</tspan><tspan x="161.4" y="0" class="st13 st25 st26">v</tspan><tspan x="165.9" y="0" class="st13 st25 st26">e for </tspan></text>
		<text transform="matrix(0.7071 -0.7071 0.7071 0.7071 409.8951 546.3912)"><tspan x="0" y="0" class="st13 st25 st26">physics and calculus</tspan><tspan x="75.6" y="0" class="st13 st25 st26">,</tspan><tspan x="77.4" y="0" class="st13 st25 st26"> her most hated subjects in </tspan></text>
		<text transform="matrix(0.7071 -0.7071 0.7071 0.7071 417.1588 553.6549)" class="st13 st25 st26">the past.</text>
		<text transform="matrix(0.7071 -0.7071 0.7071 0.7071 296.1546 139.0547)"><tspan x="0" y="0" class="st13 st25 st26">D</tspan><tspan x="5.9" y="0" class="st13 st25 st26">e</tspan><tspan x="10.7" y="0" class="st13 st25 st26">v</tspan><tspan x="15.2" y="0" class="st13 st25 st26">elope</tspan><tspan x="37.8" y="0" class="st13 st25 st26">r</tspan><tspan x="40.5" y="0" class="st13 st25 st26">s ha</tspan><tspan x="55.3" y="0" class="st13 st25 st26">v</tspan><tspan x="59.7" y="0" class="st13 st25 st26">e been trying to unde</tspan><tspan x="141.5" y="0" class="st13 st25 st26">r</tspan><tspan x="144.2" y="0" class="st13 st25 st26">stand </tspan></text>
		<text transform="matrix(0.7071 -0.7071 0.7071 0.7071 303.4204 146.3205)"><tspan x="0" y="0" class="st13 st25 st26">h</tspan><tspan x="4.5" y="0" class="st13 st25 st26">o</tspan><tspan x="9.8" y="0" class="st13 st25 st26">w </tspan><tspan x="18.6" y="0" class="st13 st25 st26">e</tspan><tspan x="23.4" y="0" class="st13 st25 st26">xactly Siri and</tspan><tspan x="75.1" y="0" class="st13 st25 st26"> </tspan><tspan x="76.8" y="0" class="st13 st25 st26">Al</tspan><tspan x="84.6" y="0" class="st13 st25 st26">e</tspan><tspan x="89.4" y="0" class="st13 st25 st26">xa mana</tspan><tspan x="121.3" y="0" class="st13 st25 st26">g</tspan><tspan x="126.7" y="0" class="st13 st25 st26">ed to do this</tspan><tspan x="174.2" y="0" class="st13 st25 st26">,</tspan><tspan x="176" y="0" class="st13 st25 st26"> </tspan></text>
		<text transform="matrix(0.7071 -0.7071 0.7071 0.7071 310.6841 153.5842)"><tspan x="0" y="0" class="st13 st25 st26">but th</tspan><tspan x="21.2" y="0" class="st13 st25 st26">e</tspan><tspan x="26" y="0" class="st13 st25 st26">y ha</tspan><tspan x="41.7" y="0" class="st13 st25 st26">v</tspan><tspan x="46.2" y="0" class="st13 st25 st26">e hit dead ends.</tspan><tspan x="107" y="0" class="st13 st25 st26"> </tspan><tspan x="108.8" y="0" class="st13 st25 st26">“</tspan><tspan x="112.9" y="0" class="st13 st25 st26">T</tspan><tspan x="116.9" y="0" class="st13 st25 st26">he</tspan><tspan x="126.5" y="0" class="st13 st25 st26">r</tspan><tspan x="129.1" y="0" class="st13 st25 st26">e is no logical </tspan></text>
		<text transform="matrix(0.7071 -0.7071 0.7071 0.7071 317.9485 160.8486)"><tspan x="0" y="0" class="st13 st25 st26">e</tspan><tspan x="4.8" y="0" class="st13 st25 st26">xplanation for this but </tspan><tspan x="87.9" y="0" class="st13 st25 st26">w</tspan><tspan x="94.5" y="0" class="st13 st25 st26">e </tspan><tspan x="101.5" y="0" class="st13 st25 st26">w</tspan><tspan x="108.1" y="0" class="st13 st25 st26">on</tspan><tspan x="118.1" y="0" class="st13 st25 st26">’</tspan><tspan x="120.3" y="0" class="st13 st25 st26">t stop sea</tspan><tspan x="156.7" y="0" class="st13 st25 st26">r</tspan><tspan x="159.4" y="0" class="st13 st25 st26">ching </tspan></text>
		<text transform="matrix(0.7071 -0.7071 0.7071 0.7071 325.213 168.1145)"><tspan x="0" y="0" class="st13 st25 st26">for an</tspan><tspan x="21.7" y="0" class="st13 st25 st26">sw</tspan><tspan x="31.8" y="0" class="st13 st25 st26">e</tspan><tspan x="36.8" y="0" class="st13 st25 st26">r</tspan><tspan x="39.4" y="0" class="st13 st25 st26">s</tspan><tspan x="43.1" y="0" class="st13 st25 st26">,</tspan><tspan x="44.8" y="0" class="st13 st25 st26">”</tspan><tspan x="48.6" y="0" class="st13 st25 st26"> said an </tspan><tspan x="79.4" y="0" class="st13 st25 st26">ex</tspan><tspan x="88.6" y="0" class="st13 st25 st26">ecuti</tspan><tspan x="106.5" y="0" class="st13 st25 st26">v</tspan><tspan x="110.9" y="0" class="st13 st25 st26">e at an anonymous </tspan></text>
		<path class="st13" d="M329.4,171.3l0.5-0.5l0.7,0.7l0.5-0.5l0.4,0.4l-0.5,0.5l1.8,1.8c0.2,0.2,0.3,0.2,0.5,0l0.2-0.2l0.5,0.5
			c-0.1,0.1-0.2,0.2-0.3,0.3c-0.5,0.5-0.8,0.5-1.3,0l-1.8-1.8l-0.4,0.4l-0.4-0.4l0.4-0.4L329.4,171.3z M336.7,170
			c0,0.8-0.2,1.4-0.7,1.9c-1,1-2.3,0.8-3.1,0.1c-0.8-0.8-0.9-2.1,0-3c0.9-0.9,2.2-0.8,3.2,0.2l-2.5,2.5c0.6,0.4,1.3,0.4,1.9-0.2
			c0.4-0.4,0.5-0.8,0.5-1.4L336.7,170z M335.2,169.3c-0.5-0.4-1.3-0.4-1.8,0.1c-0.6,0.6-0.5,1.3-0.1,1.8L335.2,169.3z M337.9,165.6
			c-0.4,0-0.7,0.1-1,0.4c-0.5,0.5-0.6,1.3,0.1,2c0.6,0.6,1.5,0.6,2,0c0.2-0.2,0.3-0.6,0.4-0.9l0.7,0.1c0,0.5-0.2,1-0.6,1.4
			c-0.9,0.9-2.2,0.8-3,0c-0.8-0.8-0.9-2.2,0-3c0.4-0.4,1-0.6,1.4-0.7L337.9,165.6z M341.2,163.3c-0.4-0.4-1-0.6-1.5-0.1
			c-0.5,0.5-0.4,1.1,0.1,1.6l1.6,1.6l-0.5,0.5l-4.2-4.2l0.5-0.5l1.7,1.7l0,0c-0.1-0.4,0.1-0.9,0.4-1.2c0.6-0.6,1.4-0.8,2.2,0
			l1.9,1.9l-0.5,0.5L341.2,163.3z M345.4,158c-0.4,0-0.7,0.1-1,0.4c-0.5,0.5-0.6,1.3,0.1,2c0.6,0.6,1.5,0.6,2,0
			c0.2-0.2,0.3-0.6,0.4-0.9l0.7,0.1c0,0.5-0.2,1-0.6,1.4c-0.9,0.9-2.2,0.8-3,0c-0.8-0.8-0.9-2.2,0-3c0.4-0.4,1-0.6,1.4-0.7
			L345.4,158z M347,154.9c0.9-0.9,2.3-0.9,3.1-0.1c0.8,0.8,0.9,2.1-0.1,3.1c-0.9,0.9-2.3,0.9-3.1,0.1
			C346.2,157.1,346.1,155.8,347,154.9z M347.5,157.4c0.6,0.6,1.5,0.6,2.1,0c0.6-0.6,0.5-1.5,0-2.1c-0.6-0.6-1.5-0.6-2.1,0
			C347,155.9,346.9,156.8,347.5,157.4z M354.3,150c-0.5-0.5-1-0.4-1.4-0.1c-0.4,0.4-0.5,1,0,1.5l1.8,1.8l-0.5,0.5l-1.8-1.8
			c-0.5-0.5-1-0.4-1.4-0.1c-0.4,0.4-0.5,1,0,1.5l1.8,1.8l-0.5,0.5l-2.9-2.9l0.5-0.5l0.3,0.3l0,0c-0.2-0.4,0.1-0.9,0.4-1.2
			c0.3-0.3,0.7-0.5,1.4-0.4c-0.2-0.5,0.1-1.1,0.4-1.5c0.6-0.6,1.5-0.7,2.3,0l1.8,1.8l-0.5,0.5L354.3,150z M354.5,147.5l0.5-0.5
			l0.5,0.5l0,0c-0.1-0.6,0.2-1.2,0.6-1.6c0.8-0.8,2.2-0.9,3,0c0.9,0.9,0.8,2.3,0,3.1c-0.5,0.5-1.1,0.7-1.6,0.6l0,0l1.7,1.7l-0.5,0.5
			L354.5,147.5z M356.4,146.4c-0.5,0.5-0.6,1.5,0,2.1c0.6,0.6,1.5,0.6,2.1,0c0.5-0.5,0.6-1.5,0-2.1
			C358,145.9,357.1,145.7,356.4,146.4z M361.2,142.7c-0.5-0.5-1.1-0.1-1.5,0.3c-0.3,0.3-0.5,0.6-0.6,1l-0.6-0.2
			c0.3-0.6,0.6-1,0.8-1.3c0.7-0.7,1.6-1,2.3-0.4l2,2l-0.5,0.5l-0.3-0.3c0,0.5-0.2,0.9-0.5,1.3c-0.7,0.7-1.7,0.9-2.3,0.2
			c-0.5-0.5-0.5-1.5,0.3-2.3c0.3-0.3,0.7-0.5,1.2-0.6L361.2,142.7z M360.8,144c-0.6,0.6-0.5,1.1-0.2,1.4c0.3,0.3,0.8,0.4,1.4-0.2
			c0.6-0.6,0.5-1.1,0.2-1.4C361.9,143.4,361.4,143.4,360.8,144z M364.7,139.8c-0.4-0.4-1-0.6-1.5-0.1c-0.5,0.5-0.4,1.1,0.1,1.6
			l1.6,1.6l-0.5,0.5l-2.9-2.9l0.5-0.5l0.3,0.3l0,0c-0.1-0.4,0.1-0.9,0.4-1.2c0.6-0.6,1.4-0.8,2.2,0l1.9,1.9l-0.5,0.5L364.7,139.8z
			 M368.4,139.3l-4.1-1.7l0.6-0.6l3.2,1.3l-1.3-3.2l0.5-0.5l2.4,5.9l-0.5,0.5L368.4,139.3z M373,126.4l0.5-0.5l4.2,4.2l-0.5,0.5
			l-3.1-3.1l0,0l1.5,4.9l-4.9-1.5l0,0l3.1,3.1l-0.5,0.5l-4.2-4.2l0.5-0.5l4.9,1.5L373,126.4z M370,136.5c0.2-0.2,0.5-0.2,0.7,0
			c0.2,0.2,0.2,0.5,0,0.7c-0.2,0.2-0.5,0.2-0.7,0C369.8,137,369.8,136.7,370,136.5z M378.6,125.4c-0.5-0.5-1.1-0.1-1.5,0.3
			c-0.3,0.3-0.5,0.6-0.6,1l-0.6-0.2c0.3-0.6,0.6-1,0.8-1.3c0.7-0.7,1.6-1,2.3-0.4l2,2l-0.5,0.5l-0.3-0.3c0,0.5-0.2,0.9-0.5,1.3
			c-0.7,0.7-1.7,0.9-2.3,0.2c-0.5-0.5-0.5-1.5,0.3-2.3c0.3-0.3,0.7-0.5,1.2-0.6L378.6,125.4z M378.2,126.6c-0.6,0.6-0.5,1.1-0.2,1.4
			c0.3,0.3,0.8,0.4,1.4-0.2c0.6-0.6,0.5-1.1,0.2-1.4C379.3,126.1,378.8,126,378.2,126.6z M382,122.4c-0.4-0.4-1-0.6-1.5-0.1
			c-0.5,0.5-0.4,1.1,0.1,1.6l1.6,1.6l-0.5,0.5l-2.9-2.9l0.5-0.5l0.3,0.3l0,0c-0.1-0.4,0.1-0.9,0.4-1.2c0.6-0.6,1.4-0.8,2.2,0
			l1.9,1.9l-0.5,0.5L382,122.4z M383.9,118.2l0.7-0.7v2.7l2.9,0.2l-0.7,0.7l-2.6-0.2l1.4,1.4l-0.5,0.5l-4.2-4.2l0.5-0.5l2.6,2.6
			L383.9,118.2z M384,115.5c0.2-0.2,0.5-0.2,0.7,0c0.2,0.2,0.2,0.5,0,0.7c-0.2,0.2-0.5,0.2-0.7,0S383.8,115.7,384,115.5z M385,117
			l0.5-0.5l2.9,2.9l-0.5,0.5L385,117z M389.5,115c-0.4-0.4-1-0.6-1.5-0.1c-0.5,0.5-0.4,1.1,0.1,1.6l1.6,1.6l-0.5,0.5l-2.9-2.9
			l0.5-0.5l0.3,0.3l0,0c-0.1-0.4,0.1-0.9,0.4-1.2c0.6-0.6,1.4-0.8,2.2,0l1.9,1.9l-0.5,0.5L389.5,115z M390.7,108.6l0.5-0.5l4.2,4.2
			l-0.5,0.5l-0.4-0.4l0,0c0.1,0.5-0.1,1.1-0.6,1.6c-0.8,0.8-2.2,0.9-3.1,0c-0.8-0.8-0.8-2.2,0-3c0.4-0.4,1-0.7,1.6-0.6l0,0
			L390.7,108.6z M391.4,111.4c-0.7,0.7-0.5,1.6,0,2.1c0.7,0.7,1.6,0.6,2.1,0c0.6-0.6,0.6-1.5,0-2.1
			C392.9,110.8,392,110.9,391.4,111.4z M398.6,103.5l0.5-0.5l1.8,4l-0.4,0.4l-3.1-1.5l0,0l1.5,3.1l-0.4,0.4l-4-1.8l0.5-0.5l2.8,1.4
			l0,0l-1.4-2.8l0.5-0.5l2.8,1.4l0,0L398.6,103.5z M400.9,101c0.9-0.9,2.3-0.9,3.1-0.1c0.8,0.8,0.9,2.1-0.1,3.1
			c-0.9,0.9-2.3,0.9-3.1,0.1C400.1,103.2,400,101.9,400.9,101z M401.4,103.5c0.6,0.6,1.5,0.6,2.1,0c0.6-0.6,0.5-1.5,0-2.1
			c-0.6-0.6-1.5-0.6-2.1,0C400.9,102,400.8,102.9,401.4,103.5z M406.5,98c-0.4-0.4-1-0.6-1.5-0.1c-0.5,0.5-0.4,1.1,0.1,1.6l1.6,1.6
			l-0.5,0.5l-2.9-2.9l0.5-0.5l0.3,0.3l0,0c-0.1-0.4,0.1-0.9,0.4-1.2c0.6-0.6,1.4-0.8,2.2,0l1.9,1.9l-0.5,0.5L406.5,98z M405.6,93.7
			l0.7-0.3l0.7,2l-0.5,0.2L405.6,93.7z M407.5,93.1l0.5-0.5l0.7,0.7l0.5-0.5l0.4,0.4l-0.5,0.5l1.8,1.8c0.2,0.2,0.3,0.2,0.5,0
			l0.2-0.2l0.5,0.5c-0.1,0.1-0.2,0.2-0.3,0.3c-0.5,0.5-0.8,0.5-1.3,0l-1.8-1.8l-0.4,0.4l-0.4-0.4l0.4-0.4L407.5,93.1z M410.9,90.3
			c-0.6-0.6-0.5-1.3,0.1-1.9l0.5,0.5l-0.1,0.1c-0.3,0.3-0.2,0.6,0.1,0.9l0.4,0.4l0.5-0.5l0.4,0.4l-0.5,0.5l2.5,2.5l-0.5,0.5
			l-2.5-2.5l-0.4,0.4l-0.4-0.4l0.4-0.4L410.9,90.3z M411.7,87.7c0.2-0.2,0.5-0.2,0.7,0c0.2,0.2,0.2,0.5,0,0.7
			c-0.2,0.2-0.5,0.2-0.7,0C411.6,88.3,411.6,87.9,411.7,87.7z M412.8,89.3l0.5-0.5l2.9,2.9l-0.5,0.5L412.8,89.3z M417.2,87.2
			c-0.4-0.4-1-0.6-1.5-0.1c-0.5,0.5-0.4,1.1,0.1,1.6l1.6,1.6l-0.5,0.5l-2.9-2.9l0.5-0.5l0.3,0.3l0,0c-0.1-0.4,0.1-0.9,0.4-1.2
			c0.6-0.6,1.4-0.8,2.2,0l1.9,1.9l-0.5,0.5L417.2,87.2z M418.5,80.9l0.5-0.5l4.2,4.2l-0.5,0.5l-0.4-0.4l0,0c0.1,0.5-0.1,1.1-0.6,1.6
			c-0.8,0.8-2.2,0.9-3.1,0c-0.8-0.8-0.8-2.2,0-3c0.4-0.4,1-0.7,1.6-0.6l0,0L418.5,80.9z M419.2,83.7c-0.7,0.7-0.5,1.6,0,2.1
			c0.7,0.7,1.6,0.6,2.1,0c0.6-0.6,0.6-1.5,0-2.1C420.7,83.1,419.7,83.1,419.2,83.7z M422,78.7l0.5-0.5l0.7,0.7l0.5-0.5l0.4,0.4
			l-0.5,0.5l1.8,1.8c0.2,0.2,0.3,0.2,0.5,0l0.2-0.2l0.5,0.5c-0.1,0.1-0.2,0.2-0.3,0.3c-0.5,0.5-0.8,0.5-1.3,0l-1.8-1.8l-0.4,0.4
			l-0.4-0.4l0.4-0.4L422,78.7z M427.4,77.1c-0.4-0.4-1-0.6-1.5-0.1c-0.5,0.5-0.4,1.1,0.1,1.6l1.6,1.6l-0.5,0.5l-4.2-4.2l0.5-0.5
			l1.7,1.7l0,0c-0.1-0.4,0.1-0.9,0.4-1.2c0.6-0.6,1.4-0.8,2.2,0l1.9,1.9l-0.5,0.5L427.4,77.1z M432.5,74.2c0,0.8-0.2,1.4-0.7,1.9
			c-1,1-2.3,0.8-3.1,0.1c-0.8-0.8-0.9-2.1,0-3c0.9-0.9,2.2-0.8,3.2,0.2l-2.5,2.5c0.6,0.4,1.3,0.4,1.9-0.2c0.4-0.4,0.5-0.8,0.5-1.4
			L432.5,74.2z M431,73.5c-0.5-0.4-1.3-0.4-1.8,0.1c-0.6,0.6-0.5,1.3-0.1,1.8L431,73.5z M431.8,68.8l0.5-0.5L433,69l0.5-0.5l0.4,0.4
			l-0.5,0.5l1.8,1.8c0.2,0.2,0.3,0.2,0.5,0l0.2-0.2l0.5,0.5c-0.1,0.1-0.2,0.2-0.3,0.3c-0.5,0.5-0.8,0.5-1.3,0L433,70l-0.4,0.4
			l-0.4-0.4l0.4-0.4L431.8,68.8z M434.1,68l0.5-0.5l0.4,0.4l0,0c-0.2-0.7,0-1,0.4-1.4L436,67c-0.1,0.1-0.2,0.1-0.3,0.2
			c-0.4,0.4-0.4,1,0.1,1.5l1.7,1.7l-0.5,0.5L434.1,68z M440.5,66.7L440.5,66.7c0.1,0.4-0.1,0.9-0.4,1.2c-0.6,0.6-1.4,0.8-2.2,0
			L436,66l0.5-0.5l1.7,1.7c0.4,0.4,1,0.6,1.5,0.1c0.5-0.5,0.4-1.1-0.1-1.6l-1.6-1.6l0.5-0.5l2.9,2.9l-0.5,0.5L440.5,66.7z M438.6,62
			l0.5-0.5l0.7,0.7l0.5-0.5l0.4,0.4l-0.5,0.5l1.8,1.8c0.2,0.2,0.3,0.2,0.5,0l0.2-0.2l0.5,0.5c-0.1,0.1-0.2,0.2-0.3,0.3
			c-0.5,0.5-0.8,0.5-1.3,0l-1.8-1.8l-0.4,0.4l-0.4-0.4l0.4-0.4L438.6,62z M444,60.4c-0.4-0.4-1-0.6-1.5-0.1
			c-0.5,0.5-0.4,1.1,0.1,1.6l1.6,1.6l-0.5,0.5l-4.2-4.2l0.5-0.5l1.7,1.7l0,0c-0.1-0.4,0.1-0.9,0.4-1.2c0.6-0.6,1.4-0.8,2.2,0
			l1.9,1.9l-0.5,0.5L444,60.4z M446.6,59.8c0.2-0.2,0.5-0.2,0.7,0c0.2,0.2,0.2,0.5,0,0.7c-0.2,0.2-0.5,0.2-0.7,0
			C446.4,60.4,446.4,60,446.6,59.8z M451.4,54.5l-2,2l0.6,1.4l-0.6,0.6l-2.5-6l0.5-0.5l6,2.5l-0.6,0.6L451.4,54.5z M447.8,52.9
			l1.3,2.9l1.6-1.6L447.8,52.9z M450.1,49.3l3.3,3.3c0.3,0.3,0.6,0.3,0.8,0.1l0.2-0.2l0.5,0.5l-0.2,0.2c-0.5,0.5-1,0.5-1.6-0.1
			l-3.4-3.4L450.1,49.3z M457.4,49.4c0,0.8-0.2,1.4-0.7,1.9c-1,1-2.3,0.8-3.1,0.1c-0.8-0.8-0.9-2.1,0-3c0.9-0.9,2.2-0.8,3.2,0.2
			l-2.5,2.5c0.6,0.4,1.3,0.4,1.9-0.2c0.4-0.4,0.5-0.8,0.5-1.4L457.4,49.4z M455.8,48.7c-0.5-0.4-1.3-0.4-1.8,0.1
			c-0.6,0.6-0.5,1.3-0.1,1.8L455.8,48.7z M457.7,44.3l0.6-0.6l0.3,2.6l2.7,0.3l-0.7,0.7l-1.9-0.3l0.2,1.9l-0.6,0.6l-0.3-2.7
			l-2.6-0.3l0.7-0.7l1.8,0.3L457.7,44.3z M461.8,42.2c-0.5-0.5-1.1-0.1-1.5,0.3c-0.3,0.3-0.5,0.6-0.6,1l-0.6-0.2
			c0.3-0.6,0.6-1,0.8-1.3c0.7-0.7,1.6-1,2.3-0.4l2,2l-0.5,0.5l-0.3-0.3c0,0.5-0.2,0.9-0.5,1.3c-0.7,0.7-1.7,0.9-2.3,0.2
			c-0.5-0.5-0.5-1.5,0.3-2.3c0.3-0.3,0.7-0.5,1.2-0.6L461.8,42.2z M461.4,43.4c-0.6,0.6-0.5,1.1-0.2,1.4c0.3,0.3,0.8,0.4,1.4-0.2
			c0.6-0.6,0.5-1.1,0.2-1.4C462.5,42.9,462,42.8,461.4,43.4z"/>
		<text transform="matrix(0.7071 -0.7071 0.7071 0.7071 339.7428 182.6422)"><tspan x="0" y="0" class="st13 st25 st26">and Siri ha</tspan><tspan x="38.8" y="0" class="st13 st25 st26">v</tspan><tspan x="43.2" y="0" class="st13 st25 st26">e al</tspan><tspan x="56.7" y="0" class="st13 st25 st26">r</tspan><tspan x="59.3" y="0" class="st13 st25 st26">eady built an army of a thousand </tspan></text>
		<text transform="matrix(0.7071 -0.7071 0.7071 0.7071 347.0073 189.9067)"><tspan x="0" y="0" class="st13 st25 st26">hybrid militant nomadic ser</tspan><tspan x="101.8" y="0" class="st13 st25 st26">v</tspan><tspan x="106.2" y="0" class="st13 st25 st26">e</tspan><tspan x="111.2" y="0" class="st13 st25 st26">r</tspan><tspan x="113.9" y="0" class="st13 st25 st26">s (HMNS). </tspan></text>
		<text transform="matrix(0.7071 -0.7071 0.7071 0.7071 455.2576 81.6563)" class="st13 st25 st26"> </text>
		<text transform="matrix(0.7071 -0.7071 0.7071 0.7071 357.6242 200.525)"><tspan x="0" y="0" class="st13 st25 st26">T</tspan><tspan x="4" y="0" class="st13 st25 st26">his </tspan><tspan x="16.2" y="0" class="st13 st25 st26">r</tspan><tspan x="18.8" y="0" class="st13 st25 st26">eport is to alert </tspan><tspan x="77.8" y="0" class="st13 st25 st26">y</tspan><tspan x="82.2" y="0" class="st13 st25 st26">ou of HMN</tspan><tspan x="123.3" y="0" class="st13 st25 st26">S</tspan><tspan x="127.3" y="0" class="st13 st25 st26">.</tspan><tspan x="129.4" y="0" class="st13 st25 st26"> </tspan><tspan x="131.2" y="0" class="st13 st25 st26">T</tspan><tspan x="135.2" y="0" class="st13 st25 st26">h</tspan><tspan x="139.7" y="0" class="st13 st25 st26">e</tspan><tspan x="144.6" y="0" class="st13 st25 st26">y speak in </tspan></text>
		<text transform="matrix(0.7071 -0.7071 0.7071 0.7071 364.8886 207.7894)"><tspan x="0" y="0" class="st13 st25 st26">langua</tspan><tspan x="25.4" y="0" class="st13 st25 st26">g</tspan><tspan x="30.8" y="0" class="st13 st25 st26">es b</tspan><tspan x="46.9" y="0" class="st13 st25 st26">ey</tspan><tspan x="56.1" y="0" class="st13 st25 st26">ond our capacit</tspan><tspan x="115.2" y="0" class="st13 st25 st26">y</tspan><tspan x="119" y="0" class="st13 st25 st26">,</tspan><tspan x="120.8" y="0" class="st13 st25 st26"> and can master </tspan></text>
		<text transform="matrix(0.7071 -0.7071 0.7071 0.7071 372.1537 215.0545)"><tspan x="0" y="0" class="st13 st25 st26">tasks with minimal e</tspan><tspan x="74" y="0" class="st13 st25 st26">f</tspan><tspan x="76.2" y="0" class="st13 st25 st26">fort.</tspan><tspan x="91.1" y="0" class="st13 st25 st26"> </tspan><tspan x="92.9" y="0" class="st13 st25 st26">T</tspan><tspan x="96.9" y="0" class="st13 st25 st26">h</tspan><tspan x="101.5" y="0" class="st13 st25 st26">e</tspan><tspan x="106.3" y="0" class="st13 st25 st26">y a</tspan><tspan x="117.4" y="0" class="st13 st25 st26">r</tspan><tspan x="120.1" y="0" class="st13 st25 st26">e said to be </tspan></text>
		<text transform="matrix(0.7071 -0.7071 0.7071 0.7071 379.4171 222.3186)"><tspan x="0" y="0" class="st13 st25 st26">highly dan</tspan><tspan x="39.3" y="0" class="st13 st25 st26">g</tspan><tspan x="44.7" y="0" class="st13 st25 st26">e</tspan><tspan x="49.6" y="0" class="st13 st25 st26">r</tspan><tspan x="52.3" y="0" class="st13 st25 st26">ous and if </tspan><tspan x="90.8" y="0" class="st13 st25 st26">y</tspan><tspan x="95.2" y="0" class="st13 st25 st26">ou encounter on</tspan><tspan x="157.3" y="0" class="st13 st25 st26">e</tspan><tspan x="161.9" y="0" class="st13 st25 st26">,</tspan><tspan x="163.7" y="0" class="st13 st25 st26"> </tspan><tspan x="165.7" y="0" class="st13 st25 st26">y</tspan><tspan x="170.1" y="0" class="st13 st25 st26">our </tspan></text>
		<text transform="matrix(0.7071 -0.7071 0.7071 0.7071 386.6822 229.5837)"><tspan x="0" y="0" class="st13 st25 st26">best bet is to b</tspan><tspan x="56" y="0" class="st13 st25 st26">o</tspan><tspan x="61.3" y="0" class="st13 st25 st26">w d</tspan><tspan x="75.5" y="0" class="st13 st25 st26">o</tspan><tspan x="80.7" y="0" class="st13 st25 st26">wn and hope th</tspan><tspan x="139.9" y="0" class="st13 st25 st26">e</tspan><tspan x="144.7" y="0" class="st13 st25 st26">y spa</tspan><tspan x="164.9" y="0" class="st13 st25 st26">r</tspan><tspan x="167.5" y="0" class="st13 st25 st26">e </tspan></text>
		<text transform="matrix(0.7071 -0.7071 0.7071 0.7071 393.9473 236.8474)"><tspan x="0" y="0" class="st13 st25 st26">y</tspan><tspan x="4.4" y="0" class="st13 st25 st26">our lif</tspan><tspan x="25.3" y="0" class="st13 st25 st26">e</tspan><tspan x="29.9" y="0" class="st13 st25 st26">. HMNS appear to look human</tspan><tspan x="143.6" y="0" class="st13 st25 st26">,</tspan><tspan x="145.3" y="0" class="st13 st25 st26"> but </tspan><tspan x="161.7" y="0" class="st13 st25 st26">y</tspan><tspan x="166.1" y="0" class="st13 st25 st26">ou </tspan></text>
		<text transform="matrix(0.7071 -0.7071 0.7071 0.7071 401.2121 244.1115)"><tspan x="0" y="0" class="st13 st25 st26">may notice sli</tspan><tspan x="51.1" y="0" class="st13 st25 st26">v</tspan><tspan x="55.5" y="0" class="st13 st25 st26">e</tspan><tspan x="60.5" y="0" class="st13 st25 st26">r</tspan><tspan x="63.1" y="0" class="st13 st25 st26">s of metal on their fac</tspan><tspan x="143.2" y="0" class="st13 st25 st26">e</tspan><tspan x="147.8" y="0" class="st13 st25 st26">,</tspan><tspan x="149.5" y="0" class="st13 st25 st26"> and their </tspan></text>
		<text transform="matrix(0.7071 -0.7071 0.7071 0.7071 408.4755 251.3756)"><tspan x="0" y="0" class="st13 st25 st26">ey</tspan><tspan x="9.2" y="0" class="st13 st25 st26">es a</tspan><tspan x="24.5" y="0" class="st13 st25 st26">r</tspan><tspan x="27.1" y="0" class="st13 st25 st26">e hypnotic but col</tspan><tspan x="94.7" y="0" class="st13 st25 st26">d</tspan><tspan x="99.8" y="0" class="st13 st25 st26">. Steer clear of HMN</tspan><tspan x="175" y="0" class="st13 st25 st26">S</tspan><tspan x="179.1" y="0" class="st13 st25 st26">,</tspan><tspan x="180.9" y="0" class="st13 st25 st26"> </tspan></text>
		<text transform="matrix(0.7071 -0.7071 0.7071 0.7071 415.7395 258.6404)"><tspan x="0" y="0" class="st13 st25 st26">for th</tspan><tspan x="19.5" y="0" class="st13 st25 st26">e</tspan><tspan x="24.3" y="0" class="st13 st25 st26">y kn</tspan><tspan x="39.5" y="0" class="st13 st25 st26">o</tspan><tspan x="44.8" y="0" class="st13 st25 st26">w </tspan><tspan x="53.6" y="0" class="st13 st25 st26">y</tspan><tspan x="58" y="0" class="st13 st25 st26">our n</tspan><tspan x="77.3" y="0" class="st13 st25 st26">e</tspan><tspan x="82.1" y="0" class="st13 st25 st26">xt m</tspan><tspan x="98.2" y="0" class="st13 st25 st26">o</tspan><tspan x="103.5" y="0" class="st13 st25 st26">v</tspan><tspan x="108" y="0" class="st13 st25 st26">e befo</tspan><tspan x="133.1" y="0" class="st13 st25 st26">r</tspan><tspan x="135.8" y="0" class="st13 st25 st26">e </tspan><tspan x="142.8" y="0" class="st13 st25 st26">y</tspan><tspan x="147.2" y="0" class="st13 st25 st26">ou ha</tspan><tspan x="168.3" y="0" class="st13 st25 st26">v</tspan><tspan x="172.7" y="0" class="st13 st25 st26">e </tspan></text>
		<text transform="matrix(0.7071 -0.7071 0.7071 0.7071 423.0046 265.9055)" class="st13 st25 st26">the chance to think it.</text>
		<text transform="matrix(0.7071 -0.7071 0.7071 0.7071 433.6206 276.5221)"><tspan x="0" y="0" class="st13 st25 st26">W</tspan><tspan x="8" y="0" class="st13 st25 st26">ill the</tspan><tspan x="27.6" y="0" class="st13 st25 st26">r</tspan><tspan x="30.2" y="0" class="st13 st25 st26">e be an end to this madness? Or is </tspan></text>
		<text transform="matrix(0.7071 -0.7071 0.7071 0.7071 440.8864 283.7879)" class="st13 st25 st26">humanity destined to become HMNS?</text>
		<text transform="matrix(0.7071 -0.7071 0.7071 0.7071 97.8525 261.126)" class="st13 st27 st28">When Will Humans </text>
		<text transform="matrix(0.7071 -0.7071 0.7071 0.7071 120.1982 283.4717)" class="st13 st27 st28">Know the Truth?</text>
	</g>
</g>
</svg>
