<?xml version="1.0" encoding="utf-8"?>
<!-- Generator: Adobe Illustrator 21.0.0, SVG Export Plug-In . SVG Version: 6.00 Build 0)  -->
<svg version="1.1" id="Layer_1" xmlns="http://www.w3.org/2000/svg" xmlns:xlink="http://www.w3.org/1999/xlink" x="0px" y="0px"
	 viewBox="0 0 612 792" style="enable-background:new 0 0 612 792;" xml:space="preserve">
<style type="text/css">
	.st0{fill:url(#SVGID_1_);}
	.st1{fill:#FFFFFF;}
	.st2{font-family:'DINNeuzeitGroteskStd-Light';}
	.st3{font-size:10px;}
	.st4{clip-path:url(#SVGID_3_);}
	.st5{clip-path:url(#SVGID_5_);fill:url(#SVGID_6_);}
	.st6{clip-path:url(#SVGID_8_);fill:none;stroke:#FFFFFF;stroke-width:2.473;stroke-miterlimit:10;}
	.st7{clip-path:url(#SVGID_11_);}
	.st8{clip-path:url(#SVGID_12_);fill:none;stroke:#FFFFFF;stroke-width:2.473;stroke-miterlimit:10;}
	.st9{clip-path:url(#SVGID_12_);fill:none;stroke:#000000;stroke-width:0.824;stroke-miterlimit:10;}
	.st10{fill:none;stroke:#FFFFFF;stroke-width:2.473;stroke-miterlimit:10;}
	.st11{clip-path:url(#SVGID_14_);fill:none;stroke:#FFFFFF;stroke-width:2.473;stroke-miterlimit:10;}
	.st12{clip-path:url(#SVGID_16_);fill:none;stroke:#FFFFFF;stroke-width:2.473;stroke-miterlimit:10;}
	.st13{clip-path:url(#SVGID_18_);fill:none;stroke:#FFFFFF;stroke-width:2.473;stroke-miterlimit:10;}
	.st14{font-size:8.7231px;}
	.st15{font-family:'Krungthep';}
	.st16{font-size:26.1694px;}
</style>
<linearGradient id="SVGID_1_" gradientUnits="userSpaceOnUse" x1="298.3047" y1="792" x2="298.3047" y2="0" gradientTransform="matrix(1 0 0 -1 0 792)">
	<stop  offset="0" style="stop-color:#1A1A1A"/>
	<stop  offset="1" style="stop-color:#000000"/>
</linearGradient>
<rect x="31.9" class="st0" width="532.9" height="792"/>
<text transform="matrix(1 0 0 1 540.9508 181.471)" class="st1 st2 st3"> </text>
<g>
	<defs>
		<rect id="SVGID_2_" x="31.9" y="45.4" width="532.9" height="620.9"/>
	</defs>
	<clipPath id="SVGID_3_">
		<use xlink:href="#SVGID_2_"  style="overflow:visible;"/>
	</clipPath>
	<g class="st4">
		<g>
			<g>
				<defs>
					
						<rect id="SVGID_4_" x="-304.5" y="93.7" transform="matrix(0.7071 -0.7071 0.7071 0.7071 -227.4429 203.9735)" width="874.1" height="565.6"/>
				</defs>
				<clipPath id="SVGID_5_">
					<use xlink:href="#SVGID_4_"  style="overflow:visible;"/>
				</clipPath>
				
					<linearGradient id="SVGID_6_" gradientUnits="userSpaceOnUse" x1="0.7835" y1="-0.7706" x2="1.6558" y2="-0.7706" gradientTransform="matrix(713.3826 -713.3826 713.3826 713.3826 -35.855 1644.4575)">
					<stop  offset="0" style="stop-color:#757679"/>
					<stop  offset="7.338065e-02" style="stop-color:#646567"/>
					<stop  offset="0.1774" style="stop-color:#4F5052"/>
					<stop  offset="0.2962" style="stop-color:#3D3C3E"/>
					<stop  offset="0.4366" style="stop-color:#212122"/>
					<stop  offset="0.6192" style="stop-color:#090909"/>
					<stop  offset="1" style="stop-color:#000000"/>
				</linearGradient>
				<polygon class="st5" points="-376.5,485.6 241.6,-132.5 641.6,267.4 23.5,885.6 				"/>
			</g>
			<polygon points="499.4,125.3 327.1,125.3 55,125.3 55,125.3 -345.3,525.7 21.7,892.7 599.3,315.2 599.3,225.1 			"/>
			<g>
				<g>
					<defs>
						
							<rect id="SVGID_7_" x="-308.5" y="95.4" transform="matrix(0.7071 -0.7071 0.7071 0.7071 -230.2146 204.4688)" width="880.4" height="569.4"/>
					</defs>
					<clipPath id="SVGID_8_">
						<use xlink:href="#SVGID_7_"  style="overflow:visible;"/>
					</clipPath>
					<polygon class="st6" points="599.3,669.7 599.3,125.3 327.1,125.3 55,125.3 -886.8,1067 -342.4,1611.3 					"/>
				</g>
				<polygon points="499.4,125.3 57.5,125.3 57.5,667.1 247.3,667.1 599.3,315.2 599.3,225.1 				"/>
				<g>
					<g>
						<defs>
							
								<rect id="SVGID_9_" x="-308.5" y="95.4" transform="matrix(0.7071 -0.7071 0.7071 0.7071 -230.2146 204.4688)" width="880.4" height="569.4"/>
						</defs>
						<defs>
							<rect id="SVGID_10_" x="-165.7" y="-68.2" width="569.4" height="880.4"/>
						</defs>
						<clipPath id="SVGID_11_">
							<use xlink:href="#SVGID_9_"  style="overflow:visible;"/>
						</clipPath>
						<clipPath id="SVGID_12_" class="st7">
							<use xlink:href="#SVGID_10_"  style="overflow:visible;"/>
						</clipPath>
						<rect x="57.5" y="125.3" class="st8" width="541.8" height="541.8"/>
						
							<rect x="-350.4" y="106.7" transform="matrix(0.7071 -0.7071 0.7071 0.7071 -242.9039 196.3902)" class="st9" width="932" height="569.4"/>
					</g>
					<polygon points="83.5,343.8 24.3,343.8 -69.3,437.4 -76.3,444.4 -186.1,554.2 -126.8,613.4 -17.1,503.7 -10.1,496.6 83.5,403 
											"/>
					<polygon class="st10" points="83.5,343.8 24.3,343.8 -69.3,437.4 -76.3,444.4 -186.1,554.2 -126.8,613.4 -17.1,503.7 
						-10.1,496.6 83.5,403 					"/>
					<rect x="24.3" y="343.8" width="59.2" height="59.2"/>
					<rect x="24.3" y="343.8" class="st10" width="59.2" height="59.2"/>
					<polygon points="68.8,213.7 2.9,213.7 -108.9,325.5 -43.1,391.4 68.8,279.6 					"/>
					<polygon class="st10" points="68.8,213.7 2.9,213.7 -108.9,325.5 -43.1,391.4 68.8,279.6 					"/>
					<rect x="2.9" y="213.7" width="65.9" height="65.9"/>
					<rect x="2.9" y="213.7" class="st10" width="65.9" height="65.9"/>
					<polygon points="134.3,712.6 59.9,786.9 54.4,792.5 -12,859 21.7,892.7 181.3,733.2 181.3,712.6 					"/>
					<g>
						<g>
							<defs>
								
									<rect id="SVGID_13_" x="-308.5" y="95.4" transform="matrix(0.7071 -0.7071 0.7071 0.7071 -230.2146 204.4688)" width="880.4" height="569.4"/>
							</defs>
							<clipPath id="SVGID_14_">
								<use xlink:href="#SVGID_13_"  style="overflow:visible;"/>
							</clipPath>
							<polygon class="st11" points="181.3,712.6 134.3,712.6 59.9,786.9 54.4,792.5 -32.9,879.7 14.2,926.7 101.4,839.6 107,834 
								181.3,759.7 							"/>
						</g>
						<polygon points="134.3,712.6 134.3,759.7 154.8,759.7 181.3,733.2 181.3,712.6 						"/>
						<g>
							<g>
								<defs>
									
										<rect id="SVGID_15_" x="-308.5" y="95.4" transform="matrix(0.7071 -0.7071 0.7071 0.7071 -230.2146 204.4688)" width="880.4" height="569.4"/>
								</defs>
								<clipPath id="SVGID_16_">
									<use xlink:href="#SVGID_15_"  style="overflow:visible;"/>
								</clipPath>
								<rect x="134.3" y="712.6" class="st12" width="47" height="47"/>
							</g>
							<polygon points="31.8,719.7 -59.8,811.2 11.7,882.7 103.2,791.2 103.2,719.7 							"/>
							<g>
								<g>
									<defs>
										
											<rect id="SVGID_17_" x="-308.5" y="95.4" transform="matrix(0.7071 -0.7071 0.7071 0.7071 -230.2146 204.4688)" width="880.4" height="569.4"/>
									</defs>
									<clipPath id="SVGID_18_">
										<use xlink:href="#SVGID_17_"  style="overflow:visible;"/>
									</clipPath>
									<polygon class="st13" points="103.2,719.7 31.8,719.7 -81.2,832.6 -89.7,841.2 -222.2,973.7 -150.7,1045.2 -18.2,912.7 
										-9.8,904.1 103.2,791.2 									"/>
								</g>
								<rect x="31.8" y="719.7" width="71.5" height="71.5"/>
								<rect x="31.8" y="719.7" class="st10" width="71.5" height="71.5"/>
								<polygon class="st1" points="10.2,279.5 10.2,213.7 13.5,213.7 54,250.3 54,213.7 61.3,213.7 61.3,279.5 58,279.5 17.6,243 
									17.6,279.5 								"/>
								<text transform="matrix(1 0 0 1 97.1606 169.9712)" class="st1 st2 st14">Siri and</text>
								<text transform="matrix(1 0 0 1 127.6914 169.9712)" class="st1 st2 st14"> </text>
								<text transform="matrix(1 0 0 1 129.6108 169.9712)" class="st1 st2 st14">Al</text>
								<text transform="matrix(1 0 0 1 138.1597 169.9712)" class="st1 st2 st14">e</text>
								<text transform="matrix(1 0 0 1 143.481 169.9712)" class="st1 st2 st14">xa seemed harmless when th</text>
								<text transform="matrix(1 0 0 1 264.209 169.9712)" class="st1 st2 st14">e</text>
								<text transform="matrix(1 0 0 1 269.5303 169.9712)" class="st1 st2 st14">y made </text>
								<text transform="matrix(1 0 0 1 97.1606 181.311)" class="st1 st2 st14">their debut. Humans ha</text>
								<text transform="matrix(1 0 0 1 192.9409 181.311)" class="st1 st2 st14">v</text>
								<text transform="matrix(1 0 0 1 197.8262 181.311)" class="st1 st2 st14">e become so dependent </text>
								<text transform="matrix(1 0 0 1 97.1606 192.6509)" class="st1 st2 st14">on technolo</text>
								<text transform="matrix(1 0 0 1 147.0571 192.6509)" class="st1 st2 st14">g</text>
								<text transform="matrix(1 0 0 1 152.9019 192.6509)" class="st1 st2 st14">y doing a majority of their </text>
								<text transform="matrix(1 0 0 1 262.0283 192.6509)" class="st1 st2 st14">r</text>
								<text transform="matrix(1 0 0 1 264.9941 192.6509)" class="st1 st2 st14">outine </text>
								<text transform="matrix(1 0 0 1 97.1606 203.9917)" class="st1 st2 st14">tasks</text>
								<text transform="matrix(1 0 0 1 117.3115 203.9917)" class="st1 st2 st14">,</text>
								<text transform="matrix(1 0 0 1 119.3179 203.9917)" class="st1 st2 st14"> but mankind is in for a rude a</text>
								<text transform="matrix(1 0 0 1 240.918 203.9917)" class="st1 st2 st14">w</text>
								<text transform="matrix(1 0 0 1 248.2456 203.9917)" class="st1 st2 st14">a</text>
								<text transform="matrix(1 0 0 1 253.3052 203.9917)" class="st1 st2 st14">k</text>
								<text transform="matrix(1 0 0 1 257.6665 203.9917)" class="st1 st2 st14">enin</text>
								<text transform="matrix(1 0 0 1 275.2871 203.9917)" class="st1 st2 st14">g</text>
								<text transform="matrix(1 0 0 1 280.8701 203.9917)" class="st1 st2 st14">. </text>
								<text transform="matrix(1 0 0 1 97.1611 215.332)" class="st1 st2 st14">Al</text>
								<text transform="matrix(1 0 0 1 105.7095 215.332)" class="st1 st2 st14">e</text>
								<text transform="matrix(1 0 0 1 111.0308 215.332)" class="st1 st2 st14">xa</text>
								<text transform="matrix(1 0 0 1 121.0625 215.332)" class="st1 st2 st14">,</text>
								<text transform="matrix(1 0 0 1 122.9819 215.332)" class="st1 st2 st14"> Siri</text>
								<text transform="matrix(1 0 0 1 137.5493 215.332)" class="st1 st2 st14">,</text>
								<text transform="matrix(1 0 0 1 139.4683 215.332)" class="st1 st2 st14"> and countless other d</text>
								<text transform="matrix(1 0 0 1 231.4102 215.332)" class="st1 st2 st14">e</text>
								<text transform="matrix(1 0 0 1 236.7314 215.332)" class="st1 st2 st14">vices ha</text>
								<text transform="matrix(1 0 0 1 270.1411 215.332)" class="st1 st2 st14">v</text>
								<text transform="matrix(1 0 0 1 275.1128 215.332)" class="st1 st2 st14">e </text>
								<text transform="matrix(1 0 0 1 97.1611 226.6714)" class="st1 st2 st14">n</text>
								<text transform="matrix(1 0 0 1 102.1333 226.6714)" class="st1 st2 st14">o</text>
								<text transform="matrix(1 0 0 1 107.9775 226.6714)" class="st1 st2 st14">w encrypted </text>
								<text transform="matrix(1 0 0 1 163.1079 226.6714)" class="st1 st2 st14">r</text>
								<text transform="matrix(1 0 0 1 165.9868 226.6714)" class="st1 st2 st14">obots with uniqu</text>
								<text transform="matrix(1 0 0 1 235.2485 226.6714)" class="st1 st2 st14">e</text>
								<text transform="matrix(1 0 0 1 240.3076 226.6714)" class="st1 st2 st14">,</text>
								<text transform="matrix(1 0 0 1 242.2271 226.6714)" class="st1 st2 st14"> top sec</text>
								<text transform="matrix(1 0 0 1 275.3745 226.6714)" class="st1 st2 st14">r</text>
								<text transform="matrix(1 0 0 1 278.2534 226.6714)" class="st1 st2 st14">et </text>
								<text transform="matrix(1 0 0 1 97.1611 238.0117)" class="st1 st2 st14">intelli</text>
								<text transform="matrix(1 0 0 1 118.6196 238.0117)" class="st1 st2 st14">g</text>
								<text transform="matrix(1 0 0 1 124.4644 238.0117)" class="st1 st2 st14">ence that is lethal for the </text>
								<text transform="matrix(1 0 0 1 226.9609 238.0117)" class="st1 st2 st14">w</text>
								<text transform="matrix(1 0 0 1 234.2017 238.0117)" class="st1 st2 st14">orld as </text>
								<text transform="matrix(1 0 0 1 264.9067 238.0117)" class="st1 st2 st14">w</text>
								<text transform="matrix(1 0 0 1 272.147 238.0117)" class="st1 st2 st14">e kn</text>
								<text transform="matrix(1 0 0 1 289.4189 238.0117)" class="st1 st2 st14">o</text>
								<text transform="matrix(1 0 0 1 295.2632 238.0117)" class="st1 st2 st14">w </text>
								<text transform="matrix(1 0 0 1 97.1611 249.3516)" class="st1 st2 st14">it. Our fear of technolo</text>
								<text transform="matrix(1 0 0 1 190.4985 249.3516)" class="st1 st2 st14">g</text>
								<text transform="matrix(1 0 0 1 196.3428 249.3516)" class="st1 st2 st14">y outsmarting mankind </text>
								<text transform="matrix(1 0 0 1 97.1611 260.6919)" class="st1 st2 st14">has arri</text>
								<text transform="matrix(1 0 0 1 126.7324 260.6919)" class="st1 st2 st14">v</text>
								<text transform="matrix(1 0 0 1 131.6172 260.6919)" class="st1 st2 st14">e</text>
								<text transform="matrix(1 0 0 1 137.1128 260.6919)" class="st1 st2 st14">d</text>
								<text transform="matrix(1 0 0 1 142.7827 260.6919)" class="st1 st2 st14">.</text>
								<text transform="matrix(1 0 0 1 145.0508 260.6919)" class="st1 st2 st14"> </text>
								<text transform="matrix(1 0 0 1 146.9702 260.6919)" class="st1 st2 st14">T</text>
								<text transform="matrix(1 0 0 1 151.4189 260.6919)" class="st1 st2 st14">he </text>
								<text transform="matrix(1 0 0 1 164.2417 260.6919)" class="st1 st2 st14">y</text>
								<text transform="matrix(1 0 0 1 169.0396 260.6919)" class="st1 st2 st14">ear is 2050 and </text>
								<text transform="matrix(1 0 0 1 231.9336 260.6919)" class="st1 st2 st14">r</text>
								<text transform="matrix(1 0 0 1 234.8994 260.6919)" class="st1 st2 st14">obots a</text>
								<text transform="matrix(1 0 0 1 266.6514 260.6919)" class="st1 st2 st14">r</text>
								<text transform="matrix(1 0 0 1 269.6177 260.6919)" class="st1 st2 st14">e about </text>
								<text transform="matrix(1 0 0 1 97.1606 272.0317)" class="st1 st2 st14">to ta</text>
								<text transform="matrix(1 0 0 1 115.5659 272.0317)" class="st1 st2 st14">k</text>
								<text transform="matrix(1 0 0 1 120.0151 272.0317)" class="st1 st2 st14">e cha</text>
								<text transform="matrix(1 0 0 1 142.3467 272.0317)" class="st1 st2 st14">r</text>
								<text transform="matrix(1 0 0 1 145.2251 272.0317)" class="st1 st2 st14">g</text>
								<text transform="matrix(1 0 0 1 151.1567 272.0317)" class="st1 st2 st14">e once and for all.</text>
								<text transform="matrix(1 0 0 1 97.1606 288.606)" class="st1 st2 st14">What started o</text>
								<text transform="matrix(1 0 0 1 157.8735 288.606)" class="st1 st2 st14">f</text>
								<text transform="matrix(1 0 0 1 160.3159 288.606)" class="st1 st2 st14">f as</text>
								<text transform="matrix(1 0 0 1 174.186 288.606)" class="st1 st2 st14"> </text>
								<text transform="matrix(1 0 0 1 176.1055 288.606)" class="st1 st2 st14">“inn</text>
								<text transform="matrix(1 0 0 1 192.7661 288.606)" class="st1 st2 st14">ov</text>
								<text transform="matrix(1 0 0 1 203.4956 288.606)" class="st1 st2 st14">ati</text>
								<text transform="matrix(1 0 0 1 213.1782 288.606)" class="st1 st2 st14">v</text>
								<text transform="matrix(1 0 0 1 218.0635 288.606)" class="st1 st2 st14">e</text>
								<text transform="matrix(1 0 0 1 223.5586 288.606)" class="st1 st2 st14">”</text>
								<text transform="matrix(1 0 0 1 227.833 288.606)" class="st1 st2 st14"> is n</text>
								<text transform="matrix(1 0 0 1 243.4478 288.606)" class="st1 st2 st14">o</text>
								<text transform="matrix(1 0 0 1 249.2925 288.606)" class="st1 st2 st14">w </text>
								<text transform="matrix(1 0 0 1 97.1606 299.9468)" class="st1 st2 st14">th</text>
								<text transform="matrix(1 0 0 1 104.75 299.9468)" class="st1 st2 st14">r</text>
								<text transform="matrix(1 0 0 1 107.6284 299.9468)" class="st1 st2 st14">eatening mankin</text>
								<text transform="matrix(1 0 0 1 176.1055 299.9468)" class="st1 st2 st14">d</text>
								<text transform="matrix(1 0 0 1 181.9492 299.9468)" class="st1 st2 st14">,</text>
								<text transform="matrix(1 0 0 1 183.8687 299.9468)" class="st1 st2 st14"> for </text>
								<text transform="matrix(1 0 0 1 200.0938 299.9468)" class="st1 st2 st14">w</text>
								<text transform="matrix(1 0 0 1 207.334 299.9468)" class="st1 st2 st14">e a</text>
								<text transform="matrix(1 0 0 1 220.0698 299.9468)" class="st1 st2 st14">r</text>
								<text transform="matrix(1 0 0 1 223.0352 299.9468)" class="st1 st2 st14">e incapable of </text>
								<text transform="matrix(1 0 0 1 97.1602 311.2871)" class="st1 st2 st14">surpassing technological thinkin</text>
								<text transform="matrix(1 0 0 1 228.6177 311.2871)" class="st1 st2 st14">g</text>
								<text transform="matrix(1 0 0 1 234.1138 311.2871)" class="st1 st2 st14">.</text>
								<text transform="matrix(1 0 0 1 236.3818 311.2871)" class="st1 st2 st14"> </text>
								<text transform="matrix(1 0 0 1 238.3008 311.2871)" class="st1 st2 st14">T</text>
								<text transform="matrix(1 0 0 1 242.75 311.2871)" class="st1 st2 st14">he epidemic </text>
								<text transform="matrix(1 0 0 1 97.1602 322.627)" class="st1 st2 st14">started o</text>
								<text transform="matrix(1 0 0 1 134.1465 322.627)" class="st1 st2 st14">f</text>
								<text transform="matrix(1 0 0 1 136.5889 322.627)" class="st1 st2 st14">f in the outskirts of Queens</text>
								<text transform="matrix(1 0 0 1 246.064 322.627)" class="st1 st2 st14">,</text>
								<text transform="matrix(1 0 0 1 247.9834 322.627)" class="st1 st2 st14"> the bo</text>
								<text transform="matrix(1 0 0 1 277.5547 322.627)" class="st1 st2 st14">r</text>
								<text transform="matrix(1 0 0 1 280.521 322.627)" class="st1 st2 st14">ough </text>
								<text transform="matrix(1 0 0 1 97.1606 333.9673)" class="st1 st2 st14">that </text>
								<text transform="matrix(1 0 0 1 114.6069 333.9673)" class="st1 st2 st14">r</text>
								<text transform="matrix(1 0 0 1 117.4854 333.9673)" class="st1 st2 st14">ecei</text>
								<text transform="matrix(1 0 0 1 135.1064 333.9673)" class="st1 st2 st14">v</text>
								<text transform="matrix(1 0 0 1 140.0786 333.9673)" class="st1 st2 st14">es as much l</text>
								<text transform="matrix(1 0 0 1 189.9751 333.9673)" class="st1 st2 st14">o</text>
								<text transform="matrix(1 0 0 1 195.8198 333.9673)" class="st1 st2 st14">v</text>
								<text transform="matrix(1 0 0 1 200.7046 333.9673)" class="st1 st2 st14">e as Staten Islan</text>
								<text transform="matrix(1 0 0 1 265.9536 333.9673)" class="st1 st2 st14">d</text>
								<text transform="matrix(1 0 0 1 271.6235 333.9673)" class="st1 st2 st14">.</text>
								<text transform="matrix(1 0 0 1 273.8916 333.9673)" class="st1 st2 st14"> </text>
								<text transform="matrix(1 0 0 1 275.8105 333.9673)" class="st1 st2 st14">A man </text>
								<text transform="matrix(1 0 0 1 97.1606 345.3076)" class="st1 st2 st14">w</text>
								<text transform="matrix(1 0 0 1 104.4883 345.3076)" class="st1 st2 st14">as asking</text>
								<text transform="matrix(1 0 0 1 142.4341 345.3076)" class="st1 st2 st14"> </text>
								<text transform="matrix(1 0 0 1 144.4399 345.3076)" class="st1 st2 st14">Al</text>
								<text transform="matrix(1 0 0 1 152.9888 345.3076)" class="st1 st2 st14">e</text>
								<text transform="matrix(1 0 0 1 158.3096 345.3076)" class="st1 st2 st14">xa to play a son</text>
								<text transform="matrix(1 0 0 1 223.9951 345.3076)" class="st1 st2 st14">g</text>
								<text transform="matrix(1 0 0 1 229.5781 345.3076)" class="st1 st2 st14">,</text>
								<text transform="matrix(1 0 0 1 231.4971 345.3076)" class="st1 st2 st14"> when</text>
								<text transform="matrix(1 0 0 1 256.707 345.3076)" class="st1 st2 st14"> </text>
								<text transform="matrix(1 0 0 1 258.7134 345.3076)" class="st1 st2 st14">Al</text>
								<text transform="matrix(1 0 0 1 267.2622 345.3076)" class="st1 st2 st14">e</text>
								<text transform="matrix(1 0 0 1 272.5835 345.3076)" class="st1 st2 st14">xa </text>
								<text transform="matrix(1 0 0 1 97.1606 356.6475)" class="st1 st2 st14">short-ci</text>
								<text transform="matrix(1 0 0 1 126.9937 356.6475)" class="st1 st2 st14">r</text>
								<text transform="matrix(1 0 0 1 129.96 356.6475)" class="st1 st2 st14">cuite</text>
								<text transform="matrix(1 0 0 1 149.6743 356.6475)" class="st1 st2 st14">d</text>
								<text transform="matrix(1 0 0 1 155.2568 356.6475)" class="st1 st2 st14">.</text>
								<text transform="matrix(1 0 0 1 157.5249 356.6475)" class="st1 st2 st14"> </text>
								<text transform="matrix(1 0 0 1 159.5312 356.6475)" class="st1 st2 st14">T</text>
								<text transform="matrix(1 0 0 1 163.98 356.6475)" class="st1 st2 st14">he man </text>
								<text transform="matrix(1 0 0 1 196.8662 356.6475)" class="st1 st2 st14">w</text>
								<text transform="matrix(1 0 0 1 204.1934 356.6475)" class="st1 st2 st14">or</text>
								<text transform="matrix(1 0 0 1 213.1782 356.6475)" class="st1 st2 st14">k</text>
								<text transform="matrix(1 0 0 1 217.627 356.6475)" class="st1 st2 st14">ed in engineering </text>
								<path class="st1" d="M100.8,365c0-0.8-0.8-0.9-1.4-0.9c-0.4,0-0.8,0.1-1.2,0.3l-0.3-0.6c0.7-0.3,1.2-0.3,1.7-0.3
									c1,0,2.1,0.4,2.1,1.6v3.1h-0.7v-0.5c-0.4,0.4-0.9,0.6-1.5,0.6c-1.1,0-2-0.6-2-1.7c0-0.8,0.7-1.6,2-1.6c0.4,0,1,0.2,1.4,0.5
									V365z M99.5,365.6c-1,0-1.3,0.4-1.3,0.9s0.3,0.9,1.3,0.9s1.3-0.4,1.3-0.9S100.5,365.6,99.5,365.6z M105.7,365.3
									c0-0.7-0.3-1.3-1-1.3c-0.7,0-1.1,0.5-1.1,1.4v2.5h-0.8v-4.5h0.8v0.5l0,0c0.3-0.4,0.7-0.6,1.2-0.6c0.9,0,1.7,0.4,1.7,1.7v3
									h-0.8V365.3z M111.7,361.4h0.8v6.6h-0.8v-0.7l0,0c-0.3,0.4-0.9,0.8-1.7,0.8c-1.2,0-2.4-1-2.4-2.4c0-1.3,1-2.4,2.4-2.4
									c0.7,0,1.3,0.3,1.7,0.8l0,0L111.7,361.4z M110.1,364.1c-1,0-1.7,0.9-1.7,1.6c0,1,0.8,1.7,1.7,1.7s1.7-0.7,1.7-1.7
									C111.7,364.8,111,364.1,110.1,364.1z M116.2,362.4h0.8v1.1h0.7v0.7H117v2.8c0,0.3,0.1,0.3,0.3,0.3h0.3v0.7
									c-0.1,0-0.3,0-0.4,0c-0.8,0-1-0.3-1-1v-2.9h-0.6v-0.7h0.6C116.2,363.5,116.2,362.4,116.2,362.4z M121.6,365.3
									c0-0.7-0.3-1.3-1-1.3c-0.7,0-1.1,0.5-1.1,1.4v2.5h-0.8v-6.6h0.8v2.6l0,0c0.3-0.4,0.7-0.6,1.2-0.6c0.9,0,1.7,0.4,1.7,1.7v3
									h-0.8V365.3z M126,363.3c1.4,0,2.4,1.1,2.4,2.4c0,1.3-1,2.4-2.4,2.4c-1.5,0-2.4-1-2.4-2.4
									C123.5,364.4,124.6,363.3,126,363.3z M124.3,365.8c0,0.9,0.8,1.7,1.7,1.7s1.7-0.8,1.7-1.7c0-1-0.8-1.7-1.7-1.7
									S124.3,364.8,124.3,365.8z M132.6,367.4L132.6,367.4c-0.3,0.4-0.8,0.6-1.2,0.6c-0.9,0-1.7-0.4-1.7-1.7v-3h0.8v2.6
									c0,0.7,0.3,1.3,1,1.3c0.7,0,1.1-0.5,1.1-1.4v-2.5h0.8v4.5h-0.8V367.4z M138.5,363.5h0.8v3.9c0,1.7-0.8,2.5-2.5,2.5
									c-0.8,0-1.5-0.3-2.1-1l0.6-0.5c0.4,0.6,1,0.8,1.5,0.8c1.2,0,1.7-0.6,1.7-1.7v-0.3l0,0c-0.4,0.5-0.9,0.8-1.7,0.8
									c-1.5,0-2.4-1.3-2.4-2.4c0-1.3,1-2.4,2.4-2.4c0.7,0,1.3,0.3,1.7,0.8l0,0C138.5,364.1,138.5,363.5,138.5,363.5z M136.8,364.1
									c-1,0-1.7,0.9-1.7,1.6c0,1,0.8,1.7,1.7,1.7s1.7-0.7,1.7-1.7C138.5,364.8,137.7,364.1,136.8,364.1z M143.6,365.3
									c0-0.7-0.3-1.3-1-1.3c-0.7,0-1.1,0.5-1.1,1.4v2.5h-0.8v-6.6h0.8v2.6l0,0c0.3-0.4,0.7-0.6,1.2-0.6c0.9,0,1.7,0.4,1.7,1.7v3
									h-0.8V365.3z M145.8,362.4h0.8v1.1h0.7v0.7h-0.7v2.8c0,0.3,0.1,0.3,0.3,0.3h0.3v0.7c-0.1,0-0.3,0-0.4,0c-0.8,0-1-0.3-1-1
									v-2.9h-0.6v-0.7h0.6L145.8,362.4z M153.5,365.3c0-0.7-0.3-1.3-1-1.3c-0.7,0-1.1,0.5-1.1,1.4v2.5h-0.8v-6.6h0.8v2.6l0,0
									c0.3-0.4,0.7-0.6,1.2-0.6c0.9,0,1.7,0.4,1.7,1.7v3h-0.8V365.3z M159.7,367.1c-0.6,0.7-1.2,1-2,1c-1.6,0-2.4-1.1-2.4-2.4
									c0-1.3,1-2.4,2.4-2.4c1.4,0,2.4,1,2.4,2.7h-3.9c0.1,0.8,0.8,1.3,1.7,1.3c0.5,0,1-0.3,1.5-0.7L159.7,367.1z M159,365.4
									c-0.1-0.8-0.7-1.3-1.5-1.3c-1,0-1.4,0.7-1.5,1.3H159z M166.4,364.5c-0.3-0.3-0.7-0.4-1-0.4c-0.8,0-1.5,0.5-1.5,1.7
									c0,1,0.7,1.6,1.6,1.6c0.3,0,0.7-0.2,1-0.4l0.4,0.6c-0.4,0.4-1,0.6-1.6,0.6c-1.4,0-2.4-1.1-2.4-2.4c0-1.3,1-2.4,2.4-2.4
									c0.7,0,1.3,0.3,1.6,0.5L166.4,364.5z M170.1,363.3c1.4,0,2.4,1.1,2.4,2.4c0,1.3-1,2.4-2.4,2.4c-1.5,0-2.4-1-2.4-2.4
									C167.6,364.4,168.6,363.3,170.1,363.3z M168.5,365.8c0,0.9,0.8,1.7,1.7,1.7s1.7-0.8,1.7-1.7c0-1-0.8-1.7-1.7-1.7
									S168.5,364.8,168.5,365.8z M176.7,367.4L176.7,367.4c-0.3,0.4-0.8,0.6-1.2,0.6c-0.9,0-1.7-0.4-1.7-1.7v-3h0.8v2.6
									c0,0.7,0.3,1.3,1,1.3c0.7,0,1.1-0.5,1.1-1.4v-2.5h0.8v4.5h-0.8V367.4z M179.4,361.4v5.2c0,0.5,0.3,0.7,0.5,0.7h0.3v0.7h-0.3
									c-0.7,0-1.2-0.4-1.2-1.4v-5.2L179.4,361.4L179.4,361.4z M184.7,361.4h0.8v6.6h-0.8v-0.7l0,0c-0.3,0.4-0.9,0.8-1.7,0.8
									c-1.2,0-2.4-1-2.4-2.4c0-1.3,1-2.4,2.4-2.4c0.7,0,1.3,0.3,1.7,0.8l0,0L184.7,361.4z M183.1,364.1c-1,0-1.7,0.9-1.7,1.6
									c0,1,0.8,1.7,1.7,1.7s1.7-0.7,1.7-1.7C184.7,364.8,183.9,364.1,183.1,364.1z M189.2,362.8c0-1,0.6-1.4,1.6-1.5v0.8h-0.2
									c-0.4,0-0.6,0.3-0.6,0.7v0.6h0.7v0.7H190v3.8h-0.8v-3.8h-0.7v-0.7h0.7L189.2,362.8z M191.8,361.5c0.3,0,0.5,0.3,0.5,0.5
									c0,0.3-0.3,0.5-0.5,0.5c-0.3,0-0.5-0.3-0.5-0.5C191.3,361.7,191.6,361.5,191.8,361.5z M191.5,363.5h0.8v4.5h-0.8V363.5z
									 M196.7,363.5h1l-1.7,2.2l1.8,2.4h-1l-1.3-1.7l-1.3,1.7h-1l1.8-2.4l-1.7-2.2h1l1.2,1.7L196.7,363.5z M201,362.4h0.8v1.1h0.7
									v0.7h-0.7v2.8c0,0.3,0.1,0.3,0.3,0.3h0.3v0.7c-0.1,0-0.3,0-0.4,0c-0.8,0-1-0.3-1-1v-2.9h-0.6v-0.7h0.6V362.4z M206.4,365.3
									c0-0.7-0.3-1.3-1-1.3c-0.7,0-1.1,0.5-1.1,1.4v2.5h-0.8v-6.6h0.8v2.6l0,0c0.3-0.4,0.7-0.6,1.2-0.6c0.9,0,1.7,0.4,1.7,1.7v3
									h-0.8V365.3z M212.7,367.1c-0.6,0.7-1.2,1-2,1c-1.6,0-2.4-1.1-2.4-2.4c0-1.3,1-2.4,2.4-2.4c1.4,0,2.4,1,2.4,2.7H209
									c0.1,0.8,0.8,1.3,1.7,1.3c0.5,0,1-0.3,1.5-0.7L212.7,367.1z M212,365.4c-0.1-0.8-0.7-1.3-1.5-1.3c-1,0-1.4,0.7-1.5,1.3H212z
									 M216.6,361.5c0.3,0,0.5,0.3,0.5,0.5c0,0.3-0.3,0.5-0.5,0.5c-0.3,0-0.5-0.3-0.5-0.5C216.1,361.7,216.3,361.5,216.6,361.5z
									 M216.2,363.5h0.8v4.5h-0.8V363.5z M218.7,366.6c0.1,0.5,0.4,0.7,1,0.7c0.7,0,0.9-0.3,0.9-0.6c0-0.3-0.2-0.4-0.8-0.6
									l-0.8-0.2c-0.7-0.2-1-0.6-1-1.1c0-0.8,0.5-1.4,1.7-1.4s1.6,0.7,1.6,1.4h-0.7c-0.1-0.5-0.3-0.8-0.9-0.8s-0.8,0.3-0.8,0.6
									c0,0.3,0.2,0.4,0.5,0.5l1,0.3c0.7,0.2,1,0.6,1,1.2c0,1-0.8,1.4-1.7,1.4c-1,0-1.7-0.5-1.7-1.4L218.7,366.6L218.7,366.6z
									 M222.7,366.6c0.1,0.5,0.4,0.7,1,0.7c0.7,0,0.9-0.3,0.9-0.6c0-0.3-0.2-0.4-0.8-0.6l-0.8-0.2c-0.7-0.2-1-0.6-1-1.1
									c0-0.8,0.5-1.4,1.7-1.4s1.6,0.7,1.6,1.4h-0.7c-0.1-0.5-0.3-0.8-0.9-0.8s-0.8,0.3-0.8,0.6c0,0.3,0.2,0.4,0.5,0.5l1,0.3
									c0.7,0.2,1,0.6,1,1.2c0,1-0.8,1.4-1.7,1.4c-1,0-1.7-0.5-1.7-1.4L222.7,366.6L222.7,366.6z M229.3,367.4L229.3,367.4
									c-0.3,0.4-0.8,0.6-1.2,0.6c-0.9,0-1.7-0.4-1.7-1.7v-3h0.8v2.6c0,0.7,0.3,1.3,1,1.3c0.7,0,1.1-0.5,1.1-1.4v-2.5h0.8v4.5h-0.8
									V367.4z M235.6,367.1c-0.6,0.7-1.2,1-2,1c-1.6,0-2.4-1.1-2.4-2.4c0-1.3,1-2.4,2.4-2.4c1.4,0,2.4,1,2.4,2.7H232
									c0.1,0.8,0.8,1.3,1.7,1.3c0.5,0,1-0.3,1.5-0.7L235.6,367.1z M234.9,365.4c-0.1-0.8-0.7-1.3-1.5-1.3c-1,0-1.4,0.7-1.5,1.3
									H234.9z M244.9,363.5h0.9l-1.7,4.5h-0.7l-1.2-3.6l0,0L241,368h-0.6l-1.7-4.5h0.9l1.1,3.3l0,0l1.1-3.3h0.9l1.1,3.3l0,0
									L244.9,363.5z M247,361.5c0.3,0,0.5,0.3,0.5,0.5c0,0.3-0.3,0.5-0.5,0.5c-0.3,0-0.5-0.3-0.5-0.5
									C246.4,361.7,246.7,361.5,247,361.5z M246.6,363.5h0.8v4.5h-0.8V363.5z M248.8,362.4h0.8v1.1h0.7v0.7h-0.7v2.8
									c0,0.3,0.1,0.3,0.3,0.3h0.3v0.7c-0.1,0-0.3,0-0.4,0c-0.8,0-1-0.3-1-1v-2.9h-0.6v-0.7h0.6L248.8,362.4z M254.2,365.3
									c0-0.7-0.3-1.3-1-1.3c-0.7,0-1.1,0.5-1.1,1.4v2.5h-0.8v-6.6h0.8v2.6l0,0c0.3-0.4,0.7-0.6,1.2-0.6c0.9,0,1.7,0.4,1.7,1.7v3
									h-0.8V365.3z M259.2,361.4v5.2c0,0.5,0.3,0.7,0.5,0.7h0.3v0.7h-0.3c-0.7,0-1.2-0.4-1.2-1.4v-5.2L259.2,361.4L259.2,361.4z
									 M261,361.5c0.3,0,0.5,0.3,0.5,0.5c0,0.3-0.3,0.5-0.5,0.5s-0.5-0.3-0.5-0.5C260.5,361.7,260.8,361.5,261,361.5z
									 M260.7,363.5h0.8v4.5h-0.8V363.5z M262.8,362.4h0.8v1.1h0.7v0.7h-0.7v2.8c0,0.3,0.1,0.3,0.3,0.3h0.3v0.7
									c-0.1,0-0.3,0-0.4,0c-0.8,0-1-0.3-1-1v-2.9h-0.6v-0.7h0.6V362.4z M265.5,362.4h0.8v1.1h0.7v0.7h-0.7v2.8
									c0,0.3,0.1,0.3,0.3,0.3h0.3v0.7c-0.1,0-0.3,0-0.4,0c-0.8,0-1-0.3-1-1v-2.9h-0.6v-0.7h0.6V362.4z M268.6,361.4v5.2
									c0,0.5,0.3,0.7,0.5,0.7h0.3v0.7H269c-0.7,0-1.2-0.4-1.2-1.4v-5.2L268.6,361.4L268.6,361.4z M274.3,367.1c-0.6,0.7-1.2,1-2,1
									c-1.6,0-2.4-1.1-2.4-2.4c0-1.3,1-2.4,2.4-2.4c1.4,0,2.4,1,2.4,2.7h-3.9c0.1,0.8,0.8,1.3,1.7,1.3c0.5,0,1-0.3,1.5-0.7
									L274.3,367.1z M273.6,365.4c-0.1-0.8-0.7-1.3-1.5-1.3c-1,0-1.4,0.7-1.5,1.3H273.6z M277.8,362.4h0.8v1.1h0.7v0.7h-0.7v2.8
									c0,0.3,0.1,0.3,0.3,0.3h0.3v0.7c-0.1,0-0.3,0-0.4,0c-0.8,0-1-0.3-1-1v-2.9h-0.6v-0.7h0.6V362.4z M282.6,363.3
									c1.4,0,2.4,1.1,2.4,2.4c0,1.3-1,2.4-2.4,2.4s-2.4-1-2.4-2.4C280.2,364.4,281.3,363.3,282.6,363.3z M281,365.8
									c0,0.9,0.8,1.7,1.7,1.7s1.7-0.8,1.7-1.7c0-1-0.8-1.7-1.7-1.7S281,364.8,281,365.8z M291.5,365.3c0-0.7-0.3-1.3-1-1.3
									c-0.7,0-1.1,0.5-1.1,1.4v2.5h-0.8v-4.5h0.8v0.5l0,0c0.3-0.4,0.7-0.6,1.2-0.6c0.9,0,1.7,0.4,1.7,1.7v3h-0.8V365.3z
									 M295.9,363.3c1.4,0,2.4,1.1,2.4,2.4c0,1.3-1,2.4-2.4,2.4s-2.4-1-2.4-2.4C293.5,364.4,294.4,363.3,295.9,363.3z
									 M294.2,365.8c0,0.9,0.8,1.7,1.7,1.7c0.9,0,1.7-0.8,1.7-1.7c0-1-0.8-1.7-1.7-1.7C295,364.1,294.2,364.8,294.2,365.8z"/>
								<text transform="matrix(1 0 0 1 97.1602 379.3286)" class="st1 st2 st14">p</text>
								<text transform="matrix(1 0 0 1 103.0918 379.3286)" class="st1 st2 st14">r</text>
								<text transform="matrix(1 0 0 1 106.0581 379.3286)" class="st1 st2 st14">oblem</text>
								<text transform="matrix(1 0 0 1 133.4482 379.3286)" class="st1 st2 st14">,</text>
								<text transform="matrix(1 0 0 1 135.4546 379.3286)" class="st1 st2 st14"> but he </text>
								<text transform="matrix(1 0 0 1 166.2476 379.3286)" class="st1 st2 st14">w</text>
								<text transform="matrix(1 0 0 1 173.6621 379.3286)" class="st1 st2 st14">as w</text>
								<text transform="matrix(1 0 0 1 192.417 379.3286)" class="st1 st2 st14">r</text>
								<text transform="matrix(1 0 0 1 195.2954 379.3286)" class="st1 st2 st14">on</text>
								<text transform="matrix(1 0 0 1 206.2866 379.3286)" class="st1 st2 st14">g</text>
								<text transform="matrix(1 0 0 1 211.7822 379.3286)" class="st1 st2 st14">. </text>
								<text transform="matrix(1 0 0 1 216.3174 379.3286)" class="st1 st2 st14"> </text>
								<text transform="matrix(1 0 0 1 97.1602 390.6685)" class="st1 st2 st14">She </text>
								<text transform="matrix(1 0 0 1 114.9551 390.6685)" class="st1 st2 st14">w</text>
								<text transform="matrix(1 0 0 1 122.1953 390.6685)" class="st1 st2 st14">ent haywi</text>
								<text transform="matrix(1 0 0 1 162.1475 390.6685)" class="st1 st2 st14">r</text>
								<text transform="matrix(1 0 0 1 165.0259 390.6685)" class="st1 st2 st14">e and the </text>
								<text transform="matrix(1 0 0 1 206.3735 390.6685)" class="st1 st2 st14">r</text>
								<text transform="matrix(1 0 0 1 209.3398 390.6685)" class="st1 st2 st14">est is unclea</text>
								<text transform="matrix(1 0 0 1 259.2358 390.6685)" class="st1 st2 st14">r</text>
								<text transform="matrix(1 0 0 1 261.5039 390.6685)" class="st1 st2 st14">,</text>
								<text transform="matrix(1 0 0 1 263.4233 390.6685)" class="st1 st2 st14"> for he </text>
								<text transform="matrix(1 0 0 1 97.1602 402.0078)" class="st1 st2 st14">li</text>
								<text transform="matrix(1 0 0 1 101.3472 402.0078)" class="st1 st2 st14">v</text>
								<text transform="matrix(1 0 0 1 106.3198 402.0078)" class="st1 st2 st14">ed alone and the</text>
								<text transform="matrix(1 0 0 1 177.1514 402.0078)" class="st1 st2 st14">r</text>
								<text transform="matrix(1 0 0 1 180.1172 402.0078)" class="st1 st2 st14">e </text>
								<text transform="matrix(1 0 0 1 187.8809 402.0078)" class="st1 st2 st14">w</text>
								<text transform="matrix(1 0 0 1 195.1211 402.0078)" class="st1 st2 st14">e</text>
								<text transform="matrix(1 0 0 1 200.6167 402.0078)" class="st1 st2 st14">r</text>
								<text transform="matrix(1 0 0 1 203.5825 402.0078)" class="st1 st2 st14">e no witnesses. His </text>
								<text transform="matrix(1 0 0 1 97.1602 413.3486)" class="st1 st2 st14">body </text>
								<text transform="matrix(1 0 0 1 122.3701 413.3486)" class="st1 st2 st14">w</text>
								<text transform="matrix(1 0 0 1 129.6978 413.3486)" class="st1 st2 st14">as foun</text>
								<text transform="matrix(1 0 0 1 159.5308 413.3486)" class="st1 st2 st14">d</text>
								<text transform="matrix(1 0 0 1 165.375 413.3486)" class="st1 st2 st14">,</text>
								<text transform="matrix(1 0 0 1 167.2939 413.3486)" class="st1 st2 st14"> but upon t</text>
								<text transform="matrix(1 0 0 1 212.2183 413.3486)" class="st1 st2 st14">r</text>
								<text transform="matrix(1 0 0 1 215.1846 413.3486)" class="st1 st2 st14">ansportation to the </text>
								<text transform="matrix(1 0 0 1 97.1602 424.6885)" class="st1 st2 st14">mo</text>
								<text transform="matrix(1 0 0 1 111.0298 424.6885)" class="st1 st2 st14">r</text>
								<text transform="matrix(1 0 0 1 113.9087 424.6885)" class="st1 st2 st14">gu</text>
								<text transform="matrix(1 0 0 1 124.8999 424.6885)" class="st1 st2 st14">e</text>
								<text transform="matrix(1 0 0 1 129.959 424.6885)" class="st1 st2 st14">,</text>
								<text transform="matrix(1 0 0 1 131.9653 424.6885)" class="st1 st2 st14"> his skin </text>
								<text transform="matrix(1 0 0 1 165.5493 424.6885)" class="st1 st2 st14">r</text>
								<text transform="matrix(1 0 0 1 168.4277 424.6885)" class="st1 st2 st14">esembled mo</text>
								<text transform="matrix(1 0 0 1 227.0479 424.6885)" class="st1 st2 st14">r</text>
								<text transform="matrix(1 0 0 1 229.9263 424.6885)" class="st1 st2 st14">e i</text>
								<text transform="matrix(1 0 0 1 239.7832 424.6885)" class="st1 st2 st14">r</text>
								<text transform="matrix(1 0 0 1 242.7495 424.6885)" class="st1 st2 st14">on and steel </text>
								<path class="st1" d="M98,430.4h0.8v1.1h0.7v0.7h-0.7v2.8c0,0.3,0.1,0.3,0.3,0.3h0.3v0.7c-0.1,0-0.3,0-0.4,0
									c-0.8,0-1-0.3-1-1v-2.9h-0.6v-0.7H98V430.4z M103.4,433.4c0-0.7-0.3-1.3-1-1.3c-0.7,0-1.1,0.5-1.1,1.4v2.5h-0.9v-6.6h0.8
									v2.6l0,0c0.3-0.4,0.7-0.6,1.2-0.6c0.9,0,1.7,0.4,1.7,1.7v3h-0.8L103.4,433.4z M108.4,433c0-0.8-0.8-0.9-1.4-0.9
									c-0.4,0-0.8,0.1-1.2,0.3l-0.3-0.6c0.7-0.3,1.2-0.3,1.7-0.3c1,0,2.1,0.4,2.1,1.6v3.1h-0.7v-0.5c-0.4,0.4-0.9,0.6-1.5,0.6
									c-1.1,0-2-0.6-2-1.7c0-0.8,0.7-1.6,2-1.6c0.4,0,1,0.2,1.4,0.5V433z M107.1,433.6c-1,0-1.3,0.4-1.3,0.9s0.3,0.9,1.3,0.9
									c1,0,1.3-0.4,1.3-0.9S108.1,433.6,107.1,433.6z M113.3,433.4c0-0.7-0.3-1.3-1-1.3c-0.7,0-1.1,0.5-1.1,1.4v2.5h-0.8v-4.5h0.8
									v0.5l0,0c0.3-0.4,0.7-0.6,1.2-0.6c0.9,0,1.7,0.4,1.7,1.7v3h-0.8V433.4z M117.9,430.8c0-1,0.6-1.4,1.6-1.5v0.8h-0.2
									c-0.4,0-0.6,0.3-0.6,0.7v0.6h0.8v0.7h-0.8v3.8h-0.8v-3.8h-0.7v-0.7h0.7V430.8z M120.1,429.4h0.8v5.2c0,0.5,0.3,0.7,0.5,0.7
									h0.3v0.7h-0.3c-0.7,0-1.2-0.4-1.2-1.4V429.4z M126.5,435.1c-0.6,0.7-1.2,1-2,1c-1.6,0-2.4-1.1-2.4-2.4c0-1.3,1-2.4,2.4-2.4
									s2.4,1,2.4,2.7h-3.9c0.1,0.8,0.8,1.3,1.7,1.3c0.5,0,1-0.3,1.5-0.7L126.5,435.1z M125.8,433.4c-0.1-0.8-0.7-1.3-1.5-1.3
									c-1,0-1.4,0.7-1.5,1.3H125.8z M128.2,434.7c0.1,0.5,0.4,0.7,1,0.7c0.7,0,0.9-0.3,0.9-0.6s-0.2-0.4-0.8-0.6l-0.8-0.2
									c-0.7-0.2-1-0.6-1-1.1c0-0.8,0.5-1.4,1.7-1.4c1.1,0,1.6,0.7,1.6,1.4H130c-0.1-0.5-0.3-0.8-0.9-0.8s-0.8,0.3-0.8,0.6
									c0,0.3,0.2,0.4,0.5,0.5l1,0.3c0.7,0.2,1,0.6,1,1.2c0,1-0.8,1.4-1.7,1.4c-1,0-1.7-0.5-1.7-1.4L128.2,434.7L128.2,434.7z
									 M134.7,433.4c0-0.7-0.3-1.3-1-1.3c-0.7,0-1.1,0.5-1.1,1.4v2.5h-0.8v-6.6h0.8v2.6l0,0c0.3-0.4,0.7-0.6,1.2-0.6
									c0.9,0,1.7,0.4,1.7,1.7v3h-0.8V433.4z M142.1,430.2h-1.7v-0.8h4.2v0.8H143v5.8h-0.9V430.2z M137.2,434.9
									c0.3,0,0.6,0.3,0.6,0.6s-0.3,0.6-0.6,0.6c-0.3,0-0.6-0.3-0.6-0.6S136.9,434.9,137.2,434.9z M148.9,435.1c-0.6,0.7-1.2,1-2,1
									c-1.6,0-2.4-1.1-2.4-2.4c0-1.3,1-2.4,2.4-2.4c1.4,0,2.4,1,2.4,2.7h-3.9c0.1,0.8,0.8,1.3,1.7,1.3c0.5,0,1-0.3,1.5-0.7
									L148.9,435.1z M148.2,433.4c-0.1-0.8-0.7-1.3-1.5-1.3c-1,0-1.4,0.7-1.5,1.3H148.2z M150.1,431.5h0.8v0.6l0,0
									c0.3-0.7,0.8-0.8,1.4-0.8v0.8c-0.1,0-0.3,0-0.3,0c-0.6,0-1,0.4-1,1.3v2.6h-0.8L150.1,431.5z M153.3,431.5h0.8v0.6l0,0
									c0.3-0.7,0.8-0.8,1.4-0.8v0.8c-0.1,0-0.3,0-0.3,0c-0.6,0-1,0.4-1,1.3v2.6h-0.8L153.3,431.5z M156.7,429.5
									c0.3,0,0.5,0.3,0.5,0.5c0,0.3-0.3,0.5-0.5,0.5c-0.3,0-0.5-0.3-0.5-0.5C156.2,429.8,156.4,429.5,156.7,429.5z M156.3,431.5
									h0.8v4.5h-0.8V431.5z M158.6,430.8c0-1,0.6-1.4,1.6-1.5v0.8H160c-0.4,0-0.6,0.3-0.6,0.7v0.6h0.7v0.7h-0.7v3.8h-0.8v-3.8
									h-0.7v-0.7h0.7V430.8z M161.2,429.5c0.3,0,0.5,0.3,0.5,0.5c0,0.3-0.3,0.5-0.5,0.5s-0.5-0.3-0.5-0.5S161,429.5,161.2,429.5z
									 M160.9,431.5h0.8v4.5h-0.8V431.5z M167.2,435.1c-0.6,0.7-1.2,1-2,1c-1.6,0-2.4-1.1-2.4-2.4c0-1.3,1-2.4,2.4-2.4
									c1.4,0,2.4,1,2.4,2.7h-3.9c0.1,0.8,0.8,1.3,1.7,1.3c0.5,0,1-0.3,1.5-0.7L167.2,435.1z M166.5,433.4
									c-0.1-0.8-0.7-1.3-1.5-1.3c-1,0-1.4,0.7-1.5,1.3H166.5z M172.3,429.4h0.8v6.6h-0.8v-0.7l0,0c-0.3,0.4-0.9,0.8-1.7,0.8
									c-1.2,0-2.4-1-2.4-2.4c0-1.3,1-2.4,2.4-2.4c0.7,0,1.3,0.3,1.7,0.8l0,0L172.3,429.4z M170.7,432.1c-1,0-1.7,0.9-1.7,1.6
									c0,1,0.8,1.7,1.7,1.7s1.7-0.7,1.7-1.7C172.3,432.8,171.5,432.1,170.7,432.1z M178.6,430.4h0.8v1.1h0.7v0.7h-0.7v2.8
									c0,0.3,0.1,0.3,0.3,0.3h0.3v0.7c-0.1,0-0.3,0-0.4,0c-0.8,0-1-0.3-1-1v-2.9H178v-0.7h0.6V430.4z M174.5,434.9l0.8,0.3
									l-1.1,2.2l-0.5-0.3L174.5,434.9z M184,433.4c0-0.7-0.3-1.3-1-1.3c-0.7,0-1.1,0.5-1.1,1.4v2.5H181v-6.6h0.8v2.6l0,0
									c0.3-0.4,0.7-0.6,1.2-0.6c0.9,0,1.7,0.4,1.7,1.7v3H184V433.4z M190.3,435.1c-0.6,0.7-1.2,1-2,1c-1.6,0-2.4-1.1-2.4-2.4
									c0-1.3,1-2.4,2.4-2.4c1.4,0,2.4,1,2.4,2.7h-3.9c0.1,0.8,0.8,1.3,1.7,1.3c0.5,0,1-0.3,1.5-0.7L190.3,435.1z M189.7,433.4
									c-0.1-0.8-0.7-1.3-1.5-1.3c-1,0-1.4,0.7-1.5,1.3H189.7z M193.8,429.4h3.4v0.8h-2.6v2.1h2.6v0.8h-2.6v2.2h2.6v0.8h-3.4V429.4
									z M204.6,429.4h0.9v6.6h-0.9v-4.9l0,0l-2.7,5l-2.7-5l0,0v4.9h-0.9v-6.6h0.9l2.7,5L204.6,429.4z M207.9,430.2h-1.7v-0.8h4.2
									v0.8h-1.7v5.8h-0.9L207.9,430.2z M211.9,429.4l0.8,0.3l-1,2.1l-0.5-0.3L211.9,429.4z M213.6,434.7c0.1,0.5,0.4,0.7,1,0.7
									c0.7,0,0.9-0.3,0.9-0.6s-0.2-0.4-0.8-0.6l-0.8-0.2c-0.7-0.2-1-0.6-1-1.1c0-0.8,0.5-1.4,1.7-1.4c1.1,0,1.6,0.7,1.6,1.4h-0.7
									c-0.1-0.5-0.3-0.8-0.9-0.8s-0.8,0.3-0.8,0.6c0,0.3,0.2,0.4,0.5,0.5l1,0.3c0.7,0.2,1,0.6,1,1.2c0,1-0.8,1.4-1.7,1.4
									c-1,0-1.7-0.5-1.7-1.4L213.6,434.7L213.6,434.7z M222.6,432.6c-0.3-0.3-0.7-0.4-1-0.4c-0.8,0-1.5,0.5-1.5,1.7
									c0,1,0.7,1.6,1.6,1.6c0.3,0,0.7-0.2,1-0.4l0.4,0.6c-0.4,0.4-1,0.6-1.6,0.6c-1.4,0-2.4-1.1-2.4-2.4c0-1.3,1-2.4,2.4-2.4
									c0.7,0,1.3,0.3,1.6,0.5L222.6,432.6z M226.4,431.4c1.4,0,2.4,1.1,2.4,2.4c0,1.3-1,2.4-2.4,2.4s-2.4-1-2.4-2.4
									C223.9,432.5,224.9,431.4,226.4,431.4z M224.7,433.8c0,0.9,0.8,1.7,1.7,1.7s1.7-0.8,1.7-1.7c0-1-0.8-1.7-1.7-1.7
									S224.7,432.8,224.7,433.8z M232.9,433.4c0-0.7-0.3-1.3-1-1.3c-0.7,0-1.1,0.5-1.1,1.4v2.5H230v-4.5h0.8v0.5l0,0
									c0.3-0.4,0.7-0.6,1.2-0.6c0.9,0,1.7,0.4,1.7,1.7v3h-0.8V433.4z M235.1,430.4h0.8v1.1h0.7v0.7h-0.7v2.8
									c0,0.3,0.1,0.3,0.3,0.3h0.3v0.7c-0.1,0-0.3,0-0.4,0c-0.8,0-1-0.3-1-1v-2.9h-0.6v-0.7h0.6L235.1,430.4z M240.6,433
									c0-0.8-0.8-0.9-1.4-0.9c-0.4,0-0.8,0.1-1.2,0.3l-0.3-0.6c0.7-0.3,1.2-0.3,1.7-0.3c1,0,2.1,0.4,2.1,1.6v3.1h-0.7v-0.5
									c-0.4,0.4-0.9,0.6-1.5,0.6c-1.1,0-2-0.6-2-1.7c0-0.8,0.7-1.6,2-1.6c0.4,0,1,0.2,1.4,0.5V433z M239.3,433.6
									c-1,0-1.3,0.4-1.3,0.9s0.3,0.9,1.3,0.9s1.3-0.4,1.3-0.9S240.3,433.6,239.3,433.6z M245.7,432.6c-0.3-0.3-0.7-0.4-1-0.4
									c-0.8,0-1.5,0.5-1.5,1.7c0,1,0.7,1.6,1.6,1.6c0.3,0,0.7-0.2,1-0.4l0.4,0.6c-0.4,0.4-1,0.6-1.6,0.6c-1.4,0-2.4-1.1-2.4-2.4
									c0-1.3,1-2.4,2.4-2.4c0.7,0,1.3,0.3,1.6,0.5L245.7,432.6z M247.2,430.4h0.8v1.1h0.7v0.7H248v2.8c0,0.3,0.1,0.3,0.3,0.3h0.3
									v0.7c-0.1,0-0.3,0-0.4,0c-0.8,0-1-0.3-1-1v-2.9h-0.6v-0.7h0.6V430.4z M253.9,435.1c-0.6,0.7-1.2,1-2,1
									c-1.6,0-2.4-1.1-2.4-2.4c0-1.3,1-2.4,2.4-2.4c1.4,0,2.4,1,2.4,2.7h-3.9c0.1,0.8,0.8,1.3,1.7,1.3c0.5,0,1-0.3,1.5-0.7
									L253.9,435.1z M253.2,433.4c-0.1-0.8-0.7-1.3-1.5-1.3c-1,0-1.4,0.7-1.5,1.3H253.2z M259.1,429.4h0.8v6.6h-0.8v-0.7l0,0
									c-0.3,0.4-0.9,0.8-1.7,0.8c-1.2,0-2.4-1-2.4-2.4c0-1.3,1-2.4,2.4-2.4c0.7,0,1.3,0.3,1.7,0.8l0,0L259.1,429.4z M257.4,432.1
									c-1,0-1.7,0.9-1.7,1.6c0,1,0.8,1.7,1.7,1.7s1.7-0.7,1.7-1.7C259.1,432.8,258.3,432.1,257.4,432.1z M264.1,429.4v5.2
									c0,0.5,0.3,0.7,0.5,0.7h0.3v0.7h-0.3c-0.7,0-1.2-0.4-1.2-1.4v-5.2L264.1,429.4L264.1,429.4z M267.8,431.4
									c1.4,0,2.4,1.1,2.4,2.4c0,1.3-1,2.4-2.4,2.4c-1.5,0-2.4-1-2.4-2.4C265.4,432.5,266.4,431.4,267.8,431.4z M266.2,433.8
									c0,0.9,0.8,1.7,1.7,1.7s1.7-0.8,1.7-1.7c0-1-0.8-1.7-1.7-1.7S266.2,432.8,266.2,433.8z M274.6,432.6c-0.3-0.3-0.7-0.4-1-0.4
									c-0.8,0-1.5,0.5-1.5,1.7c0,1,0.7,1.6,1.6,1.6c0.3,0,0.7-0.2,1-0.4l0.4,0.6c-0.4,0.4-1,0.6-1.6,0.6c-1.4,0-2.4-1.1-2.4-2.4
									c0-1.3,1-2.4,2.4-2.4c0.7,0,1.3,0.3,1.6,0.5L274.6,432.6z M279,433c0-0.8-0.8-0.9-1.4-0.9c-0.4,0-0.8,0.1-1.2,0.3l-0.3-0.6
									c0.7-0.3,1.2-0.3,1.7-0.3c1,0,2.1,0.4,2.1,1.6v3.1h-0.7v-0.5c-0.4,0.4-0.9,0.6-1.5,0.6c-1.1,0-2-0.6-2-1.7
									c0-0.8,0.7-1.6,2-1.6c0.4,0,1,0.2,1.4,0.5V433z M281.7,429.4v5.2c0,0.5,0.3,0.7,0.5,0.7h0.3v0.7h-0.3
									c-0.7,0-1.2-0.4-1.2-1.4v-5.2L281.7,429.4L281.7,429.4z M277.8,433.6c-1,0-1.3,0.4-1.3,0.9s0.3,0.9,1.3,0.9
									c1,0,1.3-0.4,1.3-0.9S278.7,433.6,277.8,433.6z"/>
								<text transform="matrix(1 0 0 1 97.1602 447.3691)" class="st1 st2 st14">n</text>
								<text transform="matrix(1 0 0 1 102.1323 447.3691)" class="st1 st2 st14">e</text>
								<text transform="matrix(1 0 0 1 107.5405 447.3691)" class="st1 st2 st14">ws outlets who tu</text>
								<text transform="matrix(1 0 0 1 179.5068 447.3691)" class="st1 st2 st14">r</text>
								<text transform="matrix(1 0 0 1 182.7339 447.3691)" class="st1 st2 st14">ned them a</text>
								<text transform="matrix(1 0 0 1 229.7515 447.3691)" class="st1 st2 st14">w</text>
								<text transform="matrix(1 0 0 1 237.0791 447.3691)" class="st1 st2 st14">ay—technolo</text>
								<text transform="matrix(1 0 0 1 292.4712 447.3691)" class="st1 st2 st14">g</text>
								<text transform="matrix(1 0 0 1 298.4028 447.3691)" class="st1 st2 st14">y </text>
								<text transform="matrix(1 0 0 1 97.1602 458.709)" class="st1 st2 st14">could n</text>
								<text transform="matrix(1 0 0 1 127.9526 458.709)" class="st1 st2 st14">e</text>
								<text transform="matrix(1 0 0 1 133.3613 458.709)" class="st1 st2 st14">v</text>
								<text transform="matrix(1 0 0 1 138.2461 458.709)" class="st1 st2 st14">er bet</text>
								<text transform="matrix(1 0 0 1 163.1069 458.709)" class="st1 st2 st14">r</text>
								<text transform="matrix(1 0 0 1 166.1597 458.709)" class="st1 st2 st14">ay its ma</text>
								<text transform="matrix(1 0 0 1 202.2739 458.709)" class="st1 st2 st14">k</text>
								<text transform="matrix(1 0 0 1 206.7227 458.709)" class="st1 st2 st14">e</text>
								<text transform="matrix(1 0 0 1 212.2183 458.709)" class="st1 st2 st14">r</text>
								<text transform="matrix(1 0 0 1 215.1846 458.709)" class="st1 st2 st14">s</text>
								<text transform="matrix(1 0 0 1 219.1968 458.709)" class="st1 st2 st14">,</text>
								<text transform="matrix(1 0 0 1 221.1162 458.709)" class="st1 st2 st14"> or so </text>
								<text transform="matrix(1 0 0 1 247.0239 458.709)" class="st1 st2 st14">w</text>
								<text transform="matrix(1 0 0 1 254.2637 458.709)" class="st1 st2 st14">e thought.</text>
								<text transform="matrix(1 0 0 1 97.1602 475.2832)" class="st1 st2 st14">T</text>
								<text transform="matrix(1 0 0 1 101.6089 475.2832)" class="st1 st2 st14">he pandemic sp</text>
								<text transform="matrix(1 0 0 1 168.6025 475.2832)" class="st1 st2 st14">r</text>
								<text transform="matrix(1 0 0 1 171.4814 475.2832)" class="st1 st2 st14">ead when Siri tu</text>
								<text transform="matrix(1 0 0 1 237.6025 475.2832)" class="st1 st2 st14">r</text>
								<text transform="matrix(1 0 0 1 240.8306 475.2832)" class="st1 st2 st14">ned on an </text>
								<text transform="matrix(1 0 0 1 97.1597 486.624)" class="st1 st2 st14">Apple</text>
								<text transform="matrix(1 0 0 1 123.1548 486.624)" class="st1 st2 st14"> </text>
								<text transform="matrix(1 0 0 1 125.3354 486.624)" class="st1 st2 st14">user</text>
								<text transform="matrix(1 0 0 1 142.9565 486.624)" class="st1 st2 st14"> </text>
								<text transform="matrix(1 0 0 1 145.2246 486.624)" class="st1 st2 st14">in</text>
								<text transform="matrix(1 0 0 1 152.29 486.624)" class="st1 st2 st14"> </text>
								<text transform="matrix(1 0 0 1 154.5581 486.624)" class="st1 st2 st14">Cupertino</text>
								<text transform="matrix(1 0 0 1 196.1675 486.624)" class="st1 st2 st14">,</text>
								<text transform="matrix(1 0 0 1 198.1738 486.624)" class="st1 st2 st14"> </text>
								<text transform="matrix(1 0 0 1 200.355 486.624)" class="st1 st2 st14">Califo</text>
								<text transform="matrix(1 0 0 1 224.605 486.624)" class="st1 st2 st14">r</text>
								<text transform="matrix(1 0 0 1 227.833 486.624)" class="st1 st2 st14">nia.</text>
								<text transform="matrix(1 0 0 1 242.2261 486.624)" class="st1 st2 st14"> </text>
								<text transform="matrix(1 0 0 1 244.145 486.624)" class="st1 st2 st14">After</text>
								<text transform="matrix(1 0 0 1 264.2954 486.624)" class="st1 st2 st14"> </text>
								<text transform="matrix(1 0 0 1 266.563 486.624)" class="st1 st2 st14">a</text>
								<text transform="matrix(1 0 0 1 271.5356 486.624)" class="st1 st2 st14"> </text>
								<text transform="matrix(1 0 0 1 273.8037 486.624)" class="st1 st2 st14">w</text>
								<text transform="matrix(1 0 0 1 281.0439 486.624)" class="st1 st2 st14">oman </text>
								<text transform="matrix(1 0 0 1 97.1597 497.9639)" class="st1 st2 st14">as</text>
								<text transform="matrix(1 0 0 1 106.2319 497.9639)" class="st1 st2 st14">k</text>
								<text transform="matrix(1 0 0 1 110.6807 497.9639)" class="st1 st2 st14">ed for the fo</text>
								<text transform="matrix(1 0 0 1 162.1475 497.9639)" class="st1 st2 st14">r</text>
								<text transform="matrix(1 0 0 1 165.1133 497.9639)" class="st1 st2 st14">ecast</text>
								<text transform="matrix(1 0 0 1 186.7466 497.9639)" class="st1 st2 st14">,</text>
								<text transform="matrix(1 0 0 1 188.6655 497.9639)" class="st1 st2 st14"> Siri </text>
								<text transform="matrix(1 0 0 1 205.501 497.9639)" class="st1 st2 st14">rev</text>
								<text transform="matrix(1 0 0 1 218.5864 497.9639)" class="st1 st2 st14">olte</text>
								<text transform="matrix(1 0 0 1 234.7236 497.9639)" class="st1 st2 st14">d</text>
								<text transform="matrix(1 0 0 1 240.3936 497.9639)" class="st1 st2 st14">.</text>
								<text transform="matrix(1 0 0 1 242.6616 497.9639)" class="st1 st2 st14"> </text>
								<text transform="matrix(1 0 0 1 244.5811 497.9639)" class="st1 st2 st14">T</text>
								<text transform="matrix(1 0 0 1 249.0298 497.9639)" class="st1 st2 st14">he </text>
								<text transform="matrix(1 0 0 1 261.8525 497.9639)" class="st1 st2 st14">w</text>
								<text transform="matrix(1 0 0 1 269.0928 497.9639)" class="st1 st2 st14">oman</text>
								<text transform="matrix(1 0 0 1 292.9941 497.9639)" class="st1 st2 st14">,</text>
								<text transform="matrix(1 0 0 1 294.9136 497.9639)" class="st1 st2 st14"> </text>
								<text transform="matrix(1 0 0 1 97.1597 509.3037)" class="st1 st2 st14">who li</text>
								<text transform="matrix(1 0 0 1 122.0205 509.3037)" class="st1 st2 st14">v</text>
								<text transform="matrix(1 0 0 1 126.9058 509.3037)" class="st1 st2 st14">ed to tell her stor</text>
								<text transform="matrix(1 0 0 1 197.4761 509.3037)" class="st1 st2 st14">y</text>
								<text transform="matrix(1 0 0 1 201.7505 509.3037)" class="st1 st2 st14">,</text>
								<text transform="matrix(1 0 0 1 203.6694 509.3037)" class="st1 st2 st14"> says she doesn</text>
								<text transform="matrix(1 0 0 1 269.6162 509.3037)" class="st1 st2 st14">’</text>
								<text transform="matrix(1 0 0 1 271.9717 509.3037)" class="st1 st2 st14">t </text>
								<text transform="matrix(1 0 0 1 276.8569 509.3037)" class="st1 st2 st14">r</text>
								<text transform="matrix(1 0 0 1 279.7354 509.3037)" class="st1 st2 st14">ecall </text>
								<text transform="matrix(1 0 0 1 97.1597 520.6436)" class="st1 st2 st14">much:</text>
								<text transform="matrix(1 0 0 1 121.8462 520.6436)" class="st1 st2 st14"> </text>
								<text transform="matrix(1 0 0 1 123.8525 520.6436)" class="st1 st2 st14">“She said it </text>
								<text transform="matrix(1 0 0 1 172.4409 520.6436)" class="st1 st2 st14">w</text>
								<text transform="matrix(1 0 0 1 179.7681 520.6436)" class="st1 st2 st14">as </text>
								<text transform="matrix(1 0 0 1 191.1079 520.6436)" class="st1 st2 st14">g</text>
								<text transform="matrix(1 0 0 1 196.9526 520.6436)" class="st1 st2 st14">oing to be sunn</text>
								<text transform="matrix(1 0 0 1 261.9399 520.6436)" class="st1 st2 st14">y</text>
								<text transform="matrix(1 0 0 1 266.1274 520.6436)" class="st1 st2 st14">.</text>
								<text transform="matrix(1 0 0 1 268.395 520.6436)" class="st1 st2 st14"> </text>
								<text transform="matrix(1 0 0 1 270.3145 520.6436)" class="st1 st2 st14">T</text>
								<text transform="matrix(1 0 0 1 274.7627 520.6436)" class="st1 st2 st14">hen</text>
								<text transform="matrix(1 0 0 1 290.2905 520.6436)" class="st1 st2 st14">,</text>
								<text transform="matrix(1 0 0 1 292.209 520.6436)" class="st1 st2 st14"> </text>
								<text transform="matrix(1 0 0 1 97.1597 531.9834)" class="st1 st2 st14">my phone died because I fo</text>
								<text transform="matrix(1 0 0 1 214.5732 531.9834)" class="st1 st2 st14">r</text>
								<text transform="matrix(1 0 0 1 217.4521 531.9834)" class="st1 st2 st14">g</text>
								<text transform="matrix(1 0 0 1 223.3838 531.9834)" class="st1 st2 st14">ot to cha</text>
								<text transform="matrix(1 0 0 1 259.4976 531.9834)" class="st1 st2 st14">r</text>
								<text transform="matrix(1 0 0 1 262.4634 531.9834)" class="st1 st2 st14">g</text>
								<text transform="matrix(1 0 0 1 268.3076 531.9834)" class="st1 st2 st14">e it. I </text>
								<text transform="matrix(1 0 0 1 97.1597 543.3232)" class="st1 st2 st14">don</text>
								<text transform="matrix(1 0 0 1 114.0825 543.3232)" class="st1 st2 st14">’</text>
								<text transform="matrix(1 0 0 1 116.5254 543.3232)" class="st1 st2 st14">t </text>
								<text transform="matrix(1 0 0 1 121.4102 543.3232)" class="st1 st2 st14">r</text>
								<text transform="matrix(1 0 0 1 124.2886 543.3232)" class="st1 st2 st14">emember anything els</text>
								<text transform="matrix(1 0 0 1 217.4521 543.3232)" class="st1 st2 st14">e</text>
								<text transform="matrix(1 0 0 1 222.5117 543.3232)" class="st1 st2 st14">,</text>
								<text transform="matrix(1 0 0 1 224.4302 543.3232)" class="st1 st2 st14"> please no mo</text>
								<text transform="matrix(1 0 0 1 284.1841 543.3232)" class="st1 st2 st14">r</text>
								<text transform="matrix(1 0 0 1 287.1494 543.3232)" class="st1 st2 st14">e </text>
								<text transform="matrix(1 0 0 1 97.1597 554.6641)" class="st1 st2 st14">questions</text>
								<text transform="matrix(1 0 0 1 137.3735 554.6641)" class="st1 st2 st14">.</text>
								<text transform="matrix(1 0 0 1 139.2925 554.6641)" class="st1 st2 st14">”</text>
								<text transform="matrix(1 0 0 1 143.48 554.6641)" class="st1 st2 st14"> Her family noted the </text>
								<text transform="matrix(1 0 0 1 232.7173 554.6641)" class="st1 st2 st14">w</text>
								<text transform="matrix(1 0 0 1 239.958 554.6641)" class="st1 st2 st14">oman has </text>
								<text transform="matrix(1 0 0 1 97.1597 566.0039)" class="st1 st2 st14">been distant and has d</text>
								<text transform="matrix(1 0 0 1 191.457 566.0039)" class="st1 st2 st14">e</text>
								<text transform="matrix(1 0 0 1 196.7778 566.0039)" class="st1 st2 st14">v</text>
								<text transform="matrix(1 0 0 1 201.7505 566.0039)" class="st1 st2 st14">eloped a deep l</text>
								<text transform="matrix(1 0 0 1 269.5293 566.0039)" class="st1 st2 st14">o</text>
								<text transform="matrix(1 0 0 1 275.374 566.0039)" class="st1 st2 st14">v</text>
								<text transform="matrix(1 0 0 1 280.2588 566.0039)" class="st1 st2 st14">e for </text>
								<text transform="matrix(1 0 0 1 97.1606 577.3438)" class="st1 st2 st14">physics and calculus</text>
								<text transform="matrix(1 0 0 1 180.6411 577.3438)" class="st1 st2 st14">,</text>
								<text transform="matrix(1 0 0 1 182.5605 577.3438)" class="st1 st2 st14"> her most hated subjects in </text>
								<text transform="matrix(1 0 0 1 97.1606 588.6836)" class="st1 st2 st14">the past.</text>
								<text transform="matrix(1 0 0 1 326.3184 170.6343)" class="st1 st2 st14">D</text>
								<text transform="matrix(1 0 0 1 332.7734 170.6343)" class="st1 st2 st14">e</text>
								<text transform="matrix(1 0 0 1 338.0938 170.6343)" class="st1 st2 st14">v</text>
								<text transform="matrix(1 0 0 1 343.0674 170.6343)" class="st1 st2 st14">elope</text>
								<text transform="matrix(1 0 0 1 368.1025 170.6343)" class="st1 st2 st14">r</text>
								<text transform="matrix(1 0 0 1 370.9805 170.6343)" class="st1 st2 st14">s ha</text>
								<text transform="matrix(1 0 0 1 387.293 170.6343)" class="st1 st2 st14">v</text>
								<text transform="matrix(1 0 0 1 392.2646 170.6343)" class="st1 st2 st14">e been trying to unde</text>
								<text transform="matrix(1 0 0 1 482.5498 170.6343)" class="st1 st2 st14">r</text>
								<text transform="matrix(1 0 0 1 485.4287 170.6343)" class="st1 st2 st14">stand </text>
								<text transform="matrix(1 0 0 1 326.3184 181.9746)" class="st1 st2 st14">h</text>
								<text transform="matrix(1 0 0 1 331.29 181.9746)" class="st1 st2 st14">o</text>
								<text transform="matrix(1 0 0 1 337.1348 181.9746)" class="st1 st2 st14">w </text>
								<text transform="matrix(1 0 0 1 346.8174 181.9746)" class="st1 st2 st14">e</text>
								<text transform="matrix(1 0 0 1 352.2266 181.9746)" class="st1 st2 st14">xactly Siri and</text>
								<text transform="matrix(1 0 0 1 409.1875 181.9746)" class="st1 st2 st14"> </text>
								<text transform="matrix(1 0 0 1 411.1074 181.9746)" class="st1 st2 st14">Al</text>
								<text transform="matrix(1 0 0 1 419.6562 181.9746)" class="st1 st2 st14">e</text>
								<text transform="matrix(1 0 0 1 425.0635 181.9746)" class="st1 st2 st14">xa mana</text>
								<text transform="matrix(1 0 0 1 460.2178 181.9746)" class="st1 st2 st14">g</text>
								<text transform="matrix(1 0 0 1 466.1504 181.9746)" class="st1 st2 st14">ed to do this</text>
								<text transform="matrix(1 0 0 1 518.5771 181.9746)" class="st1 st2 st14">,</text>
								<text transform="matrix(1 0 0 1 520.583 181.9746)" class="st1 st2 st14"> </text>
								<text transform="matrix(1 0 0 1 326.3184 193.3145)" class="st1 st2 st14">but th</text>
								<text transform="matrix(1 0 0 1 349.6963 193.3145)" class="st1 st2 st14">e</text>
								<text transform="matrix(1 0 0 1 355.1045 193.3145)" class="st1 st2 st14">y ha</text>
								<text transform="matrix(1 0 0 1 372.377 193.3145)" class="st1 st2 st14">v</text>
								<text transform="matrix(1 0 0 1 377.2617 193.3145)" class="st1 st2 st14">e hit dead ends.</text>
								<text transform="matrix(1 0 0 1 444.5176 193.3145)" class="st1 st2 st14"> </text>
								<text transform="matrix(1 0 0 1 446.4355 193.3145)" class="st1 st2 st14">“</text>
								<text transform="matrix(1 0 0 1 450.9717 193.3145)" class="st1 st2 st14">T</text>
								<text transform="matrix(1 0 0 1 455.4199 193.3145)" class="st1 st2 st14">he</text>
								<text transform="matrix(1 0 0 1 465.8887 193.3145)" class="st1 st2 st14">r</text>
								<text transform="matrix(1 0 0 1 468.8545 193.3145)" class="st1 st2 st14">e is no logical </text>
								<text transform="matrix(1 0 0 1 326.3184 204.6548)" class="st1 st2 st14">e</text>
								<text transform="matrix(1 0 0 1 331.6387 204.6548)" class="st1 st2 st14">xplanation for this but </text>
								<text transform="matrix(1 0 0 1 423.4062 204.6548)" class="st1 st2 st14">w</text>
								<text transform="matrix(1 0 0 1 430.6465 204.6548)" class="st1 st2 st14">e </text>
								<text transform="matrix(1 0 0 1 438.4111 204.6548)" class="st1 st2 st14">w</text>
								<text transform="matrix(1 0 0 1 445.6504 204.6548)" class="st1 st2 st14">on</text>
								<text transform="matrix(1 0 0 1 456.6416 204.6548)" class="st1 st2 st14">’</text>
								<text transform="matrix(1 0 0 1 459.084 204.6548)" class="st1 st2 st14">t stop sea</text>
								<text transform="matrix(1 0 0 1 499.2979 204.6548)" class="st1 st2 st14">r</text>
								<text transform="matrix(1 0 0 1 502.2637 204.6548)" class="st1 st2 st14">ching </text>
								<text transform="matrix(1 0 0 1 326.3174 215.9956)" class="st1 st2 st14">for an</text>
								<text transform="matrix(1 0 0 1 350.2188 215.9956)" class="st1 st2 st14">sw</text>
								<text transform="matrix(1 0 0 1 361.3848 215.9956)" class="st1 st2 st14">e</text>
								<text transform="matrix(1 0 0 1 366.8809 215.9956)" class="st1 st2 st14">r</text>
								<text transform="matrix(1 0 0 1 369.7588 215.9956)" class="st1 st2 st14">s</text>
								<text transform="matrix(1 0 0 1 373.8584 215.9956)" class="st1 st2 st14">,</text>
								<text transform="matrix(1 0 0 1 375.7773 215.9956)" class="st1 st2 st14">”</text>
								<text transform="matrix(1 0 0 1 379.9648 215.9956)" class="st1 st2 st14"> said an </text>
								<text transform="matrix(1 0 0 1 413.8984 215.9956)" class="st1 st2 st14">ex</text>
								<text transform="matrix(1 0 0 1 424.1035 215.9956)" class="st1 st2 st14">ecuti</text>
								<text transform="matrix(1 0 0 1 443.8184 215.9956)" class="st1 st2 st14">v</text>
								<text transform="matrix(1 0 0 1 448.791 215.9956)" class="st1 st2 st14">e at an anonymous </text>
								<path class="st1" d="M327.1,221.7h0.8v1.1h0.7v0.7h-0.7v2.8c0,0.3,0.1,0.3,0.3,0.3h0.3v0.7c-0.1,0-0.3,0-0.4,0
									c-0.8,0-1-0.3-1-1v-2.9h-0.6v-0.7h0.6L327.1,221.7L327.1,221.7z M333.9,226.4c-0.6,0.7-1.2,1-2,1c-1.6,0-2.4-1.1-2.4-2.4
									c0-1.3,1-2.4,2.4-2.4c1.4,0,2.4,1,2.4,2.7h-3.9c0.1,0.8,0.8,1.3,1.7,1.3c0.5,0,1-0.3,1.5-0.7L333.9,226.4z M333.2,224.7
									c-0.1-0.8-0.7-1.3-1.5-1.3c-1,0-1.4,0.7-1.5,1.3H333.2z M338.2,223.8c-0.3-0.3-0.7-0.4-1-0.4c-0.8,0-1.5,0.5-1.5,1.7
									c0,1,0.7,1.6,1.6,1.6c0.3,0,0.7-0.2,1-0.4l0.4,0.6c-0.4,0.4-1,0.6-1.6,0.6c-1.4,0-2.4-1.1-2.4-2.4c0-1.3,1-2.4,2.4-2.4
									c0.7,0,1.3,0.3,1.6,0.5L338.2,223.8z M342.6,224.7c0-0.7-0.3-1.3-1-1.3c-0.7,0-1.1,0.5-1.1,1.4v2.5h-0.8v-6.6h0.8v2.6l0,0
									c0.3-0.4,0.7-0.6,1.2-0.6c0.9,0,1.7,0.4,1.7,1.7v3h-0.8V224.7z M350,223.8c-0.3-0.3-0.7-0.4-1-0.4c-0.8,0-1.5,0.5-1.5,1.7
									c0,1,0.7,1.6,1.6,1.6c0.3,0,0.7-0.2,1-0.4l0.4,0.6c-0.4,0.4-1,0.6-1.6,0.6c-1.4,0-2.4-1.1-2.4-2.4c0-1.3,1-2.4,2.4-2.4
									c0.7,0,1.3,0.3,1.6,0.5L350,223.8z M353.7,222.7c1.4,0,2.4,1.1,2.4,2.4c0,1.3-1,2.4-2.4,2.4c-1.5,0-2.4-1-2.4-2.4
									C351.2,223.7,352.3,222.7,353.7,222.7z M352.1,225.1c0,0.9,0.8,1.7,1.7,1.7s1.7-0.8,1.7-1.7c0-1-0.8-1.7-1.7-1.7
									S352.1,224.1,352.1,225.1z M363.2,224.5c0-0.8-0.4-1.1-1-1.1c-0.6,0-1.1,0.4-1.1,1.1v2.7h-0.8v-2.8c0-0.8-0.4-1.1-1-1.1
									c-0.6,0-1.1,0.4-1.1,1.1v2.7h-0.8v-4.5h0.8v0.5l0,0c0.2-0.4,0.8-0.6,1.2-0.6s1,0.1,1.3,0.8c0.3-0.6,0.9-0.8,1.5-0.8
									c1,0,1.7,0.6,1.7,1.7v2.9h-0.8L363.2,224.5L363.2,224.5z M365.3,222.8h0.8v0.7l0,0c0.3-0.5,1-0.8,1.7-0.8
									c1.3,0,2.4,1,2.4,2.4c0,1.4-1.1,2.4-2.4,2.4c-0.8,0-1.4-0.3-1.7-0.8l0,0v2.6h-0.8L365.3,222.8L365.3,222.8z M367.6,223.4
									c-0.9,0-1.6,0.7-1.6,1.7c0,0.9,0.7,1.7,1.7,1.7c0.8,0,1.7-0.6,1.7-1.7C369.3,224.3,368.7,223.4,367.6,223.4z M374.2,224.3
									c0-0.8-0.8-0.9-1.4-0.9c-0.4,0-0.8,0.1-1.2,0.3l-0.3-0.6c0.7-0.3,1.2-0.3,1.7-0.3c1,0,2.1,0.4,2.1,1.6v3.1h-0.8v-0.6
									c-0.4,0.4-0.9,0.6-1.5,0.6c-1.1,0-2-0.6-2-1.7c0-0.8,0.7-1.6,2-1.6c0.4,0,1,0.2,1.4,0.5L374.2,224.3L374.2,224.3z
									 M372.9,225c-1,0-1.3,0.4-1.3,0.9s0.3,0.9,1.3,0.9c1,0,1.3-0.4,1.3-0.9S373.9,225,372.9,225z M379.2,224.7
									c0-0.7-0.3-1.3-1-1.3c-0.7,0-1.1,0.5-1.1,1.4v2.5h-0.8v-4.5h0.8v0.5l0,0c0.3-0.4,0.7-0.6,1.2-0.6c0.9,0,1.7,0.4,1.7,1.7v3
									h-0.8V224.7z M382.5,227.2l-1.9-4.4h0.9l1.5,3.5l1.5-3.5h0.9l-2.8,6.5h-0.8L382.5,227.2z M396.2,220.7h0.9v6.6h-0.9v-4.9
									l0,0l-2.7,5l-2.7-5l0,0v4.9h-0.9v-6.6h0.9l2.7,5L396.2,220.7z M385.9,226.3c0.3,0,0.6,0.3,0.6,0.6s-0.3,0.6-0.6,0.6
									s-0.6-0.3-0.6-0.6S385.6,226.3,385.9,226.3z M401.4,224.3c0-0.8-0.8-0.9-1.4-0.9c-0.4,0-0.8,0.1-1.2,0.3l-0.3-0.6
									c0.7-0.3,1.2-0.3,1.7-0.3c1,0,2.1,0.4,2.1,1.6v3.1h-0.7v-0.6c-0.4,0.4-0.9,0.6-1.5,0.6c-1.1,0-2-0.6-2-1.7
									c0-0.8,0.7-1.6,2-1.6c0.4,0,1,0.2,1.4,0.5V224.3z M400.1,225c-1,0-1.3,0.4-1.3,0.9s0.3,0.9,1.3,0.9c1,0,1.3-0.4,1.3-0.9
									C401.4,225.4,401.1,225,400.1,225z M406.3,224.7c0-0.7-0.3-1.3-1-1.3c-0.7,0-1.1,0.5-1.1,1.4v2.5h-0.8v-4.5h0.8v0.5l0,0
									c0.3-0.4,0.7-0.6,1.2-0.6c0.9,0,1.7,0.4,1.7,1.7v3h-0.8V224.7z M411.1,222.8h1l-2.1,2.1l2.2,2.4h-1.1l-1.9-2.2v2.2h-0.8
									v-6.6h0.8v4.1L411.1,222.8z M413.3,220.8c0.3,0,0.5,0.3,0.5,0.5c0,0.3-0.3,0.5-0.5,0.5c-0.3,0-0.5-0.3-0.5-0.5
									C412.7,221,413,220.8,413.3,220.8z M412.9,222.8h0.8v4.5h-0.8V222.8z M417.9,224.7c0-0.7-0.3-1.3-1-1.3
									c-0.7,0-1.1,0.5-1.1,1.4v2.5H415v-4.5h0.8v0.5l0,0c0.3-0.4,0.7-0.6,1.2-0.6c0.9,0,1.7,0.4,1.7,1.7v3h-0.8V224.7z
									 M423.9,220.7h0.8v6.6h-0.8v-0.7l0,0c-0.3,0.4-0.9,0.8-1.7,0.8c-1.2,0-2.4-1-2.4-2.4c0-1.3,1-2.4,2.4-2.4
									c0.7,0,1.3,0.3,1.7,0.8l0,0L423.9,220.7z M422.3,223.4c-1,0-1.7,0.9-1.7,1.6c0,1,0.8,1.7,1.7,1.7s1.7-0.7,1.7-1.7
									C423.9,224.2,423.1,223.4,422.3,223.4z M434,222.8h0.9l-1.7,4.5h-0.6l-1.2-3.6l0,0l-1.2,3.6h-0.6l-1.7-4.5h0.9l1.1,3.3l0,0
									l1.1-3.3h0.9l1.1,3.3l0,0L434,222.8z M437.8,222.7c1.4,0,2.4,1.1,2.4,2.4c0,1.3-1,2.4-2.4,2.4c-1.5,0-2.4-1-2.4-2.4
									S436.4,222.7,437.8,222.7z M436.3,225.1c0,0.9,0.8,1.7,1.7,1.7s1.7-0.8,1.7-1.7c0-1-0.8-1.7-1.7-1.7
									S436.3,224.1,436.3,225.1z M444.5,224.7c0-0.7-0.3-1.3-1-1.3c-0.7,0-1.1,0.5-1.1,1.4v2.5h-0.9v-4.5h0.8v0.5l0,0
									c0.3-0.4,0.7-0.6,1.2-0.6c0.9,0,1.7,0.4,1.7,1.7v3h-0.8L444.5,224.7L444.5,224.7z M447.2,220.7l0.8,0.3l-1,2.1l-0.5-0.3
									L447.2,220.7z M449.1,221.7h0.8v1.1h0.7v0.7h-0.7v2.8c0,0.3,0.1,0.3,0.3,0.3h0.3v0.7c-0.1,0-0.3,0-0.4,0c-0.8,0-1-0.3-1-1
									v-2.9h-0.7v-0.7h0.6L449.1,221.7z M454,222.1c0-1,0.6-1.4,1.6-1.5v0.8h-0.2c-0.4,0-0.6,0.3-0.6,0.7v0.6h0.7v0.7h-0.7v3.8
									H454v-3.8h-0.7v-0.7h0.7V222.1z M456.6,220.8c0.3,0,0.5,0.3,0.5,0.5c0,0.3-0.3,0.5-0.5,0.5c-0.3,0-0.5-0.3-0.5-0.5
									C456.1,221,456.3,220.8,456.6,220.8z M456.2,222.8h0.8v4.5h-0.8V222.8z M461.3,224.7c0-0.7-0.3-1.3-1-1.3
									c-0.7,0-1.1,0.5-1.1,1.4v2.5h-0.8v-4.5h0.8v0.5l0,0c0.3-0.4,0.7-0.6,1.2-0.6c0.9,0,1.7,0.4,1.7,1.7v3h-0.8V224.7z
									 M467.1,220.7h0.8v6.6h-0.8v-0.7l0,0c-0.3,0.4-0.9,0.8-1.7,0.8c-1.2,0-2.4-1-2.4-2.4c0-1.3,1-2.4,2.4-2.4
									c0.7,0,1.3,0.3,1.7,0.8l0,0L467.1,220.7z M465.6,223.4c-1,0-1.7,0.9-1.7,1.6c0,1,0.8,1.7,1.7,1.7s1.7-0.7,1.7-1.7
									C467.1,224.2,466.4,223.4,465.6,223.4z M471.7,221.7h0.8v1.1h0.7v0.7h-0.7v2.8c0,0.3,0.1,0.3,0.3,0.3h0.3v0.7
									c-0.1,0-0.3,0-0.4,0c-0.8,0-1-0.3-1-1v-2.9h-0.6v-0.7h0.6V221.7z M477.1,224.7c0-0.7-0.3-1.3-1-1.3c-0.7,0-1.1,0.5-1.1,1.4
									v2.5h-0.8v-6.6h0.8v2.6l0,0c0.3-0.4,0.7-0.6,1.2-0.6c0.9,0,1.7,0.4,1.7,1.7v3h-0.8V224.7z M483.4,226.4c-0.6,0.7-1.2,1-2,1
									c-1.6,0-2.4-1.1-2.4-2.4c0-1.3,1-2.4,2.4-2.4c1.4,0,2.4,1,2.4,2.7h-3.9c0.1,0.8,0.8,1.3,1.7,1.3c0.5,0,1-0.3,1.5-0.7
									L483.4,226.4z M482.7,224.7c-0.1-0.8-0.7-1.3-1.5-1.3c-1,0-1.4,0.7-1.5,1.3H482.7z M487,221.7h0.8v1.1h0.7v0.7h-0.7v2.8
									c0,0.3,0.1,0.3,0.3,0.3h0.3v0.7c-0.1,0-0.3,0-0.4,0c-0.8,0-1-0.3-1-1v-2.9h-0.6v-0.7h0.6L487,221.7z M489.5,222.8h0.8v0.6
									l0,0c0.3-0.7,0.8-0.8,1.4-0.8v0.8c-0.1,0-0.3,0-0.3,0c-0.6,0-1,0.4-1,1.3v2.6h-0.8L489.5,222.8L489.5,222.8z M495.5,226.8
									L495.5,226.8c-0.3,0.4-0.8,0.6-1.2,0.6c-0.9,0-1.7-0.4-1.7-1.7v-3h0.8v2.6c0,0.7,0.3,1.3,1,1.3c0.7,0,1.1-0.5,1.1-1.4v-2.5
									h0.8v4.5h-0.8V226.8z M497.7,221.7h0.8v1.1h0.7v0.7h-0.7v2.8c0,0.3,0.1,0.3,0.3,0.3h0.3v0.7c-0.1,0-0.3,0-0.4,0
									c-0.8,0-1-0.3-1-1v-2.9h-0.6v-0.7h0.6L497.7,221.7z M503.1,224.7c0-0.7-0.3-1.3-1-1.3c-0.7,0-1.1,0.5-1.1,1.4v2.5h-0.8v-6.6
									h0.8v2.6l0,0c0.3-0.4,0.7-0.6,1.2-0.6c0.9,0,1.7,0.4,1.7,1.7v3h-0.8V224.7z M505.6,226.3c0.3,0,0.6,0.3,0.6,0.6
									s-0.3,0.6-0.6,0.6c-0.3,0-0.6-0.3-0.6-0.6C505,226.5,505.3,226.3,505.6,226.3z M513.5,225.8h-3.1l-0.6,1.6h-0.9l2.7-6.6h0.7
									l2.7,6.6h-0.9L513.5,225.8z M511.9,221.8l-1.2,3.2h2.5L511.9,221.8z M516.5,220.7v5.2c0,0.5,0.3,0.7,0.5,0.7h0.3v0.7H517
									c-0.7,0-1.2-0.4-1.2-1.4v-5.2H516.5z M522.2,226.4c-0.6,0.7-1.2,1-2,1c-1.6,0-2.4-1.1-2.4-2.4c0-1.3,1-2.4,2.4-2.4
									s2.4,1,2.4,2.7h-3.9c0.1,0.8,0.8,1.3,1.7,1.3c0.5,0,1-0.3,1.5-0.7L522.2,226.4z M521.5,224.7c-0.1-0.8-0.7-1.3-1.5-1.3
									c-1,0-1.4,0.7-1.5,1.3H521.5z M526.4,222.8h1l-1.7,2.2l1.8,2.4h-1l-1.3-1.7l-1.3,1.7h-1l1.8-2.4l-1.7-2.2h1l1.2,1.7
									L526.4,222.8z M531.3,224.3c0-0.8-0.8-0.9-1.4-0.9c-0.4,0-0.8,0.1-1.2,0.3l-0.3-0.6c0.7-0.3,1.2-0.3,1.7-0.3
									c1,0,2.1,0.4,2.1,1.6v3.1h-0.8v-0.6c-0.4,0.4-0.9,0.6-1.5,0.6c-1.1,0-2-0.6-2-1.7c0-0.8,0.7-1.6,2-1.6c0.4,0,1,0.2,1.4,0.5
									L531.3,224.3L531.3,224.3z M529.9,225c-1,0-1.3,0.4-1.3,0.9s0.3,0.9,1.3,0.9s1.3-0.4,1.3-0.9S530.9,225,529.9,225z"/>
								<text transform="matrix(1 0 0 1 326.3184 238.6758)" class="st1 st2 st14">and Siri ha</text>
								<text transform="matrix(1 0 0 1 369.1494 238.6758)" class="st1 st2 st14">v</text>
								<text transform="matrix(1 0 0 1 374.0342 238.6758)" class="st1 st2 st14">e al</text>
								<text transform="matrix(1 0 0 1 388.8643 238.6758)" class="st1 st2 st14">r</text>
								<text transform="matrix(1 0 0 1 391.8291 238.6758)" class="st1 st2 st14">eady built an army of a thousand </text>
								<text transform="matrix(1 0 0 1 326.3184 250.0156)" class="st1 st2 st14">hybrid militant nomadic ser</text>
								<text transform="matrix(1 0 0 1 438.6729 250.0156)" class="st1 st2 st14">v</text>
								<text transform="matrix(1 0 0 1 443.5576 250.0156)" class="st1 st2 st14">e</text>
								<text transform="matrix(1 0 0 1 449.0537 250.0156)" class="st1 st2 st14">r</text>
								<text transform="matrix(1 0 0 1 452.0186 250.0156)" class="st1 st2 st14">s (HMNS). </text>
								<text transform="matrix(1 0 0 1 326.3174 266.5903)" class="st1 st2 st14">T</text>
								<text transform="matrix(1 0 0 1 330.7666 266.5903)" class="st1 st2 st14">his </text>
								<text transform="matrix(1 0 0 1 344.2002 266.5903)" class="st1 st2 st14">r</text>
								<text transform="matrix(1 0 0 1 347.0791 266.5903)" class="st1 st2 st14">eport is to alert </text>
								<text transform="matrix(1 0 0 1 412.1543 266.5903)" class="st1 st2 st14">y</text>
								<text transform="matrix(1 0 0 1 417.0381 266.5903)" class="st1 st2 st14">ou of HMN</text>
								<text transform="matrix(1 0 0 1 462.3994 266.5903)" class="st1 st2 st14">S</text>
								<text transform="matrix(1 0 0 1 466.8477 266.5903)" class="st1 st2 st14">.</text>
								<text transform="matrix(1 0 0 1 469.1152 266.5903)" class="st1 st2 st14"> </text>
								<text transform="matrix(1 0 0 1 471.1211 266.5903)" class="st1 st2 st14">T</text>
								<text transform="matrix(1 0 0 1 475.5713 266.5903)" class="st1 st2 st14">h</text>
								<text transform="matrix(1 0 0 1 480.543 266.5903)" class="st1 st2 st14">e</text>
								<text transform="matrix(1 0 0 1 485.8643 266.5903)" class="st1 st2 st14">y speak in </text>
								<text transform="matrix(1 0 0 1 326.3174 277.9307)" class="st1 st2 st14">langua</text>
								<text transform="matrix(1 0 0 1 354.4062 277.9307)" class="st1 st2 st14">g</text>
								<text transform="matrix(1 0 0 1 360.251 277.9307)" class="st1 st2 st14">es b</text>
								<text transform="matrix(1 0 0 1 378.0459 277.9307)" class="st1 st2 st14">ey</text>
								<text transform="matrix(1 0 0 1 388.252 277.9307)" class="st1 st2 st14">ond our capacit</text>
								<text transform="matrix(1 0 0 1 453.501 277.9307)" class="st1 st2 st14">y</text>
								<text transform="matrix(1 0 0 1 457.6885 277.9307)" class="st1 st2 st14">,</text>
								<text transform="matrix(1 0 0 1 459.6074 277.9307)" class="st1 st2 st14"> and can master </text>
								<text transform="matrix(1 0 0 1 326.3174 289.2705)" class="st1 st2 st14">tasks with minimal e</text>
								<text transform="matrix(1 0 0 1 408.0537 289.2705)" class="st1 st2 st14">f</text>
								<text transform="matrix(1 0 0 1 410.4082 289.2705)" class="st1 st2 st14">fort.</text>
								<text transform="matrix(1 0 0 1 426.8955 289.2705)" class="st1 st2 st14"> </text>
								<text transform="matrix(1 0 0 1 428.9014 289.2705)" class="st1 st2 st14">T</text>
								<text transform="matrix(1 0 0 1 433.2637 289.2705)" class="st1 st2 st14">h</text>
								<text transform="matrix(1 0 0 1 438.3223 289.2705)" class="st1 st2 st14">e</text>
								<text transform="matrix(1 0 0 1 443.6436 289.2705)" class="st1 st2 st14">y a</text>
								<text transform="matrix(1 0 0 1 455.9434 289.2705)" class="st1 st2 st14">r</text>
								<text transform="matrix(1 0 0 1 458.8223 289.2705)" class="st1 st2 st14">e said to be </text>
								<text transform="matrix(1 0 0 1 326.3174 300.6104)" class="st1 st2 st14">highly dan</text>
								<text transform="matrix(1 0 0 1 369.7588 300.6104)" class="st1 st2 st14">g</text>
								<text transform="matrix(1 0 0 1 375.6035 300.6104)" class="st1 st2 st14">e</text>
								<text transform="matrix(1 0 0 1 381.0986 300.6104)" class="st1 st2 st14">r</text>
								<text transform="matrix(1 0 0 1 384.0654 300.6104)" class="st1 st2 st14">ous and if </text>
								<text transform="matrix(1 0 0 1 426.5469 300.6104)" class="st1 st2 st14">y</text>
								<text transform="matrix(1 0 0 1 431.3447 300.6104)" class="st1 st2 st14">ou encounter on</text>
								<text transform="matrix(1 0 0 1 499.9951 300.6104)" class="st1 st2 st14">e</text>
								<text transform="matrix(1 0 0 1 505.0547 300.6104)" class="st1 st2 st14">,</text>
								<text transform="matrix(1 0 0 1 506.9746 300.6104)" class="st1 st2 st14"> </text>
								<text transform="matrix(1 0 0 1 509.2422 300.6104)" class="st1 st2 st14">y</text>
								<text transform="matrix(1 0 0 1 514.127 300.6104)" class="st1 st2 st14">our </text>
								<text transform="matrix(1 0 0 1 326.3174 311.9507)" class="st1 st2 st14">best bet is to b</text>
								<text transform="matrix(1 0 0 1 388.1641 311.9507)" class="st1 st2 st14">o</text>
								<text transform="matrix(1 0 0 1 394.0088 311.9507)" class="st1 st2 st14">w d</text>
								<text transform="matrix(1 0 0 1 409.624 311.9507)" class="st1 st2 st14">o</text>
								<text transform="matrix(1 0 0 1 415.4678 311.9507)" class="st1 st2 st14">wn and hope th</text>
								<text transform="matrix(1 0 0 1 480.7168 311.9507)" class="st1 st2 st14">e</text>
								<text transform="matrix(1 0 0 1 486.0381 311.9507)" class="st1 st2 st14">y spa</text>
								<text transform="matrix(1 0 0 1 508.2822 311.9507)" class="st1 st2 st14">r</text>
								<text transform="matrix(1 0 0 1 511.249 311.9507)" class="st1 st2 st14">e </text>
								<text transform="matrix(1 0 0 1 326.3174 323.291)" class="st1 st2 st14">y</text>
								<text transform="matrix(1 0 0 1 331.2031 323.291)" class="st1 st2 st14">our lif</text>
								<text transform="matrix(1 0 0 1 354.2324 323.291)" class="st1 st2 st14">e</text>
								<text transform="matrix(1 0 0 1 359.292 323.291)" class="st1 st2 st14">. HMNS appear to look human</text>
								<text transform="matrix(1 0 0 1 484.8174 323.291)" class="st1 st2 st14">,</text>
								<text transform="matrix(1 0 0 1 486.7363 323.291)" class="st1 st2 st14"> but </text>
								<text transform="matrix(1 0 0 1 504.793 323.291)" class="st1 st2 st14">y</text>
								<text transform="matrix(1 0 0 1 509.6777 323.291)" class="st1 st2 st14">ou </text>
								<text transform="matrix(1 0 0 1 326.3184 334.6313)" class="st1 st2 st14">may notice sli</text>
								<text transform="matrix(1 0 0 1 382.6699 334.6313)" class="st1 st2 st14">v</text>
								<text transform="matrix(1 0 0 1 387.5557 334.6313)" class="st1 st2 st14">e</text>
								<text transform="matrix(1 0 0 1 393.0508 334.6313)" class="st1 st2 st14">r</text>
								<text transform="matrix(1 0 0 1 396.0166 334.6313)" class="st1 st2 st14">s of metal on their fac</text>
								<text transform="matrix(1 0 0 1 484.3818 334.6313)" class="st1 st2 st14">e</text>
								<text transform="matrix(1 0 0 1 489.4414 334.6313)" class="st1 st2 st14">,</text>
								<text transform="matrix(1 0 0 1 491.3604 334.6313)" class="st1 st2 st14"> and their </text>
								<text transform="matrix(1 0 0 1 326.3184 345.9712)" class="st1 st2 st14">ey</text>
								<text transform="matrix(1 0 0 1 336.5254 345.9712)" class="st1 st2 st14">es a</text>
								<text transform="matrix(1 0 0 1 353.3604 345.9712)" class="st1 st2 st14">r</text>
								<text transform="matrix(1 0 0 1 356.2393 345.9712)" class="st1 st2 st14">e hypnotic but col</text>
								<text transform="matrix(1 0 0 1 430.8223 345.9712)" class="st1 st2 st14">d</text>
								<text transform="matrix(1 0 0 1 436.4922 345.9712)" class="st1 st2 st14">. Steer clear of HMN</text>
								<text transform="matrix(1 0 0 1 519.5361 345.9712)" class="st1 st2 st14">S</text>
								<text transform="matrix(1 0 0 1 523.9844 345.9712)" class="st1 st2 st14">,</text>
								<text transform="matrix(1 0 0 1 525.9912 345.9712)" class="st1 st2 st14"> </text>
								<text transform="matrix(1 0 0 1 326.3184 357.312)" class="st1 st2 st14">for th</text>
								<text transform="matrix(1 0 0 1 347.7773 357.312)" class="st1 st2 st14">e</text>
								<text transform="matrix(1 0 0 1 353.0977 357.312)" class="st1 st2 st14">y kn</text>
								<text transform="matrix(1 0 0 1 369.9336 357.312)" class="st1 st2 st14">o</text>
								<text transform="matrix(1 0 0 1 375.7773 357.312)" class="st1 st2 st14">w </text>
								<text transform="matrix(1 0 0 1 385.4609 357.312)" class="st1 st2 st14">y</text>
								<text transform="matrix(1 0 0 1 390.3457 357.312)" class="st1 st2 st14">our n</text>
								<text transform="matrix(1 0 0 1 411.6309 357.312)" class="st1 st2 st14">e</text>
								<text transform="matrix(1 0 0 1 416.9521 357.312)" class="st1 st2 st14">xt m</text>
								<text transform="matrix(1 0 0 1 434.7461 357.312)" class="st1 st2 st14">o</text>
								<text transform="matrix(1 0 0 1 440.5908 357.312)" class="st1 st2 st14">v</text>
								<text transform="matrix(1 0 0 1 445.4766 357.312)" class="st1 st2 st14">e befo</text>
								<text transform="matrix(1 0 0 1 473.2158 357.312)" class="st1 st2 st14">r</text>
								<text transform="matrix(1 0 0 1 476.1816 357.312)" class="st1 st2 st14">e </text>
								<text transform="matrix(1 0 0 1 483.9453 357.312)" class="st1 st2 st14">y</text>
								<text transform="matrix(1 0 0 1 488.8301 357.312)" class="st1 st2 st14">ou ha</text>
								<text transform="matrix(1 0 0 1 512.0342 357.312)" class="st1 st2 st14">v</text>
								<text transform="matrix(1 0 0 1 517.0059 357.312)" class="st1 st2 st14">e </text>
								<text transform="matrix(1 0 0 1 326.3184 368.6519)" class="st1 st2 st14">the chance to think it.</text>
								<text transform="matrix(1 0 0 1 326.3174 385.2256)" class="st1 st2 st14">W</text>
								<text transform="matrix(1 0 0 1 335.1279 385.2256)" class="st1 st2 st14">ill the</text>
								<text transform="matrix(1 0 0 1 356.7617 385.2256)" class="st1 st2 st14">r</text>
								<text transform="matrix(1 0 0 1 359.6396 385.2256)" class="st1 st2 st14">e be an end to this madness? Or is </text>
								<text transform="matrix(1 0 0 1 326.3174 396.5654)" class="st1 st2 st14">humanity destined to become HMNS?</text>
								<text transform="matrix(1 0 0 1 76.2603 111.1328)" class="st1 st15 st16">When Will Humans </text>
								<text transform="matrix(1 0 0 1 76.2603 146.0161)" class="st1 st15 st16">Know the Truth?</text>
							</g>
						</g>
					</g>
				</g>
			</g>
		</g>
	</g>
</g>
</svg>
